# This file uses centimeters as units for non-parametric coordinates.

mtllib cage1.mtl
g default
v 68.813477 -297.606201 -84.258583
v 68.813477 -297.606201 84.258568
v -84.257813 -297.606201 68.813011
v -68.811035 -297.606201 84.258568
v -68.811035 -297.606201 -84.258583
v -84.257813 -297.606201 -68.810890
v 62.890625 -325.352783 -77.008217
v 62.890625 -269.859619 -77.008217
v 62.890625 -269.859619 77.008202
v 62.890625 -325.352783 77.008202
v -62.888184 -325.352783 77.008202
v -77.006836 -325.352783 62.891991
v -77.006836 -269.859619 62.891991
v -62.888184 -269.859619 77.008202
v -77.006836 -325.352783 -62.889870
v -62.888184 -325.352783 -77.008217
v -62.888184 -269.859619 -77.008217
v -77.006836 -269.859619 -62.889870
v -55.256348 -174.027100 55.257103
v -55.256348 -174.027100 -55.256508
v -55.256348 -421.184082 55.257103
v -55.256348 -421.184082 -55.256508
v 55.256348 -421.184082 55.257103
v 55.256348 -421.184082 -55.256508
v 55.256348 -174.027100 55.257103
v 55.256348 -174.027100 -55.256508
v -55.256348 -186.621094 45.127708
v -55.256348 -186.621094 -45.126198
v -55.256348 -408.591309 -45.126198
v -55.256348 -408.591309 45.127708
v -49.626465 -421.184082 45.127708
v -49.626465 -421.184082 -45.126198
v 49.626465 -421.184082 -45.126198
v 49.626465 -421.184082 45.127708
v 55.256348 -408.591309 45.127708
v 55.256348 -408.591309 -45.126198
v 55.256348 -186.621094 -45.126198
v 55.256348 -186.621094 45.127708
v 49.626465 -174.027100 45.127708
v 49.626465 -174.027100 -45.126198
v -49.626465 -174.027100 -45.126198
v -49.626465 -174.027100 45.127708
v 45.126953 -186.621094 -55.256508
v -45.126953 -186.621094 -55.256508
v 45.126953 -408.591309 -55.256508
v -45.126953 -408.591309 -55.256508
v 45.126953 -186.621094 55.257103
v -45.126953 -186.621094 55.257103
v -45.126953 -408.591309 55.257103
v 45.126953 -408.591309 55.257103
v 84.257813 -297.606201 -84.258583
v 68.813477 -297.606201 -84.258583
v 84.257813 -297.606201 -68.810890
v 84.257813 -297.606201 84.258568
v 84.257813 -297.606201 68.813011
v 68.813477 -297.606201 84.258568
v -84.257813 -297.606201 84.258568
v -84.257813 -297.606201 68.813011
v -68.811035 -297.606201 84.258568
v -84.257813 -297.606201 -84.258583
v -68.811035 -297.606201 -84.258583
v -84.257813 -297.606201 -68.810890
v 9.624023 -174.027100 8.752281
v 9.624023 -174.027100 -8.750771
v -9.624023 -174.027100 -8.750771
v -9.624023 -174.027100 8.752281
v 9.624023 0.000000 8.752281
v 9.624023 0.000000 -8.750771
v -9.624023 0.000000 -8.750771
v -9.624023 0.000000 8.752281
v 77.006836 -328.500977 -77.008217
v 62.890625 -325.352783 -77.008209
v 77.006836 -325.352783 -62.889862
v 77.006836 -266.711426 -77.008217
v 77.006836 -269.859619 -62.889862
v 62.890625 -269.859619 -77.008209
v 77.006836 -266.711426 77.008202
v 62.890625 -269.859619 77.008202
v 77.006836 -269.859619 62.891991
v 77.006836 -328.500977 77.008202
v 77.006836 -325.352783 62.891991
v 62.890625 -325.352783 77.008202
v -77.006836 -328.500977 77.008202
v -62.888184 -325.352783 77.008202
v -77.006836 -325.352783 62.891991
v -77.006836 -266.711426 77.008202
v -77.006836 -269.859619 62.891991
v -62.888184 -269.859619 77.008202
v -77.006836 -328.500977 -77.008217
v -77.006836 -325.352783 -62.889870
v -62.888184 -325.352783 -77.008217
v -77.006836 -266.711426 -77.008217
v -62.888184 -269.859619 -77.008217
v -77.006836 -269.859619 -62.889870
v 45.126972 -408.591309 -45.126198
v 45.126972 -408.591309 45.127708
v -45.126968 -408.591309 -45.126202
v -45.126968 -408.591309 45.127708
v 45.126972 -186.621094 -45.126198
v 45.126972 -186.621094 45.127708
v -45.126968 -186.621094 -45.126202
v -45.126968 -186.621094 45.127708
vt 0.509150 0.788471
vt 0.592302 0.789517
vt 0.550834 0.780407
vt 0.303364 0.788471
vt 0.386516 0.789517
vt 0.345048 0.780407
vt 0.714942 0.788465
vt 0.798094 0.789516
vt 0.756627 0.780406
vt 0.464674 0.972876
vt 0.342539 0.979928
vt 0.384223 0.971864
vt 0.670460 0.972876
vt 0.548325 0.979928
vt 0.590009 0.971864
vt 0.876240 0.972882
vt 0.754105 0.979924
vt 0.795789 0.971866
vt 0.492587 0.315741
vt 0.492148 0.474698
vt 0.329888 0.474178
vt 0.330328 0.315221
vt 0.203936 0.743228
vt 0.139630 0.709413
vt 0.173265 0.709413
vt 0.203936 0.709413
vt 0.515133 0.183975
vt 0.590502 0.491976
vt 0.471149 0.115734
vt 0.590576 0.690965
vt 0.756692 0.075196
vt 0.283581 0.058913
vt 0.234831 0.055550
vt 0.770174 0.035234
vt 0.078597 0.044791
vt 0.925106 0.212219
vt 0.911010 0.190414
vt 0.089987 0.089440
vt 0.598932 0.035233
vt 0.768873 0.201436
vt 0.720122 0.198076
vt 0.721765 0.174237
vt 0.320636 0.491991
vt 0.078591 0.157219
vt 0.320525 0.532012
vt 0.320086 0.690970
vt 0.620610 0.075197
vt 0.852313 0.524543
vt 0.848952 0.573294
vt 0.634093 0.035233
vt 0.838201 0.729531
vt 0.488566 0.185481
vt 0.471152 0.228143
vt 0.818535 0.712576
vt 0.728528 0.035232
vt 0.332330 0.174692
vt 0.283579 0.171331
vt 0.285222 0.147491
vt 0.761966 0.474059
vt 0.761907 0.315094
vt 0.599700 0.474129
vt 0.599640 0.315164
vt 0.860004 0.715430
vt 0.607071 0.514151
vt 0.662848 0.035233
vt 0.876150 0.526186
vt 0.484682 0.514696
vt 0.337134 0.514223
vt 0.798931 0.035234
vt 0.281936 0.082754
vt 0.529236 0.205777
vt 0.471606 0.205143
vt 0.556692 0.075196
vt 0.570176 0.035233
vt 0.336596 0.708863
vt 0.484144 0.709336
vt 0.686290 0.075197
vt 0.699775 0.035232
vt 0.337085 0.532065
vt 0.336646 0.691022
vt 0.855672 0.475792
vt 0.662848 0.115160
vt 0.634093 0.115160
vt 0.234827 0.167971
vt 0.728528 0.115161
vt 0.699775 0.115161
vt 0.671371 0.194719
vt 0.598932 0.115160
vt 0.570176 0.115160
vt 0.332331 0.062277
vt 0.798931 0.115159
vt 0.770174 0.115159
vt 0.139630 0.404462
vt 0.108959 0.404462
vt 0.173265 0.404462
vt 0.203936 0.404462
vt 0.484632 0.532538
vt 0.484193 0.691495
vt 0.471603 0.092733
vt 0.569906 0.474142
vt 0.754625 0.514086
vt 0.771192 0.531922
vt 0.754698 0.708735
vt 0.771251 0.690887
vt 0.607143 0.708799
vt 0.532088 0.164309
vt 0.590429 0.297327
vt 0.771266 0.730910
vt 0.488564 0.073073
vt 0.771177 0.491897
vt 0.886119 0.336517
vt 0.909120 0.336971
vt 0.092696 0.066594
vt 0.501192 0.532591
vt 0.092691 0.179022
vt 0.095545 0.137554
vt 0.321173 0.297351
vt 0.501302 0.492570
vt 0.866457 0.319559
vt 0.908149 0.231881
vt 0.522377 0.315836
vt 0.500642 0.731567
vt 0.696532 0.379190
vt 0.665063 0.379204
vt 0.665075 0.410032
vt 0.696543 0.410019
vt 0.754632 0.531929
vt 0.754691 0.690894
vt 0.607077 0.531993
vt 0.607137 0.690958
vt 0.771104 0.297249
vt 0.590591 0.730988
vt 0.791701 0.315081
vt 0.791760 0.474046
vt 0.569846 0.315177
vt 0.590517 0.532000
vt 0.237759 0.404462
vt 0.108959 0.709413
vt 0.237759 0.709413
vt 0.173265 0.743228
vt 0.300537 0.315125
vt 0.300098 0.474083
vt 0.500753 0.691548
vt 0.521939 0.474794
vt 0.501840 0.297930
vt 0.319976 0.730988
vt 0.285226 0.035070
vt 0.812415 0.075196
vt 0.718480 0.221918
vt 0.612415 0.075196
vt 0.281936 0.195169
vt 0.742012 0.075197
vt 0.828469 0.522900
vt 0.832472 0.474302
vt 0.878854 0.477495
vt 0.229552 0.110588
vt 0.233334 0.078749
vt 0.767171 0.224621
vt 0.770362 0.178239
vt 0.229554 0.223000
vt 0.233333 0.191167
vt 0.330627 0.197874
vt 0.333820 0.151495
vt 0.666099 0.249754
vt 0.669877 0.217919
vt 0.330628 0.085462
vt 0.333823 0.039076
vt 0.903983 0.578568
vt 0.872148 0.574788
vt 0.236539 0.032365
vt 0.095552 0.025126
vt 0.766548 0.256674
vt 0.907697 0.254881
vt 0.330002 0.229925
vt 0.474469 0.163675
vt 0.825767 0.571588
vt 0.882850 0.718136
vt 0.089985 0.201867
vt 0.236535 0.144789
vt 0.844651 0.333655
vt 0.910907 0.478118
vt 0.526530 0.228623
vt 0.673077 0.171537
vt 0.474469 0.051265
vt 0.330002 0.117517
vt 0.506857 0.970818
vt 0.672753 0.790529
vt 0.712637 0.970815
vt 0.878545 0.790532
vt 0.466967 0.790529
vt 0.301071 0.970819
vt 0.426912 0.776450
vn 0.774442 0.000000 0.632645
vn 0.774442 0.000000 0.632645
vn 0.774442 0.000000 0.632645
vn 0.000000 -1.000000 0.000000
vn 0.000000 -1.000000 0.000000
vn 0.000000 -1.000000 0.000000
vn 0.000000 -1.000000 0.000000
vn 0.000000 1.000000 0.000000
vn 0.000000 1.000000 0.000000
vn 0.000000 1.000000 0.000000
vn 0.000000 1.000000 0.000000
vn -1.000000 -0.000000 0.000000
vn -1.000000 -0.000000 0.000000
vn -1.000000 -0.000000 0.000000
vn -1.000000 -0.000000 0.000000
vn -0.971747 -0.234699 0.024991
vn -0.971747 -0.234699 0.024991
vn -0.971747 -0.234699 0.024991
vn -0.971747 -0.234699 0.024991
vn -1.000000 0.000000 0.000000
vn -1.000000 0.000000 0.000000
vn -1.000000 0.000000 0.000000
vn -1.000000 0.000000 0.000000
vn -0.971747 -0.234698 -0.024994
vn -0.971747 -0.234698 -0.024994
vn -0.971747 -0.234698 -0.024994
vn -0.971747 -0.234698 -0.024994
vn 0.000000 -1.000000 0.000000
vn 0.000000 -1.000000 0.000000
vn 0.000000 -1.000000 0.000000
vn 0.000000 -1.000000 0.000000
vn 0.000000 -1.000000 -0.000002
vn 0.000000 -1.000000 -0.000002
vn 0.000000 -1.000000 -0.000002
vn 0.000000 -1.000000 -0.000002
vn 0.000000 -1.000000 0.000000
vn 0.000000 -1.000000 0.000000
vn 0.000000 -1.000000 0.000000
vn 0.000000 -1.000000 0.000000
vn 0.000000 -1.000000 0.000002
vn 0.000000 -1.000000 0.000002
vn 0.000000 -1.000000 0.000002
vn 0.000000 -1.000000 0.000002
vn 1.000000 0.000000 0.000000
vn 1.000000 0.000000 0.000000
vn 1.000000 0.000000 0.000000
vn 1.000000 0.000000 0.000000
vn 0.971747 0.234699 0.024990
vn 0.971747 0.234699 0.024990
vn 0.971747 0.234699 0.024990
vn 0.971747 0.234699 0.024990
vn 1.000000 -0.000000 0.000000
vn 1.000000 -0.000000 0.000000
vn 1.000000 -0.000000 0.000000
vn 1.000000 -0.000000 0.000000
vn 0.971747 0.234698 -0.024994
vn 0.971747 0.234698 -0.024994
vn 0.971747 0.234698 -0.024994
vn 0.971747 0.234698 -0.024994
vn 0.000000 1.000000 0.000000
vn 0.000000 1.000000 0.000000
vn 0.000000 1.000000 0.000000
vn 0.000000 1.000000 0.000000
vn 0.000000 1.000000 0.000000
vn 0.000000 1.000000 0.000000
vn 0.000000 1.000000 0.000000
vn 0.000000 1.000000 0.000000
vn 0.000000 1.000000 0.000000
vn 0.000000 1.000000 0.000000
vn 0.000000 1.000000 0.000000
vn 0.000000 1.000000 0.000000
vn 0.000000 1.000000 -0.000000
vn 0.000000 1.000000 -0.000000
vn 0.000000 1.000000 -0.000000
vn 0.000000 1.000000 -0.000000
vn 0.000000 0.000000 -1.000000
vn 0.000000 0.000000 -1.000000
vn 0.000000 0.000000 -1.000000
vn 0.000000 0.000000 -1.000000
vn -0.024994 0.234679 -0.971752
vn -0.024994 0.234678 -0.971752
vn -0.024994 0.234679 -0.971752
vn -0.024994 0.234679 -0.971752
vn 0.000000 0.000000 -1.000000
vn 0.000000 0.000000 -1.000000
vn 0.000000 0.000000 -1.000000
vn 0.000000 0.000000 -1.000000
vn 0.024989 -0.234679 -0.971752
vn 0.024989 -0.234679 -0.971752
vn 0.024989 -0.234679 -0.971752
vn 0.024989 -0.234679 -0.971752
vn 0.000000 0.000000 1.000000
vn 0.000000 0.000000 1.000000
vn 0.000000 0.000000 1.000000
vn 0.000000 0.000000 1.000000
vn 0.024989 -0.234679 0.971752
vn 0.024989 -0.234679 0.971752
vn 0.024989 -0.234679 0.971752
vn 0.024989 -0.234679 0.971752
vn 0.000000 0.000000 1.000000
vn 0.000000 0.000000 1.000000
vn 0.000000 0.000000 1.000000
vn 0.000000 0.000000 1.000000
vn -0.024993 0.234678 0.971752
vn -0.024993 0.234678 0.971752
vn -0.024993 0.234678 0.971752
vn -0.024993 0.234678 0.971752
vn 0.000000 1.000000 0.000000
vn 0.000000 1.000000 0.000000
vn 0.000000 1.000000 0.000000
vn 0.000000 1.000000 0.000000
vn 0.000000 1.000000 0.000000
vn 0.000000 1.000000 0.000000
vn 0.000000 1.000000 0.000000
vn 0.000000 1.000000 0.000000
vn 0.000000 1.000000 0.000000
vn 0.000000 1.000000 0.000000
vn 0.000000 -1.000000 0.000000
vn 0.000000 -1.000000 0.000000
vn 0.000000 -1.000000 0.000000
vn 0.000000 -1.000000 0.000000
vn 0.000000 -1.000000 0.000000
vn 0.000000 -1.000000 0.000000
vn 0.000000 -1.000000 0.000000
vn 0.000000 -1.000000 0.000000
vn 0.000000 -1.000000 0.000000
vn 0.000000 -1.000000 0.000000
vn -0.024994 -0.234678 -0.971752
vn -0.024994 -0.234678 -0.971752
vn -0.024994 -0.234678 -0.971752
vn -0.024994 -0.234678 -0.971752
vn 0.971747 -0.234699 0.024991
vn 0.971747 -0.234699 0.024991
vn 0.971747 -0.234699 0.024991
vn 0.971747 -0.234699 0.024991
vn 0.971747 -0.234698 -0.024994
vn 0.971747 -0.234698 -0.024994
vn 0.971747 -0.234698 -0.024994
vn 0.971747 -0.234698 -0.024994
vn -0.024993 -0.234678 0.971752
vn -0.024993 -0.234678 0.971752
vn -0.024993 -0.234678 0.971752
vn -0.024993 -0.234678 0.971752
vn -0.971747 0.234698 -0.024994
vn -0.971747 0.234698 -0.024994
vn -0.971747 0.234698 -0.024994
vn -0.971747 0.234698 -0.024994
vn 0.024989 0.234679 0.971752
vn 0.024989 0.234679 0.971752
vn 0.024989 0.234679 0.971752
vn 0.024989 0.234679 0.971752
vn 0.024989 0.234679 -0.971752
vn 0.024989 0.234679 -0.971752
vn 0.024989 0.234679 -0.971752
vn 0.024989 0.234679 -0.971752
vn -0.971747 0.234699 0.024990
vn -0.971747 0.234699 0.024990
vn -0.971747 0.234699 0.024990
vn -0.971747 0.234699 0.024990
vn 0.000000 1.000000 0.000000
vn 0.000000 1.000000 0.000000
vn 0.000000 1.000000 0.000000
vn 0.000000 1.000000 0.000000
vn 0.000000 1.000000 0.000000
vn 0.000000 1.000000 0.000000
vn 0.000000 1.000000 0.000000
vn 0.000000 1.000000 0.000000
vn 0.000000 1.000000 0.000000
vn 0.000000 1.000000 0.000000
vn 0.000000 1.000000 0.000000
vn 0.000000 1.000000 0.000000
vn 0.000000 1.000000 0.000000
vn 0.000000 1.000000 0.000000
vn 0.000000 1.000000 0.000000
vn 0.000000 1.000000 0.000000
vn 1.000000 0.000000 0.000000
vn 1.000000 0.000000 0.000000
vn 1.000000 0.000000 0.000000
vn 1.000000 0.000000 0.000000
vn 0.000000 0.000000 -1.000000
vn 0.000000 0.000000 -1.000000
vn 0.000000 0.000000 -1.000000
vn 0.000000 0.000000 -1.000000
vn -1.000000 0.000000 0.000000
vn -1.000000 0.000000 0.000000
vn -1.000000 0.000000 0.000000
vn -1.000000 0.000000 0.000000
vn 0.000000 0.000000 1.000000
vn 0.000000 0.000000 1.000000
vn 0.000000 0.000000 1.000000
vn 0.000000 0.000000 1.000000
vn -0.135695 -0.209009 -0.968454
vn -0.135695 -0.209009 -0.968454
vn -0.135695 -0.209009 -0.968454
vn -0.135695 -0.209009 -0.968454
vn 0.968459 -0.209001 0.135672
vn 0.968458 -0.209001 0.135672
vn 0.968459 -0.209001 0.135672
vn 0.968458 -0.209001 0.135672
vn 0.968458 0.208997 0.135681
vn 0.968458 0.208997 0.135681
vn 0.968458 0.208997 0.135681
vn 0.968458 0.208997 0.135681
vn -0.670390 -0.318226 0.670306
vn -0.670390 -0.318226 0.670306
vn -0.670390 -0.318226 0.670306
vn -0.670390 -0.318226 0.670306
vn -0.135703 0.209005 -0.968453
vn -0.135703 0.209005 -0.968453
vn -0.135703 0.209005 -0.968453
vn -0.135703 0.209005 -0.968453
vn -0.135699 0.209000 0.968455
vn -0.135699 0.209000 0.968455
vn -0.135699 0.209000 0.968455
vn -0.135699 0.209000 0.968455
vn 0.968457 0.208994 -0.135695
vn 0.968457 0.208994 -0.135695
vn 0.968457 0.208994 -0.135695
vn 0.968457 0.208994 -0.135695
vn 0.968457 -0.208997 -0.135687
vn 0.968457 -0.208997 -0.135687
vn 0.968457 -0.208997 -0.135687
vn 0.968457 -0.208997 -0.135687
vn -0.135691 -0.209003 0.968455
vn -0.135691 -0.209003 0.968455
vn -0.135691 -0.209003 0.968455
vn -0.135691 -0.209003 0.968455
vn 0.135680 -0.209008 0.968456
vn 0.135680 -0.209008 0.968456
vn 0.135680 -0.209008 0.968456
vn 0.135680 -0.209008 0.968456
vn -0.968457 -0.208997 -0.135687
vn -0.968457 -0.208997 -0.135687
vn -0.968457 -0.208997 -0.135687
vn -0.968457 -0.208997 -0.135687
vn -0.968457 0.208994 -0.135695
vn -0.968457 0.208994 -0.135695
vn -0.968457 0.208994 -0.135695
vn -0.968457 0.208994 -0.135695
vn 0.135688 0.209004 0.968455
vn 0.135688 0.209004 0.968455
vn 0.135688 0.209004 0.968455
vn 0.135688 0.209004 0.968455
vn -0.968458 -0.209001 0.135672
vn -0.968458 -0.209001 0.135672
vn -0.968458 -0.209001 0.135672
vn -0.968459 -0.209001 0.135672
vn 0.135684 -0.209013 -0.968454
vn 0.135684 -0.209013 -0.968454
vn 0.135684 -0.209013 -0.968454
vn 0.135684 -0.209013 -0.968454
vn 0.135692 0.209010 -0.968454
vn 0.135692 0.209010 -0.968454
vn 0.135692 0.209010 -0.968454
vn 0.135692 0.209010 -0.968454
vn 0.670358 -0.318217 0.670342
vn 0.670358 -0.318217 0.670342
vn 0.670358 -0.318217 0.670342
vn 0.670358 -0.318217 0.670342
vn -0.968458 0.208997 0.135681
vn -0.968458 0.208997 0.135681
vn -0.968458 0.208997 0.135681
vn -0.968458 0.208997 0.135681
vn 0.000000 1.000000 -0.000004
vn 0.000000 1.000000 -0.000004
vn 0.000000 1.000000 -0.000004
vn 0.000000 1.000000 -0.000004
vn 0.000000 1.000000 0.000000
vn 0.000000 1.000000 0.000000
vn 0.000000 1.000000 0.000000
vn 0.000000 1.000000 0.000000
vn 0.000000 1.000000 0.000003
vn 0.000000 1.000000 0.000003
vn 0.000000 1.000000 0.000003
vn 0.000000 1.000000 0.000003
vn 0.000000 1.000000 0.000000
vn 0.000000 1.000000 0.000000
vn 0.000000 1.000000 0.000000
vn 0.000000 1.000000 0.000000
vn 0.000000 1.000000 0.000000
vn 0.000000 1.000000 0.000000
vn 0.000000 1.000000 0.000000
vn 0.000000 1.000000 0.000000
vn 0.000000 1.000000 0.000000
vn 0.000000 1.000000 0.000000
vn 0.670316 -0.318217 -0.670384
vn 0.670316 -0.318217 -0.670384
vn 0.670316 -0.318217 -0.670384
vn 0.670316 -0.318217 -0.670384
vn -0.670348 -0.318226 -0.670348
vn -0.670348 -0.318226 -0.670348
vn -0.670348 -0.318226 -0.670348
vn -0.670348 -0.318226 -0.670348
vn -0.670348 0.318226 -0.670348
vn -0.670348 0.318226 -0.670348
vn -0.670348 0.318226 -0.670348
vn -0.670348 0.318226 -0.670348
vn 0.670316 0.318217 -0.670384
vn 0.670316 0.318217 -0.670384
vn 0.670316 0.318217 -0.670384
vn 0.670316 0.318217 -0.670384
vn 0.774442 0.000000 0.632645
vn 0.774442 0.000000 0.632645
vn 0.774442 0.000000 0.632645
vn 0.632495 0.000000 -0.774564
vn 0.632495 0.000000 -0.774564
vn 0.632495 0.000000 -0.774564
vn -0.632495 0.000000 0.774564
vn -0.632495 0.000000 0.774564
vn -0.632495 0.000000 0.774564
vn 0.707046 0.000000 -0.707168
vn 0.707046 0.000000 -0.707168
vn 0.707046 0.000000 -0.707168
vn 0.707046 0.000000 -0.707168
vn 0.670358 0.318217 0.670341
vn 0.670358 0.318217 0.670341
vn 0.670358 0.318217 0.670341
vn 0.670358 0.318217 0.670341
vn 0.707099 0.000000 0.707114
vn 0.707099 0.000000 0.707114
vn 0.707099 0.000000 0.707114
vn 0.707099 0.000000 0.707114
vn -0.707107 0.000000 -0.707107
vn -0.707107 0.000000 -0.707107
vn -0.707107 0.000000 -0.707107
vn -0.707107 0.000000 -0.707107
vn -0.670390 0.318226 0.670306
vn -0.670390 0.318226 0.670306
vn -0.670390 0.318226 0.670306
vn -0.670390 0.318226 0.670306
vn -0.707160 0.000000 0.707053
vn -0.707160 0.000000 0.707053
vn -0.707160 0.000000 0.707053
vn -0.707160 0.000000 0.707053
vn 0.774442 0.000000 -0.632645
vn 0.774442 0.000000 -0.632645
vn 0.774442 0.000000 -0.632645
vn 0.632495 0.000000 0.774564
vn 0.632495 0.000000 0.774564
vn 0.632495 0.000000 0.774564
vn -0.774442 0.000000 0.632645
vn -0.774442 0.000000 0.632645
vn -0.774442 0.000000 0.632645
vn -0.632495 0.000000 -0.774564
vn -0.632495 0.000000 -0.774564
vn -0.632495 0.000000 -0.774564
vn 0.000000 -1.000000 0.000000
vn 0.000000 -1.000000 0.000000
vn 0.000000 -1.000000 0.000000
vn 0.000000 -1.000000 0.000000
vn 0.000000 -1.000000 0.000000
vn 0.000000 -1.000000 0.000000
vn 0.000000 -1.000000 0.000000
vn 0.000000 -1.000000 0.000000
vn 0.000000 -1.000000 0.000000
vn 0.000000 -1.000000 0.000000
vn 0.000000 -1.000000 0.000001
vn 0.000000 -1.000000 0.000001
vn 0.000000 -1.000000 0.000001
vn 0.000000 -1.000000 0.000001
vn 0.000000 -1.000000 0.000000
vn 0.000000 -1.000000 0.000000
vn 0.000000 -1.000000 0.000000
vn 0.000000 -1.000000 0.000000
vn 0.000000 -1.000000 0.000000
vn 0.000000 -1.000000 0.000000
vn 0.000000 -1.000000 0.000000
vn 0.000000 -1.000000 0.000000
vn 0.000000 0.252818 -0.967514
vn 0.000000 0.252818 -0.967514
vn 0.000000 0.252818 -0.967514
vn 0.000000 0.252818 -0.967514
vn 0.000000 -0.252818 -0.967514
vn 0.000000 -0.252818 -0.967514
vn 0.000000 -0.252818 -0.967514
vn 0.000000 -0.252818 -0.967514
vn 0.000000 0.000000 1.000000
vn 0.000000 0.000000 1.000000
vn 0.000000 0.000000 1.000000
vn 0.000000 0.000000 1.000000
vn -0.967509 -0.252838 0.000000
vn -0.967509 -0.252838 0.000000
vn -0.967509 -0.252838 0.000000
vn -0.967509 -0.252838 0.000000
vn -0.967509 0.252838 0.000000
vn -0.967509 0.252838 0.000000
vn -0.967509 0.252838 0.000000
vn -0.967509 0.252838 0.000000
vn 1.000000 0.000000 0.000000
vn 1.000000 0.000000 0.000000
vn 1.000000 0.000000 0.000000
vn 1.000000 0.000000 0.000000
vn 0.000000 0.000000 -1.000000
vn 0.000000 0.000000 -1.000000
vn 0.000000 0.000000 -1.000000
vn 0.000000 0.000000 -1.000000
vn 0.000000 -0.252818 0.967514
vn 0.000000 -0.252818 0.967514
vn 0.000000 -0.252818 0.967514
vn 0.000000 -0.252818 0.967514
vn 0.000000 0.252818 0.967514
vn 0.000000 0.252818 0.967514
vn 0.000000 0.252818 0.967514
vn 0.000000 0.252818 0.967514
s off
g cage1
usemtl initialShadingGroup
f 8/190/1 7/5/2 1/192/3
f 31/19/4 32/20/5 33/21/6 34/22/7
f 67/23/8 68/140/9 69/25/10 70/26/11
f 19/107/12 20/28/13 28/100/14 27/135/15
f 62/147/16 60/32/17 89/33/18 90/170/19
f 22/118/20 21/145/21 30/121/22 29/144/23
f 85/159/24 83/40/25 57/41/26 58/42/27
f 21/145/28 22/118/29 32/20/30 31/19/31
f 22/118/32 24/43/33 33/21/34 32/20/35
f 24/43/36 23/117/37 34/22/38 33/21/39
f 23/117/40 21/145/41 31/19/42 34/22/43
f 23/117/44 24/43/45 36/142/46 35/141/47
f 53/153/48 51/48/49 74/49/50 75/176/51
f 26/110/52 25/131/53 38/133/54 37/134/55
f 79/163/56 77/56/57 54/57/58 55/58/59
f 25/131/60 26/110/61 40/59/62 39/60/63
f 26/110/64 20/28/65 41/61/66 40/59/67
f 20/28/68 19/107/69 42/62/70 41/61/71
f 19/107/72 25/131/73 39/60/74 42/62/75
f 20/28/76 26/110/77 43/101/78 44/64/79
f 76/169/80 74/49/81 51/48/82 52/66/83
f 24/43/84 22/118/85 46/67/86 45/68/87
f 91/157/88 89/33/89 60/32/90 61/70/91
f 25/108/92 19/132/93 48/105/94 47/103/95
f 59/149/96 57/41/97 83/40/98 84/158/99
f 21/122/100 23/146/101 50/75/102 49/76/103
f 56/151/104 54/57/105 77/56/106 78/162/107
f 95/79/108 96/80/109 35/46/110 36/45/111
f 96/80/112 50/75/113 35/46/114
f 45/68/115 95/79/116 36/45/117
f 27/30/118 28/136/119 101/129/120 102/130/121
f 102/130/122 48/105/123 27/30/124
f 44/64/125 101/129/126 28/136/127
f 52/66/128 51/48/129 71/81/130 72/155/131
f 73/154/132 71/81/133 51/48/134 53/153/135
f 55/58/136 54/57/137 80/84/138 81/179/139
f 82/161/140 80/84/141 54/57/142 56/151/143
f 58/42/144 57/41/145 86/87/146 87/183/147
f 88/165/148 86/87/149 57/41/150 59/149/151
f 61/70/152 60/32/153 92/90/154 93/166/155
f 94/167/156 92/90/157 60/32/158 62/147/159
f 39/60/160 40/59/161 64/126/162 63/123/163
f 40/59/164 41/61/165 65/125/166 64/126/167
f 41/61/168 42/62/169 66/124/170 65/125/171
f 42/62/172 39/60/173 63/123/174 66/124/175
f 63/94/176 64/93/177 68/24/178 67/138/179
f 64/93/180 65/95/181 69/25/182 68/24/183
f 65/95/184 66/96/185 70/26/186 69/25/187
f 66/96/188 63/137/189 67/139/190 70/26/191
f 72/155/192 71/81/193 24/119/194 45/111/195
f 24/119/196 71/81/197 73/154/198 36/180/199
f 75/176/200 74/49/201 26/51/202 37/54/203
f 76/169/204 75/168/205 37/177/206 43/63/207
f 26/51/208 74/49/209 76/169/210 43/63/211
f 78/162/212 77/56/213 25/52/214 47/72/215
f 25/52/216 77/56/217 79/163/218 38/175/219
f 81/179/220 80/84/221 23/44/222 35/116/223
f 23/44/224 80/84/225 82/161/226 50/115/227
f 84/158/228 83/40/229 21/36/230 49/120/231
f 21/36/232 83/40/233 85/159/234 30/37/235
f 87/183/236 86/87/237 19/27/238 27/106/239
f 19/27/240 86/87/241 88/165/242 48/71/243
f 90/170/244 89/33/245 22/35/246 29/171/247
f 22/35/248 89/33/249 91/157/250 46/113/251
f 93/166/252 92/90/253 20/109/254 44/99/255
f 28/29/256 94/185/257 93/166/258 44/99/259
f 20/109/260 92/90/261 94/167/262 28/184/263
f 45/68/264 46/67/265 97/97/266 95/79/267
f 97/97/268 98/98/269 96/80/270 95/79/271
f 49/76/272 50/75/273 96/80/274 98/98/275
f 97/97/276 46/67/277 29/114/278
f 29/114/279 30/143/280 98/98/281 97/97/282
f 49/76/283 98/98/284 30/143/285
f 87/164/286 27/182/287 48/71/288 88/165/289
f 78/162/290 47/72/291 38/53/292 79/174/293
f 81/160/294 35/178/295 50/115/296 82/161/297
f 84/158/298 49/120/299 30/173/300 85/172/301
f 88/89/302 59/73/303 84/74/304
f 79/55/305 55/152/306 81/85/307
f 94/92/308 62/31/309 90/34/310
f 87/88/311 88/89/312 84/74/313 85/39/314
f 90/156/315 29/38/316 46/113/317 91/157/318
f 93/91/319 94/92/320 90/34/321 91/69/322
f 78/78/323 79/55/324 81/85/325 82/86/326
f 36/112/327 73/181/328 72/155/329 45/111/330
f 75/50/331 76/65/332 72/82/333 73/83/334
f 93/91/335 91/69/336 61/148/337
f 75/50/338 73/83/339 53/47/340
f 78/78/341 82/86/342 56/77/343
f 87/88/344 85/39/345 58/150/346
f 99/127/347 43/101/348 37/102/349
f 100/128/350 99/127/351 37/102/352 38/104/353
f 47/103/354 100/128/355 38/104/356
f 44/64/357 43/101/358 99/127/359 101/129/360
f 102/130/361 101/129/362 99/127/363 100/128/364
f 47/103/365 48/105/366 102/130/367 100/128/368
f 8/4/369 1/6/370 5/11/371 17/191/372
f 1/6/373 7/5/374 16/12/375 5/11/376
f 7/5/377 8/190/378 17/10/379 16/12/380
f 12/18/381 3/17/382 6/9/383 15/8/384
f 3/17/385 13/188/386 18/7/387 6/9/388
f 13/16/389 12/18/390 15/8/391 18/189/392
f 9/13/393 10/15/394 11/2/395 14/187/396
f 10/15/397 2/14/398 4/3/399 11/2/400
f 2/14/401 9/186/402 14/1/403 4/3/404
