# This file uses centimeters as units for non-parametric coordinates.

mtllib cage3.mtl
g default
v 68.813477 -297.606201 -84.258583
v 68.813477 -297.606201 84.258568
v -84.257813 -297.606201 68.813011
v -68.811035 -297.606201 84.258568
v -84.257813 -297.606201 -68.810890
v 62.890625 -325.352783 -77.008217
v 62.890625 -269.859619 -77.008217
v 62.890625 -269.859619 77.008202
v 62.890625 -325.352783 77.008202
v -62.888184 -325.352783 77.008202
v -77.006836 -325.352783 62.891991
v -77.006836 -269.859619 62.891991
v -62.888184 -269.859619 77.008202
v -77.006836 -325.352783 -62.889870
v -77.006836 -269.859619 -62.889870
v -55.256348 -174.027100 55.257103
v -55.256348 -174.027100 -55.256508
v -55.256348 -421.184082 55.257103
v -55.256348 -421.184082 -55.256508
v 55.256348 -421.184082 55.257103
v 55.256348 -421.184082 -55.256508
v 55.256348 -174.027100 55.257103
v 55.256348 -174.027100 -55.256508
v -55.256348 -186.621094 45.127708
v -55.256348 -186.621094 -45.126198
v -55.256348 -408.591309 -45.126198
v -55.256348 -408.591309 45.127708
v -49.626465 -421.184082 45.127708
v -49.626465 -421.184082 -45.126198
v 49.626465 -421.184082 -45.126198
v 49.626465 -421.184082 45.127708
v 55.256348 -408.591309 45.127708
v 55.256348 -408.591309 -45.126198
v 55.256348 -186.621094 -45.126198
v 55.256348 -186.621094 45.127708
v 49.626465 -174.027100 45.127708
v 49.626465 -174.027100 -45.126198
v -49.626465 -174.027100 -45.126198
v -49.626465 -174.027100 45.127708
v 45.126953 -186.621094 -55.256508
v -45.126953 -186.621094 -55.256508
v 45.126953 -408.591309 -55.256508
v -45.126953 -408.591309 -55.256508
v 45.126953 -186.621094 55.257103
v -45.126953 -186.621094 55.257103
v -45.126953 -408.591309 55.257103
v 45.126953 -408.591309 55.257103
v 84.257813 -297.606201 -84.258583
v 68.813477 -297.606201 -84.258583
v 84.257813 -297.606201 -68.810890
v 84.257813 -297.606201 84.258568
v 84.257813 -297.606201 68.813011
v 68.813477 -297.606201 84.258568
v -84.257813 -297.606201 84.258568
v -84.257813 -297.606201 68.813011
v -68.811035 -297.606201 84.258568
v -84.257813 -297.606201 -84.258583
v -68.811035 -297.606201 -84.258583
v -84.257813 -297.606201 -68.810890
v 9.624023 -174.027100 8.752281
v 9.624023 -174.027100 -8.750771
v -9.624023 -174.027100 -8.750771
v -9.624023 -174.027100 8.752281
v 9.624023 0.000000 8.752281
v 9.624023 0.000000 -8.750771
v -9.624023 0.000000 -8.750771
v -9.624023 0.000000 8.752281
v 77.006836 -328.500977 -77.008217
v 62.890625 -325.352783 -77.008209
v 77.006836 -325.352783 -62.889862
v 77.006836 -266.711426 -77.008217
v 77.006836 -269.859619 -62.889862
v 62.890625 -269.859619 -77.008209
v 77.006836 -266.711426 77.008202
v 62.890625 -269.859619 77.008202
v 77.006836 -269.859619 62.891991
v 77.006836 -328.500977 77.008202
v 77.006836 -325.352783 62.891991
v 62.890625 -325.352783 77.008202
v -77.006836 -328.500977 77.008202
v -62.888184 -325.352783 77.008202
v -77.006836 -325.352783 62.891991
v -77.006836 -266.711426 77.008202
v -77.006836 -269.859619 62.891991
v -62.888184 -269.859619 77.008202
v -77.006836 -328.500977 -77.008217
v -77.006836 -325.352783 -62.889870
v -62.888184 -325.352783 -77.008217
v -77.006836 -266.711426 -77.008217
v -62.888184 -269.859619 -77.008217
v -77.006836 -269.859619 -62.889870
v 45.126972 -408.591309 -45.126198
v 45.126972 -408.591309 45.127708
v -45.126968 -408.591309 -45.126202
v -45.126968 -408.591309 45.127708
v 45.126972 -186.621094 -45.126198
v 45.126972 -186.621094 45.127708
v -45.126968 -186.621094 -45.126202
v -45.126968 -186.621094 45.127708
vt 0.509150 0.788471
vt 0.592302 0.789517
vt 0.550834 0.780407
vt 0.386516 0.789517
vt 0.714942 0.788465
vt 0.798094 0.789516
vt 0.756627 0.780406
vt 0.670460 0.972876
vt 0.548325 0.979928
vt 0.590009 0.971864
vt 0.876240 0.972882
vt 0.754105 0.979924
vt 0.795789 0.971866
vt 0.492587 0.315741
vt 0.492148 0.474698
vt 0.329888 0.474178
vt 0.330328 0.315221
vt 0.203936 0.743228
vt 0.139630 0.709413
vt 0.173265 0.709413
vt 0.203936 0.709413
vt 0.515133 0.183975
vt 0.590502 0.491976
vt 0.471149 0.115734
vt 0.590576 0.690965
vt 0.756692 0.075196
vt 0.283581 0.058913
vt 0.234831 0.055550
vt 0.770174 0.035234
vt 0.078597 0.044791
vt 0.925106 0.212219
vt 0.911010 0.190414
vt 0.089987 0.089440
vt 0.598932 0.035233
vt 0.768873 0.201436
vt 0.720122 0.198076
vt 0.721765 0.174237
vt 0.320636 0.491991
vt 0.078591 0.157219
vt 0.320525 0.532012
vt 0.320086 0.690970
vt 0.620610 0.075197
vt 0.852313 0.524543
vt 0.848952 0.573294
vt 0.634093 0.035233
vt 0.838201 0.729531
vt 0.488566 0.185481
vt 0.471152 0.228143
vt 0.818535 0.712576
vt 0.728528 0.035232
vt 0.332330 0.174692
vt 0.283579 0.171331
vt 0.285222 0.147491
vt 0.761966 0.474059
vt 0.761907 0.315094
vt 0.599700 0.474129
vt 0.599640 0.315164
vt 0.860004 0.715430
vt 0.607071 0.514151
vt 0.662848 0.035233
vt 0.876150 0.526186
vt 0.484682 0.514696
vt 0.337134 0.514223
vt 0.798931 0.035234
vt 0.281936 0.082754
vt 0.529236 0.205777
vt 0.471606 0.205143
vt 0.556692 0.075196
vt 0.570176 0.035233
vt 0.336596 0.708863
vt 0.484144 0.709336
vt 0.686290 0.075197
vt 0.699775 0.035232
vt 0.337085 0.532065
vt 0.336646 0.691022
vt 0.855672 0.475792
vt 0.662848 0.115160
vt 0.634093 0.115160
vt 0.234827 0.167971
vt 0.728528 0.115161
vt 0.699775 0.115161
vt 0.671371 0.194719
vt 0.598932 0.115160
vt 0.570176 0.115160
vt 0.332331 0.062277
vt 0.798931 0.115159
vt 0.770174 0.115159
vt 0.139630 0.404462
vt 0.108959 0.404462
vt 0.173265 0.404462
vt 0.203936 0.404462
vt 0.484632 0.532538
vt 0.484193 0.691495
vt 0.471603 0.092733
vt 0.569906 0.474142
vt 0.754625 0.514086
vt 0.771192 0.531922
vt 0.754698 0.708735
vt 0.771251 0.690887
vt 0.607143 0.708799
vt 0.532088 0.164309
vt 0.590429 0.297327
vt 0.771266 0.730910
vt 0.488564 0.073073
vt 0.771177 0.491897
vt 0.886119 0.336517
vt 0.909120 0.336971
vt 0.092696 0.066594
vt 0.501192 0.532591
vt 0.092691 0.179022
vt 0.095545 0.137554
vt 0.321173 0.297351
vt 0.501302 0.492570
vt 0.866457 0.319559
vt 0.908149 0.231881
vt 0.522377 0.315836
vt 0.500642 0.731567
vt 0.696532 0.379190
vt 0.665063 0.379204
vt 0.665075 0.410032
vt 0.696543 0.410019
vt 0.754632 0.531929
vt 0.754691 0.690894
vt 0.607077 0.531993
vt 0.607137 0.690958
vt 0.771104 0.297249
vt 0.590591 0.730988
vt 0.791701 0.315081
vt 0.791760 0.474046
vt 0.569846 0.315177
vt 0.590517 0.532000
vt 0.237759 0.404462
vt 0.108959 0.709413
vt 0.237759 0.709413
vt 0.173265 0.743228
vt 0.300537 0.315125
vt 0.300098 0.474083
vt 0.500753 0.691548
vt 0.521939 0.474794
vt 0.501840 0.297930
vt 0.319976 0.730988
vt 0.285226 0.035070
vt 0.812415 0.075196
vt 0.718480 0.221918
vt 0.612415 0.075196
vt 0.281936 0.195169
vt 0.742012 0.075197
vt 0.828469 0.522900
vt 0.832472 0.474302
vt 0.878854 0.477495
vt 0.229552 0.110588
vt 0.233334 0.078749
vt 0.767171 0.224621
vt 0.770362 0.178239
vt 0.229554 0.223000
vt 0.233333 0.191167
vt 0.330627 0.197874
vt 0.333820 0.151495
vt 0.666099 0.249754
vt 0.669877 0.217919
vt 0.330628 0.085462
vt 0.333823 0.039076
vt 0.903983 0.578568
vt 0.872148 0.574788
vt 0.236539 0.032365
vt 0.095552 0.025126
vt 0.766548 0.256674
vt 0.907697 0.254881
vt 0.330002 0.229925
vt 0.474469 0.163675
vt 0.825767 0.571588
vt 0.882850 0.718136
vt 0.089985 0.201867
vt 0.236535 0.144789
vt 0.844651 0.333655
vt 0.910907 0.478118
vt 0.526530 0.228623
vt 0.673077 0.171537
vt 0.474469 0.051265
vt 0.330002 0.117517
vt 0.506857 0.970818
vt 0.672753 0.790529
vt 0.712637 0.970815
vt 0.878545 0.790532
vt 0.466967 0.790529
vt 0.426912 0.776450
vn 0.774442 0.000000 0.632645
vn 0.774442 0.000000 0.632645
vn 0.774442 0.000000 0.632645
vn 0.000000 -1.000000 0.000000
vn 0.000000 -1.000000 0.000000
vn 0.000000 -1.000000 0.000000
vn 0.000000 -1.000000 0.000000
vn 0.000000 1.000000 0.000000
vn 0.000000 1.000000 0.000000
vn 0.000000 1.000000 0.000000
vn 0.000000 1.000000 0.000000
vn -1.000000 -0.000000 0.000000
vn -1.000000 -0.000000 0.000000
vn -1.000000 -0.000000 0.000000
vn -1.000000 -0.000000 0.000000
vn -0.971747 -0.234699 0.024991
vn -0.971747 -0.234699 0.024991
vn -0.971747 -0.234699 0.024991
vn -0.971747 -0.234699 0.024991
vn -1.000000 0.000000 0.000000
vn -1.000000 0.000000 0.000000
vn -1.000000 0.000000 0.000000
vn -1.000000 0.000000 0.000000
vn -0.971747 -0.234698 -0.024994
vn -0.971747 -0.234698 -0.024994
vn -0.971747 -0.234698 -0.024994
vn -0.971747 -0.234698 -0.024994
vn 0.000000 -1.000000 0.000000
vn 0.000000 -1.000000 0.000000
vn 0.000000 -1.000000 0.000000
vn 0.000000 -1.000000 0.000000
vn 0.000000 -1.000000 -0.000002
vn 0.000000 -1.000000 -0.000002
vn 0.000000 -1.000000 -0.000002
vn 0.000000 -1.000000 -0.000002
vn 0.000000 -1.000000 0.000000
vn 0.000000 -1.000000 0.000000
vn 0.000000 -1.000000 0.000000
vn 0.000000 -1.000000 0.000000
vn 0.000000 -1.000000 0.000002
vn 0.000000 -1.000000 0.000002
vn 0.000000 -1.000000 0.000002
vn 0.000000 -1.000000 0.000002
vn 1.000000 0.000000 0.000000
vn 1.000000 0.000000 0.000000
vn 1.000000 0.000000 0.000000
vn 1.000000 0.000000 0.000000
vn 0.971747 0.234699 0.024990
vn 0.971747 0.234699 0.024990
vn 0.971747 0.234699 0.024990
vn 0.971747 0.234699 0.024990
vn 1.000000 -0.000000 0.000000
vn 1.000000 -0.000000 0.000000
vn 1.000000 -0.000000 0.000000
vn 1.000000 -0.000000 0.000000
vn 0.971747 0.234698 -0.024994
vn 0.971747 0.234698 -0.024994
vn 0.971747 0.234698 -0.024994
vn 0.971747 0.234698 -0.024994
vn 0.000000 1.000000 0.000000
vn 0.000000 1.000000 0.000000
vn 0.000000 1.000000 0.000000
vn 0.000000 1.000000 0.000000
vn 0.000000 1.000000 0.000000
vn 0.000000 1.000000 0.000000
vn 0.000000 1.000000 0.000000
vn 0.000000 1.000000 0.000000
vn 0.000000 1.000000 0.000000
vn 0.000000 1.000000 0.000000
vn 0.000000 1.000000 0.000000
vn 0.000000 1.000000 0.000000
vn 0.000000 1.000000 -0.000000
vn 0.000000 1.000000 -0.000000
vn 0.000000 1.000000 -0.000000
vn 0.000000 1.000000 -0.000000
vn 0.000000 0.000000 -1.000000
vn 0.000000 0.000000 -1.000000
vn 0.000000 0.000000 -1.000000
vn 0.000000 0.000000 -1.000000
vn -0.024994 0.234679 -0.971752
vn -0.024994 0.234678 -0.971752
vn -0.024994 0.234679 -0.971752
vn -0.024994 0.234679 -0.971752
vn 0.000000 0.000000 -1.000000
vn 0.000000 0.000000 -1.000000
vn 0.000000 0.000000 -1.000000
vn 0.000000 0.000000 -1.000000
vn 0.024989 -0.234679 -0.971752
vn 0.024989 -0.234679 -0.971752
vn 0.024989 -0.234679 -0.971752
vn 0.024989 -0.234679 -0.971752
vn 0.000000 0.000000 1.000000
vn 0.000000 0.000000 1.000000
vn 0.000000 0.000000 1.000000
vn 0.000000 0.000000 1.000000
vn 0.024989 -0.234679 0.971752
vn 0.024989 -0.234679 0.971752
vn 0.024989 -0.234679 0.971752
vn 0.024989 -0.234679 0.971752
vn 0.000000 0.000000 1.000000
vn 0.000000 0.000000 1.000000
vn 0.000000 0.000000 1.000000
vn 0.000000 0.000000 1.000000
vn -0.024993 0.234678 0.971752
vn -0.024993 0.234678 0.971752
vn -0.024993 0.234678 0.971752
vn -0.024993 0.234678 0.971752
vn 0.000000 1.000000 0.000000
vn 0.000000 1.000000 0.000000
vn 0.000000 1.000000 0.000000
vn 0.000000 1.000000 0.000000
vn 0.000000 1.000000 0.000000
vn 0.000000 1.000000 0.000000
vn 0.000000 1.000000 0.000000
vn 0.000000 1.000000 0.000000
vn 0.000000 1.000000 0.000000
vn 0.000000 1.000000 0.000000
vn 0.000000 -1.000000 0.000000
vn 0.000000 -1.000000 0.000000
vn 0.000000 -1.000000 0.000000
vn 0.000000 -1.000000 0.000000
vn 0.000000 -1.000000 0.000000
vn 0.000000 -1.000000 0.000000
vn 0.000000 -1.000000 0.000000
vn 0.000000 -1.000000 0.000000
vn 0.000000 -1.000000 0.000000
vn 0.000000 -1.000000 0.000000
vn -0.024994 -0.234678 -0.971752
vn -0.024994 -0.234678 -0.971752
vn -0.024994 -0.234678 -0.971752
vn -0.024994 -0.234678 -0.971752
vn 0.971747 -0.234699 0.024991
vn 0.971747 -0.234699 0.024991
vn 0.971747 -0.234699 0.024991
vn 0.971747 -0.234699 0.024991
vn 0.971747 -0.234698 -0.024994
vn 0.971747 -0.234698 -0.024994
vn 0.971747 -0.234698 -0.024994
vn 0.971747 -0.234698 -0.024994
vn -0.024993 -0.234678 0.971752
vn -0.024993 -0.234678 0.971752
vn -0.024993 -0.234678 0.971752
vn -0.024993 -0.234678 0.971752
vn -0.971747 0.234698 -0.024994
vn -0.971747 0.234698 -0.024994
vn -0.971747 0.234698 -0.024994
vn -0.971747 0.234698 -0.024994
vn 0.024989 0.234679 0.971752
vn 0.024989 0.234679 0.971752
vn 0.024989 0.234679 0.971752
vn 0.024989 0.234679 0.971752
vn 0.024989 0.234679 -0.971752
vn 0.024989 0.234679 -0.971752
vn 0.024989 0.234679 -0.971752
vn 0.024989 0.234679 -0.971752
vn -0.971747 0.234699 0.024990
vn -0.971747 0.234699 0.024990
vn -0.971747 0.234699 0.024990
vn -0.971747 0.234699 0.024990
vn 0.000000 1.000000 0.000000
vn 0.000000 1.000000 0.000000
vn 0.000000 1.000000 0.000000
vn 0.000000 1.000000 0.000000
vn 0.000000 1.000000 0.000000
vn 0.000000 1.000000 0.000000
vn 0.000000 1.000000 0.000000
vn 0.000000 1.000000 0.000000
vn 0.000000 1.000000 0.000000
vn 0.000000 1.000000 0.000000
vn 0.000000 1.000000 0.000000
vn 0.000000 1.000000 0.000000
vn 0.000000 1.000000 0.000000
vn 0.000000 1.000000 0.000000
vn 0.000000 1.000000 0.000000
vn 0.000000 1.000000 0.000000
vn 1.000000 0.000000 0.000000
vn 1.000000 0.000000 0.000000
vn 1.000000 0.000000 0.000000
vn 1.000000 0.000000 0.000000
vn 0.000000 0.000000 -1.000000
vn 0.000000 0.000000 -1.000000
vn 0.000000 0.000000 -1.000000
vn 0.000000 0.000000 -1.000000
vn -1.000000 0.000000 0.000000
vn -1.000000 0.000000 0.000000
vn -1.000000 0.000000 0.000000
vn -1.000000 0.000000 0.000000
vn 0.000000 0.000000 1.000000
vn 0.000000 0.000000 1.000000
vn 0.000000 0.000000 1.000000
vn 0.000000 0.000000 1.000000
vn -0.135695 -0.209009 -0.968454
vn -0.135695 -0.209009 -0.968454
vn -0.135695 -0.209009 -0.968454
vn -0.135695 -0.209009 -0.968454
vn 0.968459 -0.209001 0.135672
vn 0.968458 -0.209001 0.135672
vn 0.968459 -0.209001 0.135672
vn 0.968458 -0.209001 0.135672
vn 0.968458 0.208997 0.135681
vn 0.968458 0.208997 0.135681
vn 0.968458 0.208997 0.135681
vn 0.968458 0.208997 0.135681
vn -0.670390 -0.318226 0.670306
vn -0.670390 -0.318226 0.670306
vn -0.670390 -0.318226 0.670306
vn -0.670390 -0.318226 0.670306
vn -0.135703 0.209005 -0.968453
vn -0.135703 0.209005 -0.968453
vn -0.135703 0.209005 -0.968453
vn -0.135703 0.209005 -0.968453
vn -0.135699 0.209000 0.968455
vn -0.135699 0.209000 0.968455
vn -0.135699 0.209000 0.968455
vn -0.135699 0.209000 0.968455
vn 0.968457 0.208994 -0.135695
vn 0.968457 0.208994 -0.135695
vn 0.968457 0.208994 -0.135695
vn 0.968457 0.208994 -0.135695
vn 0.968457 -0.208997 -0.135687
vn 0.968457 -0.208997 -0.135687
vn 0.968457 -0.208997 -0.135687
vn 0.968457 -0.208997 -0.135687
vn -0.135691 -0.209003 0.968455
vn -0.135691 -0.209003 0.968455
vn -0.135691 -0.209003 0.968455
vn -0.135691 -0.209003 0.968455
vn 0.135680 -0.209008 0.968456
vn 0.135680 -0.209008 0.968456
vn 0.135680 -0.209008 0.968456
vn 0.135680 -0.209008 0.968456
vn -0.968457 -0.208997 -0.135687
vn -0.968457 -0.208997 -0.135687
vn -0.968457 -0.208997 -0.135687
vn -0.968457 -0.208997 -0.135687
vn -0.968457 0.208994 -0.135695
vn -0.968457 0.208994 -0.135695
vn -0.968457 0.208994 -0.135695
vn -0.968457 0.208994 -0.135695
vn 0.135688 0.209004 0.968455
vn 0.135688 0.209004 0.968455
vn 0.135688 0.209004 0.968455
vn 0.135688 0.209004 0.968455
vn -0.968458 -0.209001 0.135672
vn -0.968458 -0.209001 0.135672
vn -0.968458 -0.209001 0.135672
vn -0.968459 -0.209001 0.135672
vn 0.135684 -0.209013 -0.968454
vn 0.135684 -0.209013 -0.968454
vn 0.135684 -0.209013 -0.968454
vn 0.135684 -0.209013 -0.968454
vn 0.135692 0.209010 -0.968454
vn 0.135692 0.209010 -0.968454
vn 0.135692 0.209010 -0.968454
vn 0.135692 0.209010 -0.968454
vn 0.670358 -0.318217 0.670342
vn 0.670358 -0.318217 0.670342
vn 0.670358 -0.318217 0.670342
vn 0.670358 -0.318217 0.670342
vn -0.968458 0.208997 0.135681
vn -0.968458 0.208997 0.135681
vn -0.968458 0.208997 0.135681
vn -0.968458 0.208997 0.135681
vn 0.000000 1.000000 -0.000004
vn 0.000000 1.000000 -0.000004
vn 0.000000 1.000000 -0.000004
vn 0.000000 1.000000 -0.000004
vn 0.000000 1.000000 0.000000
vn 0.000000 1.000000 0.000000
vn 0.000000 1.000000 0.000000
vn 0.000000 1.000000 0.000000
vn 0.000000 1.000000 0.000003
vn 0.000000 1.000000 0.000003
vn 0.000000 1.000000 0.000003
vn 0.000000 1.000000 0.000003
vn 0.000000 1.000000 0.000000
vn 0.000000 1.000000 0.000000
vn 0.000000 1.000000 0.000000
vn 0.000000 1.000000 0.000000
vn 0.000000 1.000000 0.000000
vn 0.000000 1.000000 0.000000
vn 0.000000 1.000000 0.000000
vn 0.000000 1.000000 0.000000
vn 0.000000 1.000000 0.000000
vn 0.000000 1.000000 0.000000
vn 0.670316 -0.318217 -0.670384
vn 0.670316 -0.318217 -0.670384
vn 0.670316 -0.318217 -0.670384
vn 0.670316 -0.318217 -0.670384
vn -0.670348 -0.318226 -0.670348
vn -0.670348 -0.318226 -0.670348
vn -0.670348 -0.318226 -0.670348
vn -0.670348 -0.318226 -0.670348
vn -0.670348 0.318226 -0.670348
vn -0.670348 0.318226 -0.670348
vn -0.670348 0.318226 -0.670348
vn -0.670348 0.318226 -0.670348
vn 0.670316 0.318217 -0.670384
vn 0.670316 0.318217 -0.670384
vn 0.670316 0.318217 -0.670384
vn 0.670316 0.318217 -0.670384
vn 0.774442 0.000000 0.632645
vn 0.774442 0.000000 0.632645
vn 0.774442 0.000000 0.632645
vn 0.632495 0.000000 -0.774564
vn 0.632495 0.000000 -0.774564
vn 0.632495 0.000000 -0.774564
vn -0.632495 0.000000 0.774564
vn -0.632495 0.000000 0.774564
vn -0.632495 0.000000 0.774564
vn 0.707046 0.000000 -0.707168
vn 0.707046 0.000000 -0.707168
vn 0.707046 0.000000 -0.707168
vn 0.707046 0.000000 -0.707168
vn 0.670358 0.318217 0.670341
vn 0.670358 0.318217 0.670341
vn 0.670358 0.318217 0.670341
vn 0.670358 0.318217 0.670341
vn 0.707099 0.000000 0.707114
vn 0.707099 0.000000 0.707114
vn 0.707099 0.000000 0.707114
vn 0.707099 0.000000 0.707114
vn -0.707107 0.000000 -0.707107
vn -0.707107 0.000000 -0.707107
vn -0.707107 0.000000 -0.707107
vn -0.707107 0.000000 -0.707107
vn -0.670390 0.318226 0.670306
vn -0.670390 0.318226 0.670306
vn -0.670390 0.318226 0.670306
vn -0.670390 0.318226 0.670306
vn -0.707160 0.000000 0.707053
vn -0.707160 0.000000 0.707053
vn -0.707160 0.000000 0.707053
vn -0.707160 0.000000 0.707053
vn 0.774442 0.000000 -0.632645
vn 0.774442 0.000000 -0.632645
vn 0.774442 0.000000 -0.632645
vn 0.632495 0.000000 0.774564
vn 0.632495 0.000000 0.774564
vn 0.632495 0.000000 0.774564
vn -0.774442 0.000000 0.632645
vn -0.774442 0.000000 0.632645
vn -0.774442 0.000000 0.632645
vn -0.632495 0.000000 -0.774564
vn -0.632495 0.000000 -0.774564
vn -0.632495 0.000000 -0.774564
vn 0.000000 -1.000000 0.000000
vn 0.000000 -1.000000 0.000000
vn 0.000000 -1.000000 0.000000
vn 0.000000 -1.000000 0.000000
vn 0.000000 -1.000000 0.000000
vn 0.000000 -1.000000 0.000000
vn 0.000000 -1.000000 0.000000
vn 0.000000 -1.000000 0.000000
vn 0.000000 -1.000000 0.000000
vn 0.000000 -1.000000 0.000000
vn 0.000000 -1.000000 0.000001
vn 0.000000 -1.000000 0.000001
vn 0.000000 -1.000000 0.000001
vn 0.000000 -1.000000 0.000001
vn 0.000000 -1.000000 0.000000
vn 0.000000 -1.000000 0.000000
vn 0.000000 -1.000000 0.000000
vn 0.000000 -1.000000 0.000000
vn 0.000000 -1.000000 0.000000
vn 0.000000 -1.000000 0.000000
vn 0.000000 -1.000000 0.000000
vn 0.000000 -1.000000 0.000000
vn -0.967509 -0.252838 0.000000
vn -0.967509 -0.252838 0.000000
vn -0.967509 -0.252838 0.000000
vn -0.967509 -0.252838 0.000000
vn -0.967509 0.252838 0.000000
vn -0.967509 0.252838 0.000000
vn -0.967509 0.252838 0.000000
vn -0.967509 0.252838 0.000000
vn 1.000000 0.000000 0.000000
vn 1.000000 0.000000 0.000000
vn 1.000000 0.000000 0.000000
vn 1.000000 0.000000 0.000000
vn 0.000000 0.000000 -1.000000
vn 0.000000 0.000000 -1.000000
vn 0.000000 0.000000 -1.000000
vn 0.000000 0.000000 -1.000000
vn 0.000000 -0.252818 0.967514
vn 0.000000 -0.252818 0.967514
vn 0.000000 -0.252818 0.967514
vn 0.000000 -0.252818 0.967514
vn 0.000000 0.252818 0.967514
vn 0.000000 0.252818 0.967514
vn 0.000000 0.252818 0.967514
vn 0.000000 0.252818 0.967514
s off
g cage3
usemtl initialShadingGroup
f 7/185/1 6/4/2 1/186/3
f 28/14/4 29/15/5 30/16/6 31/17/7
f 64/18/8 65/135/9 66/20/10 67/21/11
f 16/102/12 17/23/13 25/95/14 24/130/15
f 59/142/16 57/27/17 86/28/18 87/165/19
f 19/113/20 18/140/21 27/116/22 26/139/23
f 82/154/24 80/35/25 54/36/26 55/37/27
f 18/140/28 19/113/29 29/15/30 28/14/31
f 19/113/32 21/38/33 30/16/34 29/15/35
f 21/38/36 20/112/37 31/17/38 30/16/39
f 20/112/40 18/140/41 28/14/42 31/17/43
f 20/112/44 21/38/45 33/137/46 32/136/47
f 50/148/48 48/43/49 71/44/50 72/171/51
f 23/105/52 22/126/53 35/128/54 34/129/55
f 76/158/56 74/51/57 51/52/58 52/53/59
f 22/126/60 23/105/61 37/54/62 36/55/63
f 23/105/64 17/23/65 38/56/66 37/54/67
f 17/23/68 16/102/69 39/57/70 38/56/71
f 16/102/72 22/126/73 36/55/74 39/57/75
f 17/23/76 23/105/77 40/96/78 41/59/79
f 73/164/80 71/44/81 48/43/82 49/61/83
f 21/38/84 19/113/85 43/62/86 42/63/87
f 88/152/88 86/28/89 57/27/90 58/65/91
f 22/103/92 16/127/93 45/100/94 44/98/95
f 56/144/96 54/36/97 80/35/98 81/153/99
f 18/117/100 20/141/101 47/70/102 46/71/103
f 53/146/104 51/52/105 74/51/106 75/157/107
f 92/74/108 93/75/109 32/41/110 33/40/111
f 93/75/112 47/70/113 32/41/114
f 42/63/115 92/74/116 33/40/117
f 24/25/118 25/131/119 98/124/120 99/125/121
f 99/125/122 45/100/123 24/25/124
f 41/59/125 98/124/126 25/131/127
f 49/61/128 48/43/129 68/76/130 69/150/131
f 70/149/132 68/76/133 48/43/134 50/148/135
f 52/53/136 51/52/137 77/79/138 78/174/139
f 79/156/140 77/79/141 51/52/142 53/146/143
f 55/37/144 54/36/145 83/82/146 84/178/147
f 85/160/148 83/82/149 54/36/150 56/144/151
f 58/65/152 57/27/153 89/85/154 90/161/155
f 91/162/156 89/85/157 57/27/158 59/142/159
f 36/55/160 37/54/161 61/121/162 60/118/163
f 37/54/164 38/56/165 62/120/166 61/121/167
f 38/56/168 39/57/169 63/119/170 62/120/171
f 39/57/172 36/55/173 60/118/174 63/119/175
f 60/89/176 61/88/177 65/19/178 64/133/179
f 61/88/180 62/90/181 66/20/182 65/19/183
f 62/90/184 63/91/185 67/21/186 66/20/187
f 63/91/188 60/132/189 64/134/190 67/21/191
f 69/150/192 68/76/193 21/114/194 42/106/195
f 21/114/196 68/76/197 70/149/198 33/175/199
f 72/171/200 71/44/201 23/46/202 34/49/203
f 73/164/204 72/163/205 34/172/206 40/58/207
f 23/46/208 71/44/209 73/164/210 40/58/211
f 75/157/212 74/51/213 22/47/214 44/67/215
f 22/47/216 74/51/217 76/158/218 35/170/219
f 78/174/220 77/79/221 20/39/222 32/111/223
f 20/39/224 77/79/225 79/156/226 47/110/227
f 81/153/228 80/35/229 18/31/230 46/115/231
f 18/31/232 80/35/233 82/154/234 27/32/235
f 84/178/236 83/82/237 16/22/238 24/101/239
f 16/22/240 83/82/241 85/160/242 45/66/243
f 87/165/244 86/28/245 19/30/246 26/166/247
f 19/30/248 86/28/249 88/152/250 43/108/251
f 90/161/252 89/85/253 17/104/254 41/94/255
f 25/24/256 91/180/257 90/161/258 41/94/259
f 17/104/260 89/85/261 91/162/262 25/179/263
f 42/63/264 43/62/265 94/92/266 92/74/267
f 94/92/268 95/93/269 93/75/270 92/74/271
f 46/71/272 47/70/273 93/75/274 95/93/275
f 94/92/276 43/62/277 26/109/278
f 26/109/279 27/138/280 95/93/281 94/92/282
f 46/71/283 95/93/284 27/138/285
f 84/159/286 24/177/287 45/66/288 85/160/289
f 75/157/290 44/67/291 35/48/292 76/169/293
f 78/155/294 32/173/295 47/110/296 79/156/297
f 81/153/298 46/115/299 27/168/300 82/167/301
f 85/84/302 56/68/303 81/69/304
f 76/50/305 52/147/306 78/80/307
f 91/87/308 59/26/309 87/29/310
f 84/83/311 85/84/312 81/69/313 82/34/314
f 87/151/315 26/33/316 43/108/317 88/152/318
f 90/86/319 91/87/320 87/29/321 88/64/322
f 75/73/323 76/50/324 78/80/325 79/81/326
f 33/107/327 70/176/328 69/150/329 42/106/330
f 72/45/331 73/60/332 69/77/333 70/78/334
f 90/86/335 88/64/336 58/143/337
f 72/45/338 70/78/339 50/42/340
f 75/73/341 79/81/342 53/72/343
f 84/83/344 82/34/345 55/145/346
f 96/122/347 40/96/348 34/97/349
f 97/123/350 96/122/351 34/97/352 35/99/353
f 44/98/354 97/123/355 35/99/356
f 41/59/357 40/96/358 96/122/359 98/124/360
f 99/125/361 98/124/362 96/122/363 97/123/364
f 44/98/365 45/100/366 99/125/367 97/123/368
f 11/13/369 3/12/370 5/7/371 14/6/372
f 3/12/373 12/183/374 15/5/375 5/7/376
f 12/11/377 11/13/378 14/6/379 15/184/380
f 8/8/381 9/10/382 10/2/383 13/182/384
f 9/10/385 2/9/386 4/3/387 10/2/388
f 2/9/389 8/181/390 13/1/391 4/3/392
