# This file uses centimeters as units for non-parametric coordinates.

mtllib Drawer2.mtl
g default
v 13.002574 3.645224 29.748058
v 3.623967 3.645224 29.748058
v 13.002574 5.451467 29.748058
v 3.623967 5.451467 29.748058
v 13.002574 5.451467 32.651875
v 3.623967 5.451467 32.651875
v 13.002574 3.645224 32.651875
v 3.623967 3.645224 32.651875
v 9.404841 4.491117 29.748055
v 7.221698 4.491117 29.748055
v 7.221698 5.118829 29.748055
v 9.404841 5.118829 29.748055
v 9.404841 4.491117 29.150921
v 7.221698 4.491117 29.150921
v 7.221698 5.118829 29.150921
v 9.404841 5.118829 29.150921
v 12.776679 5.451467 29.894281
v 3.849858 5.451467 29.894281
v 3.849858 5.451467 32.505646
v 12.776679 5.451467 32.505646
v 12.776679 3.815721 29.894281
v 3.849858 3.815721 29.894281
v 3.849858 3.815721 32.505646
v 12.776679 3.815721 32.505646
v 3.623967 4.393147 32.434090
v 3.623967 4.393147 31.326679
v 3.623967 4.703545 32.434090
v 3.623967 4.703545 31.326679
v 13.002574 4.393147 32.434090
v 13.002574 4.393147 31.326679
v 13.002574 4.703545 31.326679
v 13.002574 4.703545 32.434090
v 3.326642 4.393147 32.434090
v 3.326642 4.393147 31.326679
v 3.326642 4.703545 32.434090
v 3.326642 4.703545 31.326679
v 13.299892 4.393147 32.434090
v 13.299892 4.393147 31.326679
v 13.299892 4.703545 31.326679
v 13.299892 4.703545 32.434090
vt 0.375000 0.000000
vt 0.625000 0.000000
vt 0.625000 0.250000
vt 0.375000 0.250000
vt 0.375000 0.250000
vt 0.625000 0.250000
vt 0.625000 0.500000
vt 0.375000 0.500000
vt 0.375000 0.500000
vt 0.625000 0.500000
vt 0.625000 0.750000
vt 0.375000 0.750000
vt 0.625000 1.000000
vt 0.375000 1.000000
vt 0.625000 0.000000
vt 0.875000 0.000000
vt 0.875000 0.250000
vt 0.625000 0.250000
vt 0.125000 0.000000
vt 0.375000 0.000000
vt 0.375000 0.250000
vt 0.125000 0.250000
vt 0.375000 0.000000
vt 0.625000 0.000000
vt 0.625000 0.000000
vt 0.375000 0.000000
vt 0.625000 0.250000
vt 0.625000 0.250000
vt 0.375000 0.250000
vt 0.375000 0.250000
vt 0.625000 0.250000
vt 0.375000 0.250000
vt 0.625000 0.500000
vt 0.375000 0.500000
vt 0.875000 0.000000
vt 0.875000 0.000000
vt 0.625000 0.000000
vt 0.875000 0.250000
vt 0.875000 0.250000
vt 0.625000 0.250000
vt 0.125000 0.000000
vt 0.375000 0.000000
vt 0.125000 0.000000
vt 0.375000 0.250000
vt 0.125000 0.250000
vt 0.125000 0.250000
vn 0.000000 0.000000 -1.000000
vn 0.000000 0.000000 -1.000000
vn 0.000000 0.000000 -1.000000
vn 0.000000 0.000000 -1.000000
vn 0.000000 1.000000 0.000000
vn 0.000000 1.000000 0.000000
vn 0.000000 1.000000 0.000000
vn 0.000000 1.000000 0.000000
vn 0.000000 0.000000 1.000000
vn 0.000000 0.000000 1.000000
vn 0.000000 0.000000 1.000000
vn 0.000000 0.000000 1.000000
vn 0.000000 -1.000000 0.000000
vn 0.000000 -1.000000 0.000000
vn 0.000000 -1.000000 0.000000
vn 0.000000 -1.000000 0.000000
vn -1.000000 0.000000 0.000000
vn -1.000000 0.000000 0.000000
vn -1.000000 0.000000 0.000000
vn -1.000000 0.000000 0.000000
vn 1.000000 0.000000 0.000000
vn 1.000000 0.000000 0.000000
vn 1.000000 0.000000 0.000000
vn 1.000000 0.000000 0.000000
vn 0.000000 -0.000005 -1.000000
vn 0.000000 -0.000005 -1.000000
vn 0.000000 -0.000005 -1.000000
vn 0.000000 -0.000005 -1.000000
vn -0.000000 0.000000 -1.000000
vn -0.000000 0.000000 -1.000000
vn -0.000000 0.000000 -1.000000
vn -0.000000 0.000000 -1.000000
vn 0.000000 0.000011 -1.000000
vn 0.000000 0.000011 -1.000000
vn 0.000000 0.000011 -1.000000
vn 0.000000 0.000011 -1.000000
vn 0.000001 0.000000 -1.000000
vn 0.000001 0.000000 -1.000000
vn 0.000001 0.000000 -1.000000
vn 0.000001 0.000000 -1.000000
vn 0.000000 -1.000000 0.000000
vn 0.000000 -1.000000 0.000000
vn 0.000000 -1.000000 0.000000
vn 0.000000 -1.000000 0.000000
vn -1.000000 0.000000 0.000000
vn -1.000000 0.000000 0.000000
vn -1.000000 0.000000 0.000000
vn -1.000000 0.000000 0.000000
vn 0.000000 1.000000 0.000000
vn 0.000000 1.000000 0.000000
vn 0.000000 1.000000 0.000000
vn 0.000000 1.000000 0.000000
vn 1.000000 0.000000 0.000000
vn 1.000000 0.000000 0.000000
vn 1.000000 0.000000 0.000000
vn 1.000000 0.000000 0.000000
vn 0.000000 1.000000 0.000001
vn 0.000000 1.000000 0.000001
vn 0.000000 1.000000 0.000001
vn 0.000000 1.000000 0.000001
vn 0.000000 1.000000 0.000000
vn 0.000000 1.000000 0.000000
vn 0.000000 1.000000 0.000000
vn 0.000000 1.000000 0.000000
vn 0.000000 1.000000 0.000000
vn 0.000000 1.000000 0.000000
vn 0.000000 1.000000 0.000000
vn 0.000000 1.000000 0.000000
vn 0.000000 1.000000 0.000000
vn 0.000000 1.000000 0.000000
vn 0.000000 1.000000 0.000000
vn 0.000000 1.000000 0.000000
vn 0.000000 0.000000 1.000000
vn 0.000000 0.000000 1.000000
vn 0.000000 0.000000 1.000000
vn 0.000000 0.000000 1.000000
vn 1.000000 0.000000 0.000000
vn 1.000000 0.000000 0.000000
vn 1.000000 0.000000 0.000000
vn 1.000000 0.000000 0.000000
vn 0.000000 0.000000 -1.000000
vn 0.000000 0.000000 -1.000000
vn 0.000000 0.000000 -1.000000
vn 0.000000 0.000000 -1.000000
vn -1.000000 0.000000 0.000000
vn -1.000000 0.000000 0.000000
vn -1.000000 0.000000 0.000000
vn -1.000000 0.000000 0.000000
vn -1.000000 -0.000001 0.000000
vn -1.000000 -0.000002 0.000000
vn -1.000000 -0.000002 0.000000
vn -1.000000 -0.000001 0.000000
vn -1.000000 0.000002 0.000000
vn -1.000000 0.000001 0.000000
vn -1.000000 0.000000 0.000000
vn -1.000000 0.000001 0.000000
vn 1.000000 0.000001 0.000000
vn 1.000000 0.000000 0.000000
vn 1.000000 0.000001 0.000000
vn 1.000000 0.000001 0.000000
vn 1.000000 -0.000001 0.000000
vn 1.000000 -0.000001 0.000000
vn 1.000000 -0.000002 0.000000
vn 1.000000 -0.000002 0.000000
vn 0.000000 -1.000000 0.000000
vn 0.000000 -1.000000 0.000000
vn 0.000000 -1.000000 0.000000
vn 0.000000 -1.000000 0.000000
vn 0.000000 0.000000 1.000000
vn 0.000000 0.000000 1.000000
vn 0.000000 0.000000 1.000000
vn 0.000000 0.000000 1.000000
vn 0.000000 1.000000 0.000000
vn 0.000000 1.000000 0.000000
vn 0.000000 1.000000 0.000000
vn 0.000000 1.000000 0.000000
vn 0.000000 0.000000 -1.000000
vn 0.000000 0.000000 -1.000000
vn 0.000000 0.000000 -1.000000
vn 0.000000 0.000000 -1.000000
vn 0.000000 -1.000000 0.000000
vn 0.000000 -1.000000 0.000000
vn 0.000000 -1.000000 0.000000
vn 0.000000 -1.000000 0.000000
vn 0.000000 0.000000 -1.000000
vn 0.000000 0.000000 -1.000000
vn 0.000000 0.000000 -1.000000
vn 0.000000 0.000000 -1.000000
vn 0.000000 1.000000 0.000000
vn 0.000000 1.000000 0.000000
vn 0.000000 1.000000 0.000000
vn 0.000000 1.000000 0.000000
vn 0.000000 0.000000 1.000000
vn 0.000000 0.000000 1.000000
vn 0.000000 0.000000 1.000000
vn 0.000000 0.000000 1.000000
s off
g Drawer2
usemtl blinn4SG
f 13/1/1 14/2/2 15/3/3 16/4/4
f 21/5/5 22/6/6 23/7/7 24/8/8
f 5/9/9 6/10/10 8/11/11 7/12/12
f 7/12/13 8/11/14 2/13/15 1/14/16
f 34/15/17 33/16/18 35/17/19 36/18/20
f 37/19/21 38/20/22 39/21/23 40/22/24
f 1/23/25 2/24/26 10/25/27 9/26/28
f 2/24/29 4/27/30 11/28/31 10/25/32
f 4/27/33 3/29/34 12/30/35 11/28/36
f 3/29/37 1/23/38 9/26/39 12/30/40
f 9/26/41 10/25/42 14/2/43 13/1/44
f 10/25/45 11/28/46 15/3/47 14/2/48
f 11/28/49 12/30/50 16/4/51 15/3/52
f 12/30/53 9/26/54 13/1/55 16/4/56
f 3/29/57 4/27/58 18/31/59 17/32/60
f 4/27/61 6/10/62 19/33/63 18/31/64
f 6/10/65 5/9/66 20/34/67 19/33/68
f 5/9/69 3/29/70 17/32/71 20/34/72
f 17/32/73 18/31/74 22/6/75 21/5/76
f 18/31/77 19/33/78 23/7/79 22/6/80
f 19/33/81 20/34/82 24/8/83 23/7/84
f 20/34/85 17/32/86 21/5/87 24/8/88
s 1
f 2/24/89 8/35/90 25/36/91 26/37/92
f 8/35/90 6/38/93 27/39/94 25/36/91
f 6/38/93 4/27/95 28/40/96 27/39/94
f 4/27/95 2/24/89 26/37/92 28/40/96
s 2
f 7/41/97 1/23/98 30/42/99 29/43/100
f 1/23/98 3/29/101 31/44/102 30/42/99
f 3/29/101 5/45/103 32/46/104 31/44/102
f 5/45/103 7/41/97 29/43/100 32/46/104
s off
f 26/37/105 25/36/106 33/16/107 34/15/108
f 25/36/109 27/39/110 35/17/111 33/16/112
f 27/39/113 28/40/114 36/18/115 35/17/116
f 28/40/117 26/37/118 34/15/119 36/18/120
f 29/43/121 30/42/122 38/20/123 37/19/124
f 30/42/125 31/44/126 39/21/127 38/20/128
f 31/44/129 32/46/130 40/22/131 39/21/132
f 32/46/133 29/43/134 37/19/135 40/22/136
