# This file uses centimeters as units for non-parametric coordinates.

mtllib Key1.mtl
g default
v -17.609128 3.815718 -20.538479
v -17.609128 3.815718 -21.665375
v -17.609128 4.274385 -20.538479
v -17.609128 4.274385 -21.665375
v -18.736026 4.274385 -20.538479
v -18.736026 4.274385 -21.665375
v -18.736026 3.815718 -20.538479
v -18.736026 3.815718 -21.665375
v -17.609128 3.861048 -20.993391
v -17.609128 3.861048 -21.485346
v -17.609128 4.229054 -21.485346
v -17.609128 4.229054 -20.993391
v -16.397685 3.861048 -20.993391
v -16.397685 3.861048 -21.485346
v -16.397685 4.229054 -21.485346
v -16.397685 4.229054 -20.993391
v -16.700545 3.861048 -20.993391
v -16.700545 3.861048 -21.485346
v -16.700545 4.229054 -21.485346
v -16.700545 4.229054 -20.993391
v -16.927691 3.861048 -20.993391
v -16.927691 3.861048 -21.485346
v -16.927691 4.229054 -21.485346
v -16.927691 4.229054 -20.993391
v -16.757331 3.861048 -20.993391
v -16.757331 4.229054 -20.993391
v -16.757331 4.229054 -21.485346
v -16.757331 3.861048 -21.485346
v -17.784011 4.374410 -20.713360
v -17.784011 4.374410 -21.490494
v -18.561145 4.374410 -21.490494
v -18.561145 4.374410 -20.713360
v -18.561145 3.715694 -20.713360
v -18.561145 3.715694 -21.490494
v -17.784011 3.715694 -21.490494
v -17.784011 3.715694 -20.713360
v -17.921065 4.258239 -20.850416
v -17.921065 4.258239 -21.353439
v -18.424088 4.258239 -21.353439
v -18.424088 4.258239 -20.850416
v -18.424088 3.831865 -20.850416
v -18.424088 3.831865 -21.353439
v -17.921065 3.831865 -21.353439
v -17.921065 3.831865 -20.850416
v -16.690200 4.229054 -20.804695
v -16.690200 3.861048 -20.804695
v -16.408030 3.861048 -20.694674
v -16.408030 4.229054 -20.694674
v -16.921872 4.229054 -20.780628
v -16.921872 3.861048 -20.780628
v -16.763152 3.861048 -20.718740
v -16.763152 4.229054 -20.718740
vt 0.375000 0.000000
vt 0.625000 0.000000
vt 0.625000 0.250000
vt 0.375000 0.250000
vt 0.375000 0.500000
vt 0.625000 0.500000
vt 0.625000 0.750000
vt 0.375000 0.750000
vt 0.625000 0.000000
vt 0.875000 0.000000
vt 0.875000 0.250000
vt 0.625000 0.250000
vt 0.125000 0.000000
vt 0.375000 0.000000
vt 0.375000 0.250000
vt 0.125000 0.250000
vt 0.625000 0.000000
vt 0.375000 0.000000
vt 0.625000 0.250000
vt 0.375000 0.250000
vt 0.375000 0.000000
vt 0.625000 0.000000
vt 0.625000 0.250000
vt 0.375000 0.250000
vt 0.375000 0.250000
vt 0.375000 0.000000
vt 0.375000 0.000000
vt 0.375000 0.250000
vt 0.375000 0.000000
vt 0.625000 0.000000
vt 0.625000 0.000000
vt 0.375000 0.000000
vt 0.625000 0.250000
vt 0.625000 0.250000
vt 0.375000 0.250000
vt 0.375000 0.250000
vt 0.375000 0.250000
vt 0.375000 0.000000
vt 0.375000 0.000000
vt 0.375000 0.250000
vt 0.625000 0.250000
vt 0.375000 0.250000
vt 0.625000 0.500000
vt 0.375000 0.500000
vt 0.625000 0.750000
vt 0.375000 0.750000
vt 0.625000 1.000000
vt 0.625000 1.000000
vt 0.375000 1.000000
vt 0.375000 1.000000
vt 0.625000 0.250000
vt 0.375000 0.250000
vt 0.625000 0.500000
vt 0.375000 0.500000
vt 0.625000 0.750000
vt 0.375000 0.750000
vt 0.625000 1.000000
vt 0.375000 1.000000
vn 0.999914 0.000000 0.013083
vn 1.000000 0.000000 0.000000
vn 1.000000 0.000000 0.000000
vn 0.999914 0.000000 0.013083
vn -1.000000 0.000000 0.000000
vn -1.000000 0.000000 0.000000
vn -1.000000 0.000000 0.000000
vn -1.000000 0.000000 0.000000
vn 0.000000 0.000000 -1.000000
vn 0.000000 0.000000 -1.000000
vn 0.000000 0.000000 -1.000000
vn 0.000000 0.000000 -1.000000
vn 0.000000 0.000000 1.000000
vn 0.000000 0.000000 1.000000
vn 0.000000 0.000000 1.000000
vn 0.000000 0.000000 1.000000
vn 1.000000 0.000000 0.000000
vn 1.000000 0.000000 0.000000
vn 1.000000 0.000000 0.000000
vn 1.000000 0.000000 0.000000
vn 1.000000 0.000000 0.000000
vn 1.000000 0.000000 0.000000
vn 1.000000 0.000000 0.000000
vn 1.000000 0.000000 0.000000
vn 1.000000 0.000003 0.000000
vn 1.000000 0.000003 0.000000
vn 1.000000 0.000003 0.000000
vn 1.000000 0.000003 0.000000
vn 1.000000 0.000000 0.000000
vn 1.000000 0.000000 0.000000
vn 1.000000 0.000000 0.000000
vn 1.000000 0.000000 0.000000
vn 0.000000 -1.000000 0.000000
vn 0.000000 -1.000000 0.000000
vn 0.000000 -1.000000 0.000000
vn 0.000000 -1.000000 0.000000
vn 0.000000 0.000000 -1.000000
vn 0.000000 0.000000 -1.000000
vn 0.000000 0.000000 -1.000000
vn 0.000000 0.000000 -1.000000
vn 0.000000 1.000000 0.000000
vn 0.000000 1.000000 -0.000000
vn 0.000000 1.000000 -0.000000
vn 0.000000 1.000000 0.000000
vn -0.363276 0.000000 0.931682
vn -0.363276 0.000000 0.931682
vn -0.363276 0.000000 0.931682
vn -0.363276 0.000000 0.931682
vn 0.000000 -1.000000 -0.000000
vn 0.000000 -1.000000 0.000000
vn 0.000000 -1.000000 0.000000
vn 0.000000 -1.000000 -0.000000
vn 0.000000 0.000000 -1.000000
vn 0.000000 0.000000 -1.000000
vn 0.000000 0.000000 -1.000000
vn 0.000000 0.000000 -1.000000
vn 0.000000 1.000000 0.000000
vn 0.000000 1.000000 -0.000000
vn 0.000000 1.000000 -0.000000
vn 0.000000 1.000000 0.000000
vn -0.363280 0.000000 0.931680
vn -0.363280 0.000000 0.931680
vn -0.363280 0.000000 0.931680
vn -0.363280 0.000000 0.931680
vn 0.000000 -1.000000 0.000000
vn 0.000000 -1.000000 0.000000
vn 0.000000 0.000000 -1.000000
vn 0.000000 0.000000 -1.000000
vn 0.000000 1.000000 0.000000
vn 0.000000 1.000000 0.000000
vn 0.000000 0.000000 1.000000
vn 0.000000 0.000000 1.000000
vn 0.000000 0.000000 1.000000
vn 0.000000 0.000000 1.000000
vn 0.000000 0.000000 1.000000
vn 0.000000 0.000000 1.000000
vn 0.000000 0.000000 1.000000
vn 0.000000 0.000000 1.000000
vn 0.496481 0.868048 0.000000
vn 0.496481 0.868048 0.000000
vn 0.496481 0.868048 0.000000
vn 0.496481 0.868048 0.000000
vn 0.000000 0.868045 -0.496486
vn 0.000000 0.868045 -0.496486
vn 0.000000 0.868045 -0.496486
vn 0.000000 0.868045 -0.496486
vn -0.496487 0.868044 0.000000
vn -0.496487 0.868044 0.000000
vn -0.496487 0.868044 0.000000
vn -0.496487 0.868044 0.000000
vn 0.000000 0.868044 0.496487
vn 0.000000 0.868044 0.496487
vn 0.000000 0.868044 0.496487
vn 0.000000 0.868044 0.496487
vn -0.496485 -0.868046 0.000000
vn -0.496485 -0.868046 0.000000
vn -0.496485 -0.868046 0.000000
vn -0.496485 -0.868046 0.000000
vn 0.000000 -0.868045 -0.496486
vn 0.000000 -0.868045 -0.496486
vn 0.000000 -0.868045 -0.496486
vn 0.000000 -0.868045 -0.496486
vn 0.496479 -0.868049 0.000000
vn 0.496479 -0.868049 0.000000
vn 0.496479 -0.868049 0.000000
vn 0.496479 -0.868049 0.000000
vn 0.000000 -0.868045 0.496486
vn 0.000000 -0.868045 0.496486
vn 0.000000 -0.868045 0.496486
vn 0.000000 -0.868045 0.496486
vn -0.646599 0.762830 0.000000
vn -0.646599 0.762830 0.000000
vn -0.646599 0.762830 0.000000
vn -0.646599 0.762830 0.000000
vn 0.000000 0.762832 0.646597
vn 0.000000 0.762832 0.646597
vn 0.000000 0.762832 0.646597
vn 0.000000 0.762832 0.646597
vn 0.646592 0.762836 0.000000
vn 0.646592 0.762836 0.000000
vn 0.646592 0.762836 0.000000
vn 0.646592 0.762836 0.000000
vn 0.000000 0.762836 -0.646592
vn 0.000000 0.762836 -0.646592
vn 0.000000 0.762836 -0.646592
vn 0.000000 0.762836 -0.646592
vn 0.646592 -0.762836 0.000000
vn 0.646592 -0.762836 0.000000
vn 0.646592 -0.762836 0.000000
vn 0.646592 -0.762836 0.000000
vn 0.000000 -0.762831 0.646598
vn 0.000000 -0.762831 0.646598
vn 0.000000 -0.762831 0.646598
vn 0.000000 -0.762831 0.646598
vn -0.646599 -0.762830 0.000000
vn -0.646599 -0.762830 0.000000
vn -0.646599 -0.762830 0.000000
vn -0.646599 -0.762830 0.000000
vn 0.000000 -0.762836 -0.646592
vn 0.000000 -0.762836 -0.646592
vn 0.000000 -0.762836 -0.646592
vn 0.000000 -0.762836 -0.646592
vn -1.000000 0.000000 0.000000
vn -1.000000 0.000000 0.000000
vn -1.000000 0.000000 0.000000
vn -1.000000 0.000000 0.000000
vn 0.000000 0.000000 1.000000
vn 0.000000 0.000000 1.000000
vn 0.000000 0.000000 1.000000
vn 0.000000 0.000000 1.000000
vn 1.000000 0.000000 0.000000
vn 1.000000 0.000000 0.000000
vn 1.000000 0.000000 0.000000
vn 1.000000 0.000000 0.000000
vn 0.000000 0.000000 -1.000000
vn 0.000000 0.000000 -1.000000
vn 0.000000 0.000000 -1.000000
vn 0.000000 0.000000 -1.000000
vn -0.998500 0.000000 0.054744
vn -0.998500 0.000000 0.054744
vn -0.998500 0.000000 0.054744
vn -0.998500 0.000000 0.054744
vn 0.000000 -1.000000 0.000000
vn 0.000000 -1.000000 0.000000
vn 0.999401 0.000000 0.034612
vn 0.999401 0.000000 0.034612
vn 0.000000 1.000000 -0.000000
vn 0.000000 1.000000 -0.000000
vn -0.999626 0.000000 0.027341
vn -0.999626 0.000000 0.027341
vn -0.999626 0.000000 0.027341
vn -0.999626 0.000000 0.027341
vn 0.000000 -1.000000 -0.000000
vn 0.000000 -1.000000 -0.000000
vn 0.999776 0.000000 0.021190
vn 0.999776 0.000000 0.021190
vn 0.999776 0.000000 0.021190
vn 0.999776 0.000000 0.021190
vn 0.000000 1.000000 -0.000001
vn 0.000000 1.000000 -0.000001
s 1
g Key1
usemtl blinn5SG
f 13/1/1 14/2/2 15/3/3 16/4/4
s off
f 5/5/5 6/6/6 8/7/7 7/8/8
f 2/9/9 8/10/10 6/11/11 4/12/12
f 7/13/13 1/14/14 3/15/15 5/16/16
f 1/14/17 2/9/18 10/17/19 9/18/20
f 2/9/21 4/12/22 11/19/23 10/17/24
f 4/12/25 3/15/26 12/20/27 11/19/28
f 3/15/29 1/14/30 9/18/31 12/20/32
s 2
f 17/21/33 18/22/34 14/2/35 13/1/36
s 3
f 18/22/37 19/23/38 15/3/39 14/2/40
s 4
f 19/23/41 20/24/42 16/4/43 15/3/44
s off
f 45/25/45 46/26/46 47/27/47 48/28/48
s 2
f 21/29/49 22/30/50 28/31/51 25/32/52
s 3
f 22/30/53 23/33/54 27/34/55 28/31/56
s 4
f 23/33/57 24/35/58 26/36/59 27/34/60
s off
f 49/37/61 50/38/62 51/39/63 52/40/64
s 2
f 9/18/65 10/17/66 22/30/50 21/29/49
s 3
f 10/17/67 11/19/68 23/33/54 22/30/53
s 4
f 11/19/69 12/20/70 24/35/58 23/33/57
s off
f 12/20/71 9/18/72 21/29/73 24/35/74
f 26/36/75 25/32/76 17/21/77 20/24/78
s 4
f 27/34/60 26/36/59 20/24/42 19/23/41
s 3
f 28/31/56 27/34/55 19/23/38 18/22/37
s 2
f 25/32/52 28/31/51 18/22/34 17/21/33
s off
f 3/15/79 4/12/80 30/41/81 29/42/82
f 4/12/83 6/6/84 31/43/85 30/41/86
f 6/6/87 5/5/88 32/44/89 31/43/90
f 5/5/91 3/15/92 29/42/93 32/44/94
f 7/8/95 8/7/96 34/45/97 33/46/98
f 8/7/99 2/47/100 35/48/101 34/45/102
f 2/47/103 1/49/104 36/50/105 35/48/106
f 1/49/107 7/8/108 33/46/109 36/50/110
f 29/42/111 30/41/112 38/51/113 37/52/114
f 30/41/115 31/43/116 39/53/117 38/51/118
f 31/43/119 32/44/120 40/54/121 39/53/122
f 32/44/123 29/42/124 37/52/125 40/54/126
f 33/46/127 34/45/128 42/55/129 41/56/130
f 34/45/131 35/48/132 43/57/133 42/55/134
f 35/48/135 36/50/136 44/58/137 43/57/138
f 36/50/139 33/46/140 41/56/141 44/58/142
f 37/52/143 38/51/144 43/57/145 44/58/146
f 38/51/147 39/53/148 42/55/149 43/57/150
f 39/53/151 40/54/152 41/56/153 42/55/154
f 40/54/155 37/52/156 44/58/157 41/56/158
f 20/24/159 17/21/160 46/26/161 45/25/162
s 2
f 17/21/33 13/1/36 47/27/163 46/26/164
s 1
f 13/1/1 16/4/4 48/28/165 47/27/166
s 4
f 16/4/43 20/24/42 45/25/167 48/28/168
s off
f 24/35/169 21/29/170 50/38/171 49/37/172
s 2
f 21/29/49 25/32/52 51/39/173 50/38/174
s off
f 25/32/175 26/36/176 52/40/177 51/39/178
s 4
f 26/36/59 24/35/58 49/37/179 52/40/180
