# This file uses centimeters as units for non-parametric coordinates.

mtllib Cleaver.mtl
g default
v 4.417190 1.527354 -0.250000
v 4.417190 1.344341 -0.433013
v 4.417190 1.094341 -0.500000
v 4.417190 0.844341 -0.433013
v 4.417190 0.661329 -0.250000
v 4.417190 0.594341 0.000000
v 4.417190 0.661329 0.250000
v 4.417190 0.844341 0.433013
v 4.417190 1.094341 0.500000
v 4.417190 1.344341 0.433013
v 4.417190 1.527354 0.250000
v 4.417190 1.594341 0.000000
v 1.402183 1.527354 -0.250000
v 1.402183 1.344341 -0.433013
v 1.402183 1.094341 -0.500000
v 1.402183 0.844341 -0.433013
v 1.402183 0.661329 -0.250000
v 1.402183 0.594341 0.000000
v 1.402183 0.661329 0.250000
v 1.402183 0.844341 0.433013
v 1.402183 1.094341 0.500000
v 1.402183 1.344341 0.433013
v 1.402183 1.527354 0.250000
v 1.402183 1.594341 0.000000
v 4.115690 1.527354 -0.250000
v 4.115690 1.344341 -0.433013
v 4.115690 1.094341 -0.500000
v 4.115690 0.844341 -0.433013
v 4.115690 0.661329 -0.250000
v 4.115690 0.594341 0.000000
v 4.115690 0.661329 0.250000
v 4.115690 0.844341 0.433013
v 4.115690 1.094341 0.500000
v 4.115690 1.344341 0.433013
v 4.115690 1.527354 0.250000
v 4.115690 1.594341 0.000000
v 1.703683 1.527354 -0.250000
v 1.703683 1.594341 0.000000
v 1.703683 1.527354 0.250000
v 1.703683 1.344341 0.433013
v 1.703683 1.094341 0.500000
v 1.703683 0.844341 0.433013
v 1.703683 0.661329 0.250000
v 1.703683 0.594341 0.000000
v 1.703683 0.661329 -0.250000
v 1.703683 0.844341 -0.433013
v 1.703683 1.094341 -0.500000
v 1.703683 1.344341 -0.433013
v 2.002548 1.468795 -0.216191
v 2.002548 1.310532 -0.374453
v 2.002548 1.094341 -0.432382
v 2.002548 0.878151 -0.374453
v 2.002548 0.719888 -0.216191
v 2.002548 0.661960 0.000000
v 2.002548 0.719888 0.216191
v 2.002548 0.878151 0.374453
v 2.002548 1.094341 0.432382
v 2.002548 1.310532 0.374453
v 2.002548 1.468795 0.216191
v 2.002548 1.526723 0.000000
v 3.816825 1.468795 -0.216191
v 3.816825 1.526723 0.000000
v 3.816825 1.468795 0.216191
v 3.816825 1.310532 0.374453
v 3.816825 1.094341 0.432382
v 3.816825 0.878151 0.374453
v 3.816825 0.719888 0.216191
v 3.816825 0.661960 0.000000
v 3.816825 0.719888 -0.216191
v 3.816825 0.878151 -0.374453
v 3.816825 1.094341 -0.432382
v 3.816825 1.310532 -0.374453
v 3.333016 1.527354 -0.250000
v 3.333016 1.594341 0.000000
v 3.333016 1.527354 0.250000
v 3.333016 1.344341 0.433013
v 3.333016 1.094341 0.500000
v 3.333016 0.844341 0.433013
v 3.333016 0.661329 0.250000
v 3.333016 0.594341 0.000000
v 3.333016 0.661329 -0.250000
v 3.333016 0.844341 -0.433013
v 3.333016 1.094341 -0.500000
v 3.333016 1.344341 -0.433013
v 2.486357 1.527354 -0.250000
v 2.486357 1.344341 -0.433013
v 2.486357 1.094341 -0.500000
v 2.486357 0.844341 -0.433013
v 2.486357 0.661329 -0.250000
v 2.486357 0.594341 0.000000
v 2.486357 0.661329 0.250000
v 2.486357 0.844341 0.433013
v 2.486357 1.094341 0.500000
v 2.486357 1.344341 0.433013
v 2.486357 1.527354 0.250000
v 2.486357 1.594341 0.000000
v -4.536047 -1.032803 0.183341
v 1.182777 -1.244166 0.183341
v -4.089363 1.500471 0.183341
v 1.182777 1.247959 0.183341
v -4.089363 1.500471 -0.183341
v 1.182777 1.247959 -0.183341
v -4.536047 -1.032803 -0.183341
v 1.182777 -1.244166 -0.183341
v -4.089363 1.500471 0.000000
v 1.182777 1.247959 0.000000
v 1.182777 -1.426299 0.000000
v -4.567674 -1.212169 0.000000
v -1.459567 -1.244166 0.183341
v -1.459567 -1.426299 0.000000
v -1.459567 -1.244166 -0.183341
v -1.459567 1.247959 -0.183341
v -1.459567 1.247959 0.000000
v -1.459567 1.247959 0.183341
v -0.138395 -1.426299 0.000000
v -0.138395 -1.244166 0.183341
v -0.138395 1.247959 0.183341
v -0.138395 1.247959 0.000000
v -0.138395 1.247959 -0.183341
v -0.138395 -1.244166 -0.183341
v -3.004935 -1.234378 0.183341
v -3.065707 -1.415817 0.000000
v -3.004935 -1.234378 -0.183341
v -2.780740 1.328187 -0.183341
v -2.780740 1.328187 0.000000
v -2.780740 1.328187 0.183341
v -3.848128 -1.206893 0.183341
v -3.848128 -1.386259 0.000000
v -3.848128 -1.206893 -0.183341
v -3.438812 1.385761 -0.183341
v -3.438812 1.385761 0.000000
v -3.438812 1.385761 0.183341
v -3.629757 0.877242 0.183341
v -3.800649 0.806457 0.183341
v -3.971540 0.877242 0.183341
v -4.042326 1.048134 0.183341
v -3.971540 1.219025 0.183341
v -3.800649 1.289811 0.183341
v -3.629757 1.219025 0.183341
v -3.558972 1.048134 0.183341
v -3.629757 0.877242 -0.183341
v -3.800649 0.806457 -0.183341
v -3.971540 0.877242 -0.183341
v -4.042326 1.048134 -0.183341
v -3.971540 1.219025 -0.183341
v -3.800649 1.289811 -0.183341
v -3.629757 1.219025 -0.183341
v -3.558972 1.048134 -0.183341
v -2.931564 -1.416417 0.000000
v 1.182777 0.962029 0.183341
v 1.182777 0.962029 0.000000
v 1.182777 0.962029 -0.183341
v 4.567674 1.182722 0.000000
v 4.567674 1.027265 0.000000
v 4.567674 1.027265 -0.099681
v 4.567674 1.182722 -0.099681
v 4.567674 1.027265 0.099681
v 4.567674 1.182722 0.099681
v 1.402183 1.241435 0.000000
v 1.402183 1.241435 0.174975
v 1.402183 0.968552 0.174975
v 1.402183 0.968552 0.000000
v 1.402183 0.968552 -0.174975
v 1.402183 1.241435 -0.174975
v 4.417190 1.188594 0.000000
v 4.417190 1.188594 -0.107210
v 4.417190 1.021394 -0.107210
v 4.417190 1.021394 0.000000
v 4.417190 1.021394 0.107210
v 4.417190 1.188594 0.107210
v -3.629757 0.877242 0.000000
v -3.558972 1.048134 0.000000
v -3.629757 1.219025 0.000000
v -3.800649 1.289811 0.000000
v -3.971540 1.219025 0.000000
v -4.042326 1.048134 0.000000
v -3.971540 0.877242 0.000000
v -3.800649 0.806457 0.000000
v -3.004935 -1.234378 0.000000
vt 0.916474 0.159588
vt 0.916474 0.133732
vt 0.947487 0.133732
vt 0.947487 0.159588
vt 0.916474 0.107995
vt 0.947487 0.107995
vt 0.916474 0.082293
vt 0.947487 0.082293
vt 0.916474 0.056718
vt 0.947487 0.056718
vt 0.916474 0.031561
vt 0.947487 0.031561
vt 0.916474 0.314216
vt 0.947487 0.314216
vt 0.916474 0.288641
vt 0.947487 0.288641
vt 0.916474 0.262939
vt 0.947487 0.262939
vt 0.916474 0.237202
vt 0.947487 0.237202
vt 0.916474 0.211346
vt 0.947487 0.211346
vt 0.916474 0.185467
vt 0.947487 0.185467
vt 0.698599 0.159588
vt 0.698599 0.133732
vt 0.729613 0.133732
vt 0.729613 0.159588
vt 0.698599 0.107995
vt 0.729613 0.107995
vt 0.698599 0.082293
vt 0.729613 0.082293
vt 0.698599 0.056718
vt 0.729613 0.056718
vt 0.698599 0.339372
vt 0.729613 0.031561
vt 0.698599 0.314216
vt 0.729613 0.314216
vt 0.698599 0.288641
vt 0.729613 0.288641
vt 0.698599 0.262939
vt 0.729613 0.262939
vt 0.698599 0.237202
vt 0.729613 0.237202
vt 0.698599 0.211346
vt 0.729613 0.211346
vt 0.698599 0.185467
vt 0.729613 0.185467
vt 0.933687 0.600767
vt 0.952349 0.582100
vt 0.959177 0.556603
vt 0.952342 0.531108
vt 0.933675 0.512446
vt 0.908178 0.505618
vt 0.882683 0.512453
vt 0.864021 0.531120
vt 0.857193 0.556617
vt 0.864028 0.582113
vt 0.882695 0.600774
vt 0.908192 0.607603
vt 0.735920 0.606635
vt 0.761416 0.613470
vt 0.786913 0.606642
vt 0.805579 0.587980
vt 0.812415 0.562484
vt 0.805586 0.536987
vt 0.786924 0.518320
vt 0.761429 0.511485
vt 0.735932 0.518313
vt 0.717265 0.536975
vt 0.710430 0.562471
vt 0.717258 0.587968
vt 0.867138 0.159588
vt 0.867138 0.133732
vt 0.867138 0.107995
vt 0.867138 0.082293
vt 0.867138 0.056718
vt 0.867138 0.339372
vt 0.867138 0.314216
vt 0.867138 0.288641
vt 0.867138 0.262939
vt 0.867138 0.237202
vt 0.867138 0.211346
vt 0.867138 0.185467
vt 0.778948 0.159588
vt 0.778948 0.185467
vt 0.778948 0.211346
vt 0.778948 0.237202
vt 0.778948 0.262939
vt 0.778948 0.288641
vt 0.778948 0.314216
vt 0.778948 0.031561
vt 0.778948 0.056718
vt 0.778948 0.082293
vt 0.778948 0.107995
vt 0.778948 0.133732
vt 0.327084 0.525013
vt 0.369468 0.276755
vt 0.501728 0.305206
vt 0.457484 0.549748
vt 0.308474 0.902941
vt 0.306278 0.921356
vt 0.174846 0.906883
vt 0.174974 0.888398
vt 0.336726 0.652106
vt 0.203220 0.642305
vt 0.376498 0.251498
vt 0.203834 0.616006
vt 0.879127 0.425327
vt 0.746224 0.389323
vt 0.887139 0.409842
vt 0.886159 0.421834
vt 0.643189 0.723880
vt 0.665840 0.708748
vt 0.580868 0.965387
vt 0.568696 0.952325
vt 0.738873 0.394388
vt 0.741453 0.406031
vt 0.053659 0.262429
vt 0.064814 0.502364
vt 0.497123 0.658765
vt 0.438548 0.923719
vt 0.195025 0.527613
vt 0.197069 0.509006
vt 0.212734 0.238579
vt 0.066278 0.604868
vt 0.626542 0.331728
vt 0.597563 0.557365
vt 0.582758 0.584532
vt 0.575154 0.601639
vt 0.044739 0.885805
vt 0.037930 0.855589
vt 0.077015 0.630488
vt 0.123219 0.241632
vt 0.593908 0.663251
vt 0.517690 0.637879
vt 0.581982 0.685755
vt 0.499812 0.937307
vt 0.131292 0.524279
vt 0.134734 0.506077
vt 0.122143 0.450584
vt 0.526874 0.887330
vt 0.546025 0.882311
vt 0.105070 0.440743
vt 0.563857 0.892666
vt 0.085213 0.446148
vt 0.569168 0.911028
vt 0.075275 0.462507
vt 0.560276 0.928090
vt 0.079287 0.481253
vt 0.539956 0.933517
vt 0.097288 0.491838
vt 0.521000 0.924097
vt 0.118016 0.487692
vt 0.517025 0.903575
vt 0.127258 0.468855
vt 0.231491 0.216717
vt 0.021545 0.845744
vt 0.779265 0.577481
vt 0.761420 0.577479
vt 0.779269 0.549651
vt 0.761424 0.549649
vt 0.743579 0.549647
vt 0.743576 0.577477
vt 0.919120 0.566221
vt 0.908186 0.566223
vt 0.919118 0.549169
vt 0.908184 0.549171
vt 0.897250 0.549172
vt 0.897252 0.566224
vt 0.730898 0.412894
vt 0.893203 0.435385
vt 0.724842 0.394149
vt 0.729853 0.382458
vt 0.898700 0.405615
vt 0.900056 0.425169
vt 0.023932 0.892538
vt 0.592925 0.611873
vt 0.017693 0.868092
vt 0.005538 0.856907
vt 0.613417 0.576415
vt 0.599972 0.596081
vt 0.533347 0.894659
vt 0.117729 0.467542
vt 0.111966 0.478655
vt 0.099934 0.482078
vt 0.088833 0.476213
vt 0.085548 0.464590
vt 0.091205 0.454028
vt 0.103066 0.450394
vt 0.545301 0.892139
vt 0.113951 0.455965
vt 0.555957 0.898725
vt 0.558765 0.910419
vt 0.552405 0.920687
vt 0.540009 0.923362
vt 0.529273 0.916980
vt 0.526652 0.904810
vt 0.890920 0.395888
vt 0.878416 0.406805
vt 0.740119 0.420686
vt 0.749508 0.407560
vt 0.616189 0.553129
vt 0.628241 0.569264
vt 0.047267 0.904573
vt 0.026850 0.909657
vt 0.644333 0.311136
vt 0.435503 0.942106
vt 0.324042 0.543349
vt 0.337246 0.625903
vt 0.498544 0.956709
vt 0.118024 0.216691
vt 0.035812 0.241850
vt 0.452476 0.567585
vt 0.509125 0.279495
vt 0.049909 0.512824
vt 0.214840 0.218048
vt 0.198881 0.212847
vt 0.500967 0.638466
vt 0.485459 0.632551
vt 0.978608 0.185467
vt 0.978608 0.159588
vt 0.978608 0.211346
vt 0.978608 0.237202
vt 0.978608 0.262939
vt 0.978608 0.288641
vt 0.978608 0.314216
vt 0.978608 0.339372
vt 0.978608 0.056718
vt 0.978608 0.082293
vt 0.978608 0.107995
vt 0.978608 0.133732
vt 0.667479 0.185467
vt 0.667479 0.159588
vt 0.667479 0.211346
vt 0.667479 0.237202
vt 0.667479 0.262939
vt 0.667479 0.288641
vt 0.667479 0.314216
vt 0.667479 0.031561
vt 0.667479 0.056718
vt 0.667479 0.082293
vt 0.667479 0.107995
vt 0.667479 0.133732
vt 0.867138 0.031561
vt 0.916474 0.339372
vt 0.778948 0.339372
vt 0.729613 0.339372
vt 0.947487 0.339372
vt 0.978608 0.031561
vt 0.698599 0.031561
vt 0.667479 0.339372
vn 0.001140 0.866025 -0.500000
vn 0.001140 0.500000 -0.866025
vn 0.105980 0.497184 -0.861148
vn 0.105980 0.861148 -0.497184
vn 0.001140 0.000000 -0.999999
vn 0.105980 -0.000000 -0.994368
vn 0.001140 -0.500000 -0.866025
vn 0.105980 -0.497184 -0.861148
vn 0.001140 -0.866025 -0.500000
vn 0.105980 -0.861148 -0.497184
vn 0.001140 -0.999999 0.000000
vn 0.105980 -0.994368 0.000000
vn 0.001140 -0.866025 0.500000
vn 0.105980 -0.861148 0.497184
vn 0.001140 -0.500000 0.866025
vn 0.105980 -0.497184 0.861148
vn 0.001140 0.000000 0.999999
vn 0.105980 0.000000 0.994368
vn 0.001140 0.500000 0.866025
vn 0.105980 0.497184 0.861148
vn 0.001140 0.866025 0.500000
vn 0.105980 0.861148 0.497184
vn 0.001140 0.999999 -0.000000
vn 0.105980 0.994368 0.000000
vn -0.105980 0.861148 -0.497184
vn -0.105980 0.497184 -0.861148
vn -0.001140 0.500000 -0.866025
vn -0.001140 0.866025 -0.499999
vn -0.105980 0.000000 -0.994368
vn -0.001140 0.000000 -0.999999
vn -0.105980 -0.497184 -0.861148
vn -0.001140 -0.499999 -0.866025
vn -0.105980 -0.861148 -0.497184
vn -0.001140 -0.866025 -0.500000
vn -0.105980 -0.994368 0.000000
vn -0.001140 -0.999999 -0.000000
vn -0.105980 -0.861148 0.497184
vn -0.001140 -0.866025 0.500000
vn -0.105980 -0.497184 0.861148
vn -0.001140 -0.500000 0.866025
vn -0.105980 -0.000000 0.994368
vn -0.001140 -0.000000 0.999999
vn -0.105980 0.497184 0.861148
vn -0.001140 0.500000 0.866025
vn -0.105980 0.861148 0.497184
vn -0.001140 0.866025 0.499999
vn -0.105980 0.994368 -0.000000
vn -0.001140 0.999999 -0.000000
vn 0.537499 0.730289 -0.421632
vn 0.445900 0.447541 -0.775165
vn 0.438654 -0.000000 -0.898656
vn 0.455979 -0.444995 -0.770755
vn 0.558102 -0.718604 -0.414886
vn 0.626389 -0.779511 0.000000
vn 0.558102 -0.718604 0.414886
vn 0.455979 -0.444995 0.770755
vn 0.438654 0.000000 0.898656
vn 0.445900 0.447541 0.775165
vn 0.537499 0.730289 0.421632
vn 0.605839 0.795587 0.000000
vn -0.517895 0.740836 -0.427722
vn -0.607227 0.794528 0.000000
vn -0.517895 0.740836 0.427722
vn -0.356492 0.467149 0.809126
vn -0.392339 -0.000000 0.919821
vn -0.367467 -0.465018 0.805435
vn -0.543163 -0.727138 0.419814
vn -0.631438 -0.775427 0.000000
vn -0.543163 -0.727138 -0.419814
vn -0.367467 -0.465018 -0.805435
vn -0.392339 -0.000000 -0.919821
vn -0.356492 0.467149 -0.809126
vn -0.047798 0.865036 -0.499429
vn -0.047798 0.499429 -0.865035
vn -0.047798 0.000000 -0.998857
vn -0.047798 -0.499429 -0.865036
vn -0.047798 -0.865036 -0.499429
vn -0.047798 -0.998857 0.000000
vn -0.047798 -0.865036 0.499429
vn -0.047798 -0.499429 0.865036
vn -0.047798 0.000000 0.998857
vn -0.047797 0.499429 0.865036
vn -0.047797 0.865036 0.499429
vn -0.047797 0.998857 0.000000
vn 0.047797 0.865036 -0.499429
vn 0.047797 0.998857 0.000000
vn 0.047797 0.865036 0.499429
vn 0.047797 0.499429 0.865036
vn 0.047798 0.000000 0.998857
vn 0.047798 -0.499429 0.865036
vn 0.047798 -0.865036 0.499429
vn 0.047798 -0.998857 -0.000000
vn 0.047798 -0.865036 -0.499429
vn 0.047797 -0.499429 -0.865035
vn 0.047798 0.000000 -0.998857
vn 0.047797 0.499429 -0.865035
vn 0.002079 0.068458 0.997652
vn -0.000243 -0.069848 0.997558
vn -0.000000 -0.090000 0.995942
vn -0.000000 0.094059 0.995567
vn 0.002079 0.068458 -0.997652
vn 0.030349 0.999539 0.000000
vn 0.000000 1.000000 0.000000
vn 0.000000 0.094059 -0.995567
vn -0.000243 -0.069848 -0.997558
vn 0.000000 -0.090000 -0.995942
vn -0.003471 -0.999994 0.000000
vn 0.000000 -1.000000 0.000000
vn 0.718984 0.695027 0.000000
vn 0.718984 -0.695027 0.000000
vn 0.505890 -0.467858 -0.724696
vn 0.505890 0.467858 -0.724696
vn -0.603242 0.001794 -0.797556
vn -0.950068 -0.312043 0.000000
vn -0.914045 0.405613 0.000000
vn -0.897646 0.398335 -0.188577
vn 0.505890 -0.467858 0.724696
vn 0.505890 0.467858 0.724696
vn -0.603242 0.001794 0.797556
vn -0.897646 0.398335 0.188577
vn -0.001061 -0.062310 -0.998056
vn 0.004473 0.064238 -0.997925
vn 0.069456 0.997585 0.000000
vn 0.004473 0.064238 0.997925
vn -0.001061 -0.062310 0.998056
vn 0.657677 -0.753300 0.000000
vn 0.345209 -0.132541 0.929120
vn 0.117109 -0.010578 0.993063
vn 0.001792 0.146444 0.989217
vn 0.004151 0.999991 0.000000
vn 0.001792 0.146444 -0.989217
vn 0.117109 -0.010578 -0.993063
vn 0.345209 -0.132541 -0.929120
vn -0.014159 -0.101213 0.994764
vn -0.125885 -0.992045 0.000000
vn 0.012732 -0.999919 0.000000
vn -0.014159 -0.101213 -0.994764
vn 0.014944 0.113515 -0.993424
vn 0.130526 0.991445 0.000000
vn 0.014944 0.113515 0.993424
vn 0.000000 1.000000 0.000000
vn -0.707106 0.707107 0.000000
vn -0.116855 0.116855 -0.986250
vn 0.000000 0.048070 -0.998844
vn 0.707106 0.707107 0.000000
vn 0.044119 0.044119 -0.998052
vn 1.000000 0.000000 0.000000
vn 0.159024 -0.000000 -0.987275
vn 0.707106 -0.707107 0.000000
vn 0.145133 -0.145133 -0.978710
vn 0.000000 -1.000000 0.000000
vn 0.000000 -0.378422 -0.925633
vn -0.707107 -0.707107 0.000000
vn -0.324825 -0.324826 -0.888244
vn -1.000000 0.000000 0.000000
vn -0.211656 0.000000 -0.977344
vn 0.000000 0.048070 0.998844
vn 0.044119 0.044119 0.998052
vn 0.000000 -0.378421 0.925634
vn -0.324825 -0.324825 0.888244
vn 0.159024 0.000000 0.987275
vn 0.145133 -0.145133 0.978710
vn -0.211656 -0.000000 0.977344
vn -0.116855 0.116855 0.986250
vn -0.030675 -0.999529 0.000000
vn -0.004466 -0.999990 0.000000
vn 0.995697 -0.092670 0.000000
vn -0.892600 0.244259 0.378949
vn -0.865627 0.500689 0.000000
vn -0.900450 -0.235651 0.365594
vn -0.879063 -0.476706 0.000000
vn -0.900450 -0.235651 -0.365594
vn -0.892600 0.244259 -0.378949
vn 0.984268 0.094881 -0.149043
vn 0.975812 0.218613 0.000000
vn 0.985240 -0.091926 -0.144402
vn 0.978179 -0.207766 0.000000
vn 0.985240 -0.091926 0.144402
vn 0.984268 0.094880 0.149043
s 1
g Cleaver
usemtl initialShadingGroup
f 49/1/1 50/2/2 48/3/3 37/4/4
f 50/2/2 51/5/5 47/6/6 48/3/3
f 51/5/5 52/7/7 46/8/8 47/6/6
f 52/7/7 53/9/9 45/10/10 46/8/8
f 53/9/9 54/11/11 44/12/12 45/10/10
f 54/246/11 55/13/13 43/14/14 44/249/12
f 55/13/13 56/15/15 42/16/16 43/14/14
f 56/15/15 57/17/17 41/18/18 42/16/16
f 57/17/17 58/19/19 40/20/20 41/18/18
f 58/19/19 59/21/21 39/22/22 40/20/20
f 59/21/21 60/23/23 38/24/24 39/22/22
f 60/23/23 49/1/1 37/4/4 38/24/24
f 25/25/25 26/26/26 72/27/27 61/28/28
f 26/26/26 27/29/29 71/30/30 72/27/27
f 27/29/29 28/31/31 70/32/32 71/30/30
f 28/31/31 29/33/33 69/34/34 70/32/32
f 29/33/33 30/251/35 68/36/36 69/34/34
f 30/35/35 31/37/37 67/38/38 68/248/36
f 31/37/37 32/39/39 66/40/40 67/38/38
f 32/39/39 33/41/41 65/42/42 66/40/40
f 33/41/41 34/43/43 64/44/44 65/42/42
f 34/43/43 35/45/45 63/46/46 64/44/44
f 35/45/45 36/47/47 62/48/48 63/46/46
f 36/47/47 25/25/25 61/28/28 62/48/48
f 1/234/49 2/244/50 26/26/26 25/25/25
f 2/244/50 3/243/51 27/29/29 26/26/26
f 3/243/51 4/242/52 28/31/31 27/29/29
f 4/242/52 5/241/53 29/33/33 28/31/31
f 5/241/53 6/240/54 30/251/35 29/33/33
f 6/252/54 7/239/55 31/37/37 30/35/35
f 7/239/55 8/238/56 32/39/39 31/37/37
f 8/238/56 9/237/57 33/41/41 32/39/39
f 9/237/57 10/236/58 34/43/43 33/41/41
f 10/236/58 11/235/59 35/45/45 34/43/43
f 11/235/59 12/233/60 36/47/47 35/45/45
f 12/233/60 1/234/49 25/25/25 36/47/47
f 38/24/24 37/4/4 13/222/61 24/221/62
f 39/22/22 38/24/24 24/221/62 23/223/63
f 40/20/20 39/22/22 23/223/63 22/224/64
f 41/18/18 40/20/20 22/224/64 21/225/65
f 42/16/16 41/18/18 21/225/65 20/226/66
f 43/14/14 42/16/16 20/226/66 19/227/67
f 44/249/12 43/14/14 19/227/67 18/228/68
f 45/10/10 44/12/12 18/250/68 17/229/69
f 46/8/8 45/10/10 17/229/69 16/230/70
f 47/6/6 46/8/8 16/230/70 15/231/71
f 48/3/3 47/6/6 15/231/71 14/232/72
f 37/4/4 48/3/3 14/232/72 13/222/61
f 85/73/73 86/74/74 50/2/2 49/1/1
f 86/74/74 87/75/75 51/5/5 50/2/2
f 87/75/75 88/76/76 52/7/7 51/5/5
f 88/76/76 89/77/77 53/9/9 52/7/7
f 89/77/77 90/245/78 54/11/11 53/9/9
f 90/78/78 91/79/79 55/13/13 54/246/11
f 91/79/79 92/80/80 56/15/15 55/13/13
f 92/80/80 93/81/81 57/17/17 56/15/15
f 93/81/81 94/82/82 58/19/19 57/17/17
f 94/82/82 95/83/83 59/21/21 58/19/19
f 95/83/83 96/84/84 60/23/23 59/21/21
f 96/84/84 85/73/73 49/1/1 60/23/23
f 62/48/48 61/28/28 73/85/85 74/86/86
f 63/46/46 62/48/48 74/86/86 75/87/87
f 64/44/44 63/46/46 75/87/87 76/88/88
f 65/42/42 64/44/44 76/88/88 77/89/89
f 66/40/40 65/42/42 77/89/89 78/90/90
f 67/38/38 66/40/40 78/90/90 79/91/91
f 68/248/36 67/38/38 79/91/91 80/247/92
f 69/34/34 68/36/36 80/92/92 81/93/93
f 70/32/32 69/34/34 81/93/93 82/94/94
f 71/30/30 70/32/32 82/94/94 83/95/95
f 72/27/27 71/30/30 83/95/95 84/96/96
f 61/28/28 72/27/27 84/96/96 73/85/85
f 86/74/74 85/73/73 73/85/85 84/96/96
f 87/75/75 86/74/74 84/96/96 83/95/95
f 88/76/76 87/75/75 83/95/95 82/94/94
f 89/77/77 88/76/76 82/94/94 81/93/93
f 90/245/78 89/77/77 81/93/93 80/92/92
f 91/79/79 90/78/78 80/247/92 79/91/91
f 92/80/80 91/79/79 79/91/91 78/90/90
f 93/81/81 92/80/80 78/90/90 77/89/89
f 94/82/82 93/81/81 77/89/89 76/88/88
f 95/83/83 94/82/82 76/88/88 75/87/87
f 96/84/84 95/83/83 75/87/87 74/86/86
f 85/73/73 96/84/84 74/86/86 73/85/85
f 114/97/97 109/98/98 116/99/99 117/100/100
f 112/101/101 113/102/102 118/103/103 119/104/104
f 111/105/105 112/101/101 119/104/104 120/106/106
f 110/210/107 111/105/105 120/106/106 115/108/108
f 153/109/109 154/200/110 155/111/111 156/112/112
f 103/113/113 108/114/114 105/115/115 101/116/116
f 113/209/102 114/97/97 117/100/100 118/214/103
f 157/117/117 154/110/110 153/202/109 158/118/118
f 109/98/98 110/107/107 115/215/108 116/99/99
f 105/216/115 108/213/114 97/119/119 99/120/120
f 123/121/121 124/122/122 112/101/101 111/105/105
f 124/122/122 125/208/123 113/102/102 112/101/101
f 125/123/123 126/124/124 114/97/97 113/209/102
f 126/124/124 121/125/125 109/98/98 114/97/97
f 116/99/99 115/215/108 107/207/126 98/127/127
f 150/128/128 116/99/99 98/127/127
f 118/214/103 117/100/100 100/129/129 106/130/130
f 119/104/104 118/103/103 106/205/130 102/131/131
f 119/104/104 102/131/131 152/132/132 120/106/106
f 115/108/108 120/106/106 104/133/133 107/126/126
f 127/134/134 128/212/135 122/218/136 121/125/125
f 128/135/135 129/137/137 123/121/121 122/136/136
f 129/137/137 130/138/138 124/122/122 123/121/121
f 130/138/138 131/211/139 125/208/123 124/122/122
f 131/139/139 132/140/140 126/124/124 125/123/123
f 132/140/140 127/134/134 121/125/125 126/124/124
f 108/213/114 128/212/135 127/134/134 97/119/119
f 103/113/113 129/137/137 128/135/135 108/114/114
f 105/115/115 131/211/139 130/138/138 101/116/116
f 99/120/120 132/140/140 131/139/139 105/216/115
f 178/191/141 171/183/142 141/142/143 142/143/144
f 177/193/145 178/191/141 142/143/144 143/145/146
f 176/194/147 177/193/145 143/145/146 144/147/148
f 175/195/149 176/194/147 144/147/148 145/149/150
f 174/196/151 175/195/149 145/149/150 146/151/152
f 173/197/153 174/196/151 146/151/152 147/153/154
f 172/198/155 173/197/153 147/153/154 148/155/156
f 171/183/142 172/198/155 148/155/156 141/142/143
f 147/153/154 130/138/138 148/155/156
f 143/145/146 103/113/113 144/147/148
f 97/119/119 127/134/134 134/144/157 135/146/158
f 132/140/140 99/120/120 138/152/159 139/154/160
f 99/120/120 97/119/119 136/148/161 137/150/162
f 127/134/134 132/140/140 140/156/163 133/141/164
f 145/149/150 101/116/116 146/151/152
f 141/142/143 129/137/137 142/143/144
f 132/140/140 139/154/160 140/156/163
f 99/120/120 137/150/162 138/152/159
f 97/119/119 135/146/158 136/148/161
f 127/134/134 133/141/164 134/144/157
f 130/138/138 129/137/137 141/142/143 148/155/156
f 129/137/137 103/113/113 143/145/146 142/143/144
f 103/113/113 101/116/116 145/149/150 144/147/148
f 101/116/116 130/138/138 147/153/154 146/151/152
f 110/210/107 149/220/165 123/121/121 111/105/105
f 121/125/125 149/157/165 110/107/107 109/98/98
f 179/217/166 149/157/165 121/125/125
f 122/218/136 179/217/166 121/125/125
f 98/127/127 107/207/126 151/203/167 150/128/128
f 152/132/132 151/158/167 107/126/126 104/133/133
f 120/106/106 152/132/132 104/133/133
f 117/100/100 116/99/99 150/128/128 100/129/129
f 106/130/130 100/129/129 160/182/168 159/178/169
f 100/129/129 150/128/128 161/181/170 160/182/168
f 150/128/128 151/203/167 162/204/171 161/181/170
f 151/158/167 152/132/132 163/179/172 162/180/171
f 152/132/132 102/131/131 164/177/173 163/179/172
f 102/131/131 106/205/130 159/206/169 164/177/173
f 166/176/174 165/172/175 153/109/109 156/112/112
f 167/175/176 166/176/174 156/112/112 155/111/111
f 168/199/177 167/175/176 155/111/111 154/200/110
f 169/173/178 168/174/177 154/110/110 157/117/117
f 170/171/179 169/173/178 157/117/117 158/118/118
f 165/201/175 170/171/179 158/118/118 153/202/109
f 24/62/62 13/61/61 164/164/173 159/160/169
f 23/63/63 24/62/62 159/160/169 160/159/168
f 18/68/68 19/67/67 161/161/170 162/162/171
f 17/69/69 18/68/68 162/162/171 163/163/172
f 14/72/72 164/164/173 13/61/61
f 160/159/168 22/64/64 23/63/63
f 14/72/72 15/71/71 164/164/173
f 163/163/172 16/70/70 17/69/69
f 164/164/173 15/71/71 163/163/172
f 163/163/172 15/71/71 16/70/70
f 21/65/65 22/64/64 160/159/168
f 21/65/65 161/161/170 20/66/66
f 21/65/65 160/159/168 161/161/170
f 20/66/66 161/161/170 19/67/67
f 1/49/49 12/60/60 165/166/175 166/165/174
f 12/60/60 11/59/59 170/170/179 165/166/175
f 167/167/176 5/53/53 4/52/52
f 7/55/55 6/54/54 168/168/177 169/169/178
f 10/58/58 9/57/57 170/170/179
f 3/51/51 2/50/50 166/165/174
f 1/49/49 166/165/174 2/50/50
f 170/170/179 11/59/59 10/58/58
f 3/51/51 166/165/174 167/167/176
f 3/51/51 167/167/176 4/52/52
f 6/54/54 5/53/53 167/167/176 168/168/177
f 7/55/55 169/169/178 8/56/56
f 170/170/179 9/57/57 169/169/178
f 169/169/178 9/57/57 8/56/56
f 140/156/163 172/184/155 171/192/142 133/141/164
f 139/154/160 173/185/153 172/184/155 140/156/163
f 138/152/159 174/186/151 173/185/153 139/154/160
f 137/150/162 175/187/149 174/186/151 138/152/159
f 136/148/161 176/188/147 175/187/149 137/150/162
f 135/146/158 177/189/145 176/188/147 136/148/161
f 134/144/157 178/190/141 177/189/145 135/146/158
f 133/141/164 171/192/142 178/190/141 134/144/157
f 123/121/121 149/220/165 179/219/166
f 122/136/136 123/121/121 179/219/166
