# This file uses centimeters as units for non-parametric coordinates.

mtllib Dish.mtl
g default
v 0.923880 0.077274 -0.382683
v 0.707107 0.077274 -0.707106
v 0.382684 0.077274 -0.923879
v 0.000001 0.077274 -1.000000
v -0.382683 0.077274 -0.923880
v -0.707106 0.077274 -0.707107
v -0.923879 0.077274 -0.382684
v -1.000000 0.077274 -0.000000
v -0.923880 0.077274 0.382683
v -0.707107 0.077274 0.707107
v -0.382684 0.077274 0.923879
v -0.000000 0.077274 1.000000
v 0.382683 0.077274 0.923880
v 0.707107 0.077274 0.707107
v 0.923879 0.077274 0.382683
v 1.000000 0.077274 0.000000
v 0.923880 0.177274 -0.382683
v 0.707107 0.177274 -0.707106
v 0.382684 0.177274 -0.923879
v 0.000001 0.177274 -1.000000
v -0.382683 0.177274 -0.923880
v -0.707106 0.177274 -0.707107
v -0.923879 0.177274 -0.382684
v -1.000000 0.177274 -0.000000
v -0.923880 0.177274 0.382683
v -0.707107 0.177274 0.707107
v -0.382684 0.177274 0.923879
v -0.000000 0.177274 1.000000
v 0.382683 0.177274 0.923880
v 0.707107 0.177274 0.707107
v 0.923879 0.177274 0.382683
v 1.000000 0.177274 0.000000
v -0.739103 0.177274 -0.306147
v -0.565685 0.177274 -0.565686
v -0.306146 0.177274 -0.739104
v 0.000000 0.177274 -0.800000
v 0.306147 0.177274 -0.739103
v 0.565686 0.177274 -0.565685
v 0.739104 0.177274 -0.306146
v 0.800000 0.177274 0.000000
v 0.739104 0.177274 0.306147
v 0.565685 0.177274 0.565685
v 0.306147 0.177274 0.739104
v -0.000000 0.177274 0.800000
v -0.306147 0.177274 0.739103
v -0.565686 0.177274 0.565685
v -0.739104 0.177274 0.306146
v -0.800000 0.177274 -0.000000
v 0.739104 0.077274 0.306147
v 0.800000 0.077274 0.000000
v 0.739104 0.077274 -0.306146
v 0.565686 0.077274 -0.565685
v 0.306147 0.077274 -0.739103
v 0.000000 0.077274 -0.800000
v -0.306146 0.077274 -0.739104
v -0.565685 0.077274 -0.565686
v -0.739103 0.077274 -0.306147
v -0.800000 0.077274 -0.000000
v -0.739104 0.077274 0.306146
v -0.565686 0.077274 0.565685
v -0.306147 0.077274 0.739103
v -0.000000 0.077274 0.800000
v 0.306147 0.077274 0.739104
v 0.565685 0.077274 0.565685
v -0.603028 0.100000 -0.249783
v -0.461538 0.100000 -0.461538
v 0.000000 0.100000 0.000000
v -0.249782 0.100000 -0.603028
v 0.000000 0.100000 -0.652713
v 0.249783 0.100000 -0.603028
v 0.461538 0.100000 -0.461537
v 0.603028 0.100000 -0.249782
v 0.652713 0.100000 0.000000
v 0.603028 0.100000 0.249782
v 0.461538 0.100000 0.461538
v 0.249782 0.100000 0.603028
v -0.000000 0.100000 0.652713
v -0.249783 0.100000 0.603028
v -0.461538 0.100000 0.461538
v -0.603028 0.100000 0.249782
v -0.652713 0.100000 -0.000000
v 0.603028 0.000000 0.249782
v 0.652713 0.000000 0.000000
v 0.000000 0.000000 0.000000
v 0.603028 0.000000 -0.249782
v 0.461538 0.000000 -0.461537
v 0.249783 0.000000 -0.603028
v 0.000000 0.000000 -0.652713
v -0.249782 0.000000 -0.603028
v -0.461538 0.000000 -0.461538
v -0.603028 0.000000 -0.249783
v -0.652713 0.000000 -0.000000
v -0.603028 0.000000 0.249782
v -0.461538 0.000000 0.461538
v -0.249783 0.000000 0.603028
v -0.000000 0.000000 0.652713
v 0.249782 0.000000 0.603028
v 0.461538 0.000000 0.461538
vt 0.277459 0.723363
vt 0.204305 0.650208
vt 0.223421 0.631092
vt 0.296576 0.704246
vt 0.131150 0.577053
vt 0.150266 0.557937
vt 0.339477 0.785380
vt 0.358593 0.766264
vt 0.069132 0.515036
vt 0.088249 0.495919
vt 0.380916 0.826819
vt 0.400032 0.807703
vt 0.027694 0.473597
vt 0.046810 0.454481
vt 0.721463 0.283585
vt 0.648309 0.210430
vt 0.667425 0.191314
vt 0.740579 0.264469
vt 0.575154 0.137276
vt 0.594270 0.118159
vt 0.783481 0.345602
vt 0.802597 0.326486
vt 0.513136 0.075258
vt 0.532253 0.056142
vt 0.824920 0.387041
vt 0.844036 0.367925
vt 0.471698 0.033819
vt 0.490814 0.014703
vt 0.123439 0.106268
vt 0.211145 0.047665
vt 0.231836 0.097618
vt 0.161671 0.144500
vt 0.314601 0.027086
vt 0.314601 0.081155
vt 0.247074 0.134405
vt 0.189827 0.172656
vt 0.064835 0.193974
vt 0.114789 0.214665
vt 0.418057 0.047665
vt 0.397366 0.097618
vt 0.314601 0.120973
vt 0.314601 0.297430
vt 0.151576 0.229903
vt 0.044257 0.297430
vt 0.098326 0.297430
vt 0.505763 0.106268
vt 0.467531 0.144500
vt 0.382128 0.134405
vt 0.138144 0.297430
vt 0.064835 0.400887
vt 0.114789 0.380195
vt 0.564367 0.193974
vt 0.514414 0.214665
vt 0.439375 0.172656
vt 0.151576 0.364958
vt 0.123439 0.488593
vt 0.161671 0.450360
vt 0.584945 0.297430
vt 0.530877 0.297430
vt 0.477626 0.229903
vt 0.189827 0.422204
vt 0.211145 0.547196
vt 0.231836 0.497243
vt 0.564367 0.400887
vt 0.514414 0.380195
vt 0.491058 0.297430
vt 0.247074 0.460456
vt 0.314601 0.567775
vt 0.314601 0.513706
vt 0.505763 0.488593
vt 0.467531 0.450360
vt 0.477626 0.364958
vt 0.314601 0.473888
vt 0.418057 0.547196
vt 0.397366 0.497243
vt 0.439375 0.422204
vt 0.382128 0.460456
vt 0.953448 0.794490
vt 0.894845 0.882195
vt 0.856612 0.843963
vt 0.903495 0.773798
vt 0.807139 0.940799
vt 0.786448 0.890846
vt 0.828457 0.815807
vt 0.866708 0.758561
vt 0.974027 0.691033
vt 0.919958 0.691033
vt 0.703683 0.961378
vt 0.703683 0.907309
vt 0.771210 0.854059
vt 0.703682 0.691033
vt 0.880140 0.691033
vt 0.953448 0.587577
vt 0.903495 0.608268
vt 0.600226 0.940799
vt 0.620918 0.890846
vt 0.703683 0.867491
vt 0.866708 0.623506
vt 0.894845 0.499871
vt 0.856612 0.538103
vt 0.512520 0.882196
vt 0.550753 0.843963
vt 0.636155 0.854059
vt 0.828457 0.566259
vt 0.807139 0.441268
vt 0.786448 0.491221
vt 0.453917 0.794490
vt 0.503870 0.773798
vt 0.578908 0.815808
vt 0.771210 0.528008
vt 0.703682 0.420689
vt 0.703682 0.474758
vt 0.433338 0.691033
vt 0.487407 0.691033
vt 0.540657 0.758561
vt 0.703682 0.514576
vt 0.600226 0.441268
vt 0.620917 0.491221
vt 0.453917 0.587577
vt 0.503870 0.608268
vt 0.527225 0.691033
vt 0.636155 0.528008
vt 0.512520 0.499871
vt 0.550753 0.538103
vt 0.540657 0.623506
vt 0.578908 0.566259
vt 0.527225 0.973128
vt 0.454070 0.899973
vt 0.473186 0.880857
vt 0.546341 0.954012
vt 0.971229 0.533350
vt 0.898074 0.460196
vt 0.917191 0.441080
vt 0.990345 0.514234
vn 0.923880 0.000000 -0.382683
vn 0.707107 0.000000 -0.707106
vn 0.707107 0.000000 -0.707106
vn 0.923880 0.000000 -0.382683
vn 0.382684 0.000000 -0.923879
vn 0.382684 0.000000 -0.923879
vn 0.000001 0.000000 -1.000000
vn 0.000001 0.000000 -1.000000
vn -0.382683 0.000000 -0.923880
vn -0.382683 0.000000 -0.923880
vn -0.707106 0.000000 -0.707107
vn -0.707106 0.000000 -0.707107
vn -0.923879 0.000000 -0.382684
vn -0.923879 0.000000 -0.382684
vn -1.000000 0.000000 -0.000000
vn -1.000000 0.000000 -0.000000
vn -0.923880 0.000000 0.382683
vn -0.923880 0.000000 0.382683
vn -0.707107 0.000000 0.707107
vn -0.707107 0.000000 0.707107
vn -0.382684 0.000000 0.923880
vn -0.382684 0.000000 0.923880
vn -0.000000 0.000000 1.000000
vn -0.000000 0.000000 1.000000
vn 0.382683 0.000000 0.923880
vn 0.382683 0.000000 0.923880
vn 0.707107 0.000000 0.707107
vn 0.707107 0.000000 0.707107
vn 0.923880 0.000000 0.382684
vn 0.923880 0.000000 0.382684
vn 1.000000 0.000000 0.000000
vn 1.000000 0.000000 0.000000
vn 0.000000 -1.000000 0.000000
vn 0.000000 -1.000000 0.000000
vn 0.000000 -1.000000 0.000000
vn 0.000000 -1.000000 -0.000000
vn 0.000000 -1.000000 -0.000000
vn 0.000000 -1.000000 -0.000000
vn 0.000000 -1.000000 -0.000000
vn 0.000000 -1.000000 -0.000000
vn 0.000000 -1.000000 0.000000
vn 0.000000 -1.000000 0.000000
vn 0.000000 -1.000000 0.000000
vn 0.000000 -1.000000 0.000000
vn 0.000000 -1.000000 -0.000000
vn 0.000000 -1.000000 -0.000000
vn 0.000000 -1.000000 0.000000
vn 0.000000 -1.000000 0.000000
vn 0.000000 -1.000000 0.000000
vn 0.000000 -1.000000 0.000000
vn 0.000000 -1.000000 0.000000
vn 0.000000 -1.000000 0.000000
vn 0.000000 -1.000000 -0.000000
vn 0.000000 -1.000000 -0.000000
vn 0.000000 -1.000000 -0.000000
vn 0.000000 -1.000000 -0.000000
vn 0.000000 -1.000000 0.000000
vn 0.000000 -1.000000 -0.000000
vn 0.000000 -1.000000 -0.000000
vn 0.000000 -1.000000 0.000000
vn 0.000000 -1.000000 -0.000000
vn 0.000000 -1.000000 0.000000
vn 0.000000 -1.000000 -0.000000
vn 0.000000 -1.000000 -0.000000
vn 0.000000 1.000000 0.000000
vn 0.000000 1.000000 0.000000
vn 0.000000 1.000000 0.000000
vn 0.000000 1.000000 0.000000
vn 0.000000 1.000000 -0.000000
vn 0.000000 1.000000 -0.000000
vn 0.000000 1.000000 -0.000000
vn 0.000000 1.000000 -0.000000
vn 0.000000 1.000000 -0.000000
vn 0.000000 1.000000 -0.000000
vn 0.000000 1.000000 -0.000000
vn 0.000000 1.000000 -0.000000
vn 0.000000 1.000000 0.000000
vn 0.000000 1.000000 0.000000
vn 0.000000 1.000000 0.000000
vn 0.000000 1.000000 0.000000
vn 0.000000 1.000000 -0.000000
vn 0.000000 1.000000 -0.000000
vn 0.000000 1.000000 -0.000000
vn 0.000000 1.000000 -0.000000
vn 0.000000 1.000000 0.000000
vn 0.000000 1.000000 0.000000
vn 0.000000 1.000000 -0.000000
vn 0.000000 1.000000 -0.000000
vn 0.000000 1.000000 -0.000000
vn 0.000000 1.000000 -0.000000
vn 0.000000 1.000000 -0.000000
vn 0.000000 1.000000 -0.000000
vn 0.000000 1.000000 0.000000
vn 0.000000 1.000000 0.000000
vn 0.000000 1.000000 0.000000
vn 0.000000 1.000000 0.000000
vn 0.000000 1.000000 0.000000
vn 0.000000 1.000000 0.000000
vn 0.000000 1.000000 0.000000
vn 0.000000 1.000000 0.000000
vn 0.000000 1.000000 -0.000000
vn 0.000000 1.000000 0.000000
vn 0.000000 1.000000 0.000000
vn 0.000000 1.000000 0.000000
vn 0.000000 1.000000 0.000000
vn 0.000000 1.000000 0.000000
vn 0.000000 1.000000 0.000000
vn 0.000000 1.000000 -0.000000
vn 0.000000 1.000000 0.000000
vn 0.000000 1.000000 0.000000
vn 0.000000 1.000000 0.000000
vn 0.000000 1.000000 0.000000
vn 0.000000 1.000000 0.000000
vn 0.000000 -1.000000 0.000000
vn 0.000000 -1.000000 0.000000
vn 0.000000 -1.000000 0.000000
vn 0.000000 -1.000000 0.000000
vn 0.000000 -1.000000 0.000000
vn 0.000000 -1.000000 0.000000
vn 0.000000 -1.000000 0.000000
vn 0.000000 -1.000000 0.000000
vn 0.000000 -1.000000 0.000000
vn 0.000000 -1.000000 0.000000
vn 0.000000 -1.000000 0.000000
vn 0.000000 -1.000000 0.000000
vn 0.000000 -1.000000 0.000000
vn 0.000000 -1.000000 0.000000
vn 0.000000 -1.000000 0.000000
vn 0.000000 -1.000000 0.000000
vn 0.000000 -1.000000 0.000000
vn 0.328514 0.885526 0.328515
vn 0.429225 0.885526 0.177791
vn 0.429225 0.885526 0.177791
vn 0.328514 0.885526 0.328515
vn 0.177790 0.885526 0.429225
vn 0.177790 0.885526 0.429225
vn -0.000000 0.885526 0.464589
vn -0.000000 0.885526 0.464590
vn -0.177791 0.885526 0.429225
vn -0.177791 0.885526 0.429225
vn -0.328515 0.885526 0.328514
vn -0.328515 0.885526 0.328514
vn -0.429225 0.885526 0.177791
vn -0.429225 0.885526 0.177791
vn -0.464590 0.885526 -0.000000
vn -0.464590 0.885526 -0.000000
vn -0.429225 0.885526 -0.177791
vn -0.429225 0.885526 -0.177791
vn -0.328514 0.885526 -0.328514
vn -0.328514 0.885526 -0.328514
vn -0.177791 0.885526 -0.429225
vn -0.177791 0.885526 -0.429225
vn 0.000000 0.885526 -0.464590
vn 0.000000 0.885526 -0.464590
vn 0.177791 0.885526 -0.429225
vn 0.177791 0.885526 -0.429225
vn 0.328514 0.885526 -0.328514
vn 0.328514 0.885526 -0.328514
vn 0.429225 0.885526 -0.177791
vn 0.429225 0.885526 -0.177791
vn 0.464590 0.885526 0.000000
vn 0.464590 0.885526 0.000000
vn 0.464590 -0.885526 0.000000
vn 0.429225 -0.885526 0.177791
vn 0.429225 -0.885526 0.177791
vn 0.464590 -0.885526 0.000000
vn 0.429225 -0.885526 -0.177791
vn 0.429225 -0.885526 -0.177791
vn 0.328515 -0.885526 -0.328514
vn 0.328515 -0.885526 -0.328514
vn 0.177791 -0.885526 -0.429225
vn 0.177791 -0.885526 -0.429225
vn 0.000000 -0.885526 -0.464589
vn 0.000000 -0.885526 -0.464590
vn -0.177790 -0.885526 -0.429225
vn -0.177790 -0.885526 -0.429225
vn -0.328514 -0.885526 -0.328514
vn -0.328514 -0.885526 -0.328514
vn -0.429225 -0.885526 -0.177791
vn -0.429225 -0.885526 -0.177791
vn -0.464589 -0.885526 -0.000000
vn -0.464590 -0.885526 -0.000000
vn -0.429225 -0.885526 0.177791
vn -0.429225 -0.885526 0.177791
vn -0.328515 -0.885526 0.328514
vn -0.328515 -0.885526 0.328514
vn -0.177791 -0.885526 0.429225
vn -0.177791 -0.885526 0.429225
vn -0.000000 -0.885526 0.464590
vn -0.000000 -0.885526 0.464590
vn 0.177791 -0.885526 0.429225
vn 0.177791 -0.885526 0.429225
vn 0.328514 -0.885526 0.328514
vn 0.328514 -0.885526 0.328514
s 1
g Dish
usemtl initialShadingGroup
f 1/19/1 2/23/2 18/24/3 17/20/4
f 2/23/2 3/27/5 19/28/6 18/24/3
f 3/127/5 4/128/7 20/129/8 19/130/6
f 4/128/7 5/11/9 21/12/10 20/129/8
f 5/11/9 6/7/11 22/8/12 21/12/10
f 6/7/11 7/1/13 23/4/14 22/8/12
f 7/1/13 8/2/15 24/3/16 23/4/14
f 8/2/15 9/5/17 25/6/18 24/3/16
f 9/5/17 10/9/19 26/10/20 25/6/18
f 10/9/19 11/13/21 27/14/22 26/10/20
f 11/131/21 12/132/23 28/133/24 27/134/22
f 12/132/23 13/25/25 29/26/26 28/133/24
f 13/25/25 14/21/27 30/22/28 29/26/26
f 14/21/27 15/15/29 31/18/30 30/22/28
f 15/15/29 16/16/31 32/17/32 31/18/30
f 16/16/31 1/19/1 17/20/4 32/17/32
s 2
f 2/29/33 1/30/34 51/31/35 52/32/36
f 3/37/37 2/29/33 52/32/36 53/38/38
f 4/44/39 3/37/37 53/38/38 54/45/40
f 5/50/41 4/44/39 54/45/40 55/51/42
f 6/56/43 5/50/41 55/51/42 56/57/44
f 7/62/45 6/56/43 56/57/44 57/63/46
f 8/68/47 7/62/45 57/63/46 58/69/48
f 9/74/49 8/68/47 58/69/48 59/75/50
f 10/70/51 9/74/49 59/75/50 60/71/52
f 11/64/53 10/70/51 60/71/52 61/65/54
f 12/58/55 11/64/53 61/65/54 62/59/56
f 13/52/57 12/58/55 62/59/56 63/53/58
f 14/46/59 13/52/57 63/53/58 64/47/60
f 15/39/61 14/46/59 64/47/60 49/40/62
f 16/33/63 15/39/61 49/40/62 50/34/64
f 1/30/34 16/33/63 50/34/64 51/31/35
s 3
f 17/78/65 18/79/66 38/80/67 39/81/68
f 18/79/66 19/82/69 37/83/70 38/80/67
f 19/82/69 20/88/71 36/89/72 37/83/70
f 20/88/71 21/95/73 35/96/74 36/89/72
f 21/95/73 22/101/75 34/102/76 35/96/74
f 22/101/75 23/107/77 33/108/78 34/102/76
f 23/107/77 24/113/79 48/114/80 33/108/78
f 24/113/79 25/119/81 47/120/82 48/114/80
f 25/119/81 26/123/83 46/124/84 47/120/82
f 26/123/83 27/117/85 45/118/86 46/124/84
f 27/117/85 28/111/87 44/112/88 45/118/86
f 28/111/87 29/105/89 43/106/90 44/112/88
f 29/105/89 30/99/91 42/100/92 43/106/90
f 30/99/91 31/93/93 41/94/94 42/100/92
f 31/93/93 32/86/95 40/87/96 41/94/94
f 32/86/95 17/78/65 39/81/68 40/87/96
s 4
f 66/109/97 65/115/98 67/91/99
f 68/103/100 66/109/97 67/91/99
f 69/97/101 68/103/100 67/91/99
f 70/90/102 69/97/101 67/91/99
f 71/84/103 70/90/102 67/91/99
f 72/85/104 71/84/103 67/91/99
f 73/92/105 72/85/104 67/91/99
f 74/98/106 73/92/105 67/91/99
f 75/104/107 74/98/106 67/91/99
f 76/110/108 75/104/107 67/91/99
f 77/116/109 76/110/108 67/91/99
f 78/122/110 77/116/109 67/91/99
f 79/126/111 78/122/110 67/91/99
f 80/125/112 79/126/111 67/91/99
f 81/121/113 80/125/112 67/91/99
f 65/115/98 81/121/113 67/91/99
s 5
f 83/41/114 82/48/115 84/42/116
f 85/35/117 83/41/114 84/42/116
f 86/36/118 85/35/117 84/42/116
f 87/43/119 86/36/118 84/42/116
f 88/49/120 87/43/119 84/42/116
f 89/55/121 88/49/120 84/42/116
f 90/61/122 89/55/121 84/42/116
f 91/67/123 90/61/122 84/42/116
f 92/73/124 91/67/123 84/42/116
f 93/77/125 92/73/124 84/42/116
f 94/76/126 93/77/125 84/42/116
f 95/72/127 94/76/126 84/42/116
f 96/66/128 95/72/127 84/42/116
f 97/60/129 96/66/128 84/42/116
f 98/54/130 97/60/129 84/42/116
f 82/48/115 98/54/130 84/42/116
s 6
f 34/102/131 33/108/132 65/115/133 66/109/134
f 35/96/135 34/102/131 66/109/134 68/103/136
f 36/89/137 35/96/135 68/103/136 69/97/138
f 37/83/139 36/89/137 69/97/138 70/90/140
f 38/80/141 37/83/139 70/90/140 71/84/142
f 39/81/143 38/80/141 71/84/142 72/85/144
f 40/87/145 39/81/143 72/85/144 73/92/146
f 41/94/147 40/87/145 73/92/146 74/98/148
f 42/100/149 41/94/147 74/98/148 75/104/150
f 43/106/151 42/100/149 75/104/150 76/110/152
f 44/112/153 43/106/151 76/110/152 77/116/154
f 45/118/155 44/112/153 77/116/154 78/122/156
f 46/124/157 45/118/155 78/122/156 79/126/158
f 47/120/159 46/124/157 79/126/158 80/125/160
f 48/114/161 47/120/159 80/125/160 81/121/162
f 33/108/132 48/114/161 81/121/162 65/115/133
s 7
f 50/34/163 49/40/164 82/48/165 83/41/166
f 51/31/167 50/34/163 83/41/166 85/35/168
f 52/32/169 51/31/167 85/35/168 86/36/170
f 53/38/171 52/32/169 86/36/170 87/43/172
f 54/45/173 53/38/171 87/43/172 88/49/174
f 55/51/175 54/45/173 88/49/174 89/55/176
f 56/57/177 55/51/175 89/55/176 90/61/178
f 57/63/179 56/57/177 90/61/178 91/67/180
f 58/69/181 57/63/179 91/67/180 92/73/182
f 59/75/183 58/69/181 92/73/182 93/77/184
f 60/71/185 59/75/183 93/77/184 94/76/186
f 61/65/187 60/71/185 94/76/186 95/72/188
f 62/59/189 61/65/187 95/72/188 96/66/190
f 63/53/191 62/59/189 96/66/190 97/60/192
f 64/47/193 63/53/191 97/60/192 98/54/194
f 49/40/164 64/47/193 98/54/194 82/48/165
