# This file uses centimeters as units for non-parametric coordinates.

mtllib RawMeat.mtl
g default
v 1.218329 -1.218559 -0.885168
v 0.465360 -1.218559 -1.432231
v -0.465360 -1.218559 -1.432231
v -1.218329 -1.218559 -0.885167
v -1.505937 -1.218559 0.000000
v -1.218329 -1.218559 0.885168
v -0.465360 -1.218559 1.432231
v 0.465360 -1.218559 1.432231
v 1.218328 -1.218559 0.885167
v 1.505937 -1.218559 0.000000
v 4.602599 -1.218559 -1.425507
v 3.734495 -1.218560 -2.711475
v 2.711475 -1.218560 -3.732026
v 1.423193 -1.218560 -4.392159
v -0.201798 -1.218560 -5.040425
v -1.806485 -1.218560 -5.194134
v -3.092453 -1.218560 -4.538899
v -3.933822 -1.218560 -3.138863
v -4.389572 -1.218560 -1.430407
v -4.613036 -1.218560 -0.000000
v -4.389127 -1.218560 1.430154
v -3.895007 -1.218560 3.116870
v -3.019173 -1.218560 4.497379
v -1.588489 -1.218560 4.792654
v -0.001869 -1.218560 4.617683
v 1.425506 -1.218560 4.387257
v 2.711474 -1.218560 3.732024
v 3.734493 -1.218560 2.711474
v 4.602596 -1.218560 1.425506
v 5.019579 -1.218560 -0.000000
v 2.169179 -1.218560 2.985619
v 2.987594 -1.218559 2.169179
v 3.682077 -1.218559 1.140405
v 4.015663 -1.218559 0.000000
v 3.682080 -1.218559 -1.140406
v 2.987596 -1.218559 -2.169180
v 2.169180 -1.218559 -2.985621
v 1.138555 -1.218559 -3.513727
v -0.161438 -1.218559 -4.032340
v -1.445188 -1.218559 -4.155307
v -2.473962 -1.218559 -3.631120
v -3.147058 -1.218559 -2.511090
v -3.511657 -1.218559 -1.144325
v -3.690429 -1.218559 0.000000
v -3.511301 -1.218559 1.144124
v -3.116006 -1.218559 2.493496
v -2.415339 -1.218559 3.597903
v -1.270792 -1.218559 3.834123
v -0.001495 -1.218559 3.694147
v 1.140405 -1.218559 3.509806
v 1.218329 1.218559 -0.885168
v 0.465360 1.218558 -1.432231
v -0.465360 1.218558 -1.432231
v -1.218329 1.218558 -0.885167
v -1.505937 1.218558 0.000000
v -1.218329 1.218558 0.885168
v -0.465360 1.218558 1.432231
v 0.465360 1.218558 1.432231
v 1.218328 1.218558 0.885167
v 1.505937 1.218558 -0.000000
v 4.602599 1.218558 -1.425507
v 3.734495 1.218558 -2.711475
v 2.711475 1.218558 -3.732026
v 1.423193 1.218558 -4.392159
v -0.201798 1.218558 -5.040425
v -1.806485 1.218558 -5.194134
v -3.092453 1.218558 -4.538899
v -3.933822 1.218558 -3.138863
v -4.389572 1.218558 -1.430407
v -4.613036 1.218558 -0.000000
v -4.389127 1.218558 1.430154
v -3.895007 1.218558 3.116870
v -3.019173 1.218558 4.497379
v -1.588489 1.218558 4.792654
v -0.001869 1.218558 4.617683
v 1.425506 1.218558 4.387257
v 2.711474 1.218558 3.732024
v 3.734493 1.218558 2.711474
v 4.602596 1.218558 1.425506
v 5.019579 1.218558 -0.000000
v 2.169179 1.218558 2.985619
v 2.987594 1.218558 2.169179
v 3.682077 1.218558 1.140405
v 4.015663 1.218558 -0.000000
v 3.682080 1.218558 -1.140406
v 2.987596 1.218558 -2.169180
v 2.169180 1.218558 -2.985621
v 1.138555 1.218558 -3.513727
v -0.161438 1.218558 -4.032340
v -1.445188 1.218558 -4.155307
v -2.473962 1.218558 -3.631120
v -3.147058 1.218558 -2.511090
v -3.511657 1.218558 -1.144325
v -3.690429 1.218558 -0.000000
v -3.511301 1.218558 1.144124
v -3.116006 1.218558 2.493496
v -2.415339 1.218558 3.597903
v -1.270792 1.218558 3.834123
v -0.001495 1.218558 3.694147
v 1.140405 1.218558 3.509806
v 1.218329 -1.406187 -0.885168
v 0.000000 -1.406187 -0.000000
v 0.465360 -1.406186 -1.432231
v -0.465360 -1.406186 -1.432231
v -1.218329 -1.406186 -0.885167
v -1.505937 -1.406186 0.000000
v -1.218329 -1.406186 0.885168
v -0.465360 -1.406186 1.432231
v 0.465360 -1.406186 1.432231
v 1.218328 -1.406186 0.885167
v 1.505937 -1.406186 0.000000
v 1.218329 1.406186 -0.885168
v 0.465360 1.406186 -1.432231
v 0.000000 1.406186 0.000000
v -0.465360 1.406186 -1.432231
v -1.218329 1.406186 -0.885167
v -1.505937 1.406186 0.000000
v -1.218329 1.406186 0.885168
v -0.465360 1.406186 1.432231
v 0.465360 1.406186 1.432231
v 1.218328 1.406186 0.885167
v 1.505937 1.406186 0.000000
vt 1.647072 0.928665
vt 1.718071 0.869071
vt 1.695660 0.959015
vt 1.752808 0.955010
vt 1.796687 0.918180
vt 1.810538 0.862592
vt 1.789069 0.809479
vt 1.740482 0.779128
vt 1.683334 0.783133
vt 1.639455 0.819963
vt 1.625604 0.875552
vt 0.565456 0.061816
vt 1.522869 0.358052
vt 1.581871 0.414825
vt 0.633650 0.061816
vt 1.631938 0.486362
vt 0.706871 0.061816
vt 1.655987 0.565661
vt 0.967242 0.078276
vt 1.631938 0.644961
vt 0.967242 0.150131
vt 1.581871 0.716498
vt 0.967242 0.225195
vt 1.522869 0.773270
vt 0.967242 0.295105
vt 1.448568 0.809993
vt 0.967242 0.365137
vt 1.354847 0.846055
vt 0.967242 0.449779
vt 1.262298 0.854606
vt 0.967242 0.527768
vt 1.188131 0.818156
vt 0.967242 0.597593
vt 1.139605 0.740273
vt 0.967242 0.676617
vt 1.113320 0.645234
vt 0.967242 0.762161
vt 1.100432 0.565661
vt 0.056428 0.061816
vt 1.113346 0.486103
vt 0.124743 0.061816
vt 1.141844 0.392273
vt 0.207688 0.061816
vt 1.192357 0.315476
vt 0.284842 0.061816
vt 1.274871 0.299051
vt 0.353782 0.061816
vt 1.366378 0.308784
vt 0.429112 0.061816
vt 1.448701 0.321602
vt 0.497345 0.061816
vt 1.806426 0.924151
vt 1.692990 0.970123
vt 1.638384 0.936082
vt 1.614215 0.876445
vt 1.629716 0.813991
vt 1.678965 0.772577
vt 1.743152 0.768020
vt 1.797759 0.802062
vt 1.821927 0.861699
vt 1.757177 0.965566
vt 0.625604 0.875553
vt 0.639454 0.819964
vt 0.718071 0.869071
vt 0.683333 0.783133
vt 0.740482 0.779128
vt 0.789069 0.809479
vt 0.810537 0.862592
vt 0.796686 0.918180
vt 0.752807 0.955010
vt 0.695660 0.959015
vt 0.647073 0.928665
vt 0.635717 0.754207
vt 0.698301 0.664786
vt 0.561965 0.825173
vt 0.469088 0.871076
vt 0.351938 0.916154
vt 0.236251 0.926842
vt 0.143542 0.881280
vt 0.082885 0.783926
vt 0.050028 0.665126
vt 0.033918 0.565661
vt 0.050061 0.466214
vt 0.085683 0.348926
vt 0.148825 0.252930
vt 0.251967 0.232398
vt 0.366351 0.244565
vt 0.469255 0.260588
vt 0.561964 0.306150
vt 0.635717 0.377115
vt 0.698301 0.466537
vt 0.728363 0.565661
vt 0.581871 0.414825
vt 0.522869 0.358052
vt 0.631938 0.486362
vt 0.655987 0.565661
vt 0.631938 0.644961
vt 0.581871 0.716498
vt 0.522869 0.773270
vt 0.448568 0.809993
vt 0.354847 0.846055
vt 0.262298 0.854606
vt 0.188131 0.818156
vt 0.139605 0.740273
vt 0.113320 0.645233
vt 0.100432 0.565661
vt 0.113346 0.486103
vt 0.141844 0.392273
vt 0.192357 0.315476
vt 0.274871 0.299051
vt 0.366378 0.308784
vt 0.448701 0.321602
vt 0.743152 0.768020
vt 0.629715 0.813993
vt 0.614215 0.876446
vt 0.638384 0.936082
vt 0.692990 0.970123
vt 0.757176 0.965566
vt 0.806425 0.924152
vt 0.821927 0.861699
vt 0.797759 0.802062
vt 0.678964 0.772577
vt 0.849335 0.078276
vt 0.849335 0.150131
vt 0.706871 0.176828
vt 0.633650 0.176828
vt 0.565456 0.176828
vt 0.497345 0.176828
vt 0.429112 0.176828
vt 0.353782 0.176828
vt 0.284842 0.176828
vt 0.207688 0.176828
vt 0.124743 0.176828
vt 0.056428 0.176828
vt 0.849335 0.762161
vt 0.849335 0.676617
vt 0.849335 0.597593
vt 0.849335 0.527768
vt 0.849335 0.449779
vt 0.849335 0.365137
vt 0.849335 0.295105
vt 0.849335 0.225195
vt 1.728363 0.565661
vt 1.698301 0.664786
vt 1.698301 0.466537
vt 1.635717 0.377115
vt 1.561964 0.306150
vt 1.469255 0.260588
vt 1.366351 0.244565
vt 1.251967 0.232398
vt 1.148825 0.252930
vt 1.085683 0.348926
vt 1.050061 0.466214
vt 1.033918 0.565661
vt 1.050028 0.665126
vt 1.082885 0.783926
vt 1.143542 0.881280
vt 1.236251 0.926842
vt 1.351938 0.916154
vt 1.469088 0.871076
vt 1.561965 0.825173
vt 1.635717 0.754207
vt 0.475054 0.565661
vt 0.454319 0.627213
vt 0.332937 0.466069
vt 0.278653 0.504110
vt 0.257918 0.565661
vt 0.278653 0.627213
vt 0.332937 0.665253
vt 0.400035 0.665253
vt 0.454319 0.504110
vt 0.400035 0.466069
vt 1.475054 0.565661
vt 1.454319 0.627213
vt 1.454319 0.504110
vt 1.400035 0.466069
vt 1.332937 0.466069
vt 1.278653 0.504110
vt 1.257918 0.565661
vt 1.278653 0.627213
vt 1.332937 0.665253
vt 1.400035 0.665253
vt 0.776962 0.061816
vt 0.776962 0.176828
vt 0.967242 0.832203
vt 0.849335 0.832203
vn 0.240591 -0.954757 -0.174800
vn -0.000000 -1.000000 0.000000
vn 0.091897 -0.954757 -0.282832
vn -0.091898 -0.954757 -0.282831
vn -0.240591 -0.954757 -0.174799
vn -0.297387 -0.954757 0.000000
vn -0.240591 -0.954757 0.174799
vn -0.091898 -0.954757 0.282831
vn 0.091898 -0.954757 0.282832
vn 0.240591 -0.954757 0.174800
vn 0.297387 -0.954757 0.000000
vn 0.561545 -0.293279 0.773728
vn -0.000000 -1.000000 -0.000000
vn 0.000000 -1.000000 -0.000000
vn 0.736526 -0.304727 0.603880
vn -0.000000 -1.000000 -0.000000
vn 0.861253 -0.302700 0.408186
vn -0.000000 -1.000000 -0.000000
vn 0.956881 -0.290480 0.000001
vn 0.000000 -1.000000 -0.000000
vn 0.861254 -0.302700 -0.408185
vn -0.000000 -1.000000 0.000000
vn 0.736526 -0.304727 -0.603880
vn -0.000000 -1.000000 0.000000
vn 0.562211 -0.293496 -0.773161
vn -0.000000 -1.000000 0.000000
vn 0.388909 -0.314477 -0.865941
vn -0.000000 -1.000000 0.000000
vn 0.229171 -0.309389 -0.922908
vn 0.000000 -1.000000 0.000000
vn -0.162429 -0.311689 -0.936198
vn 0.000000 -1.000000 0.000000
vn -0.660206 -0.311694 -0.683356
vn 0.000000 -1.000000 0.000000
vn -0.877557 -0.309513 -0.366189
vn 0.000000 -1.000000 0.000000
vn -0.928082 -0.313579 -0.200826
vn 0.000000 -1.000000 0.000000
vn -0.955949 -0.293533 0.000149
vn 0.000000 -1.000000 -0.000000
vn -0.926023 -0.311406 0.213326
vn 0.000000 -1.000000 -0.000000
vn -0.868428 -0.308843 0.387877
vn 0.000000 -1.000000 -0.000000
vn -0.563371 -0.285215 0.775413
vn 0.000000 -1.000000 -0.000000
vn -0.037915 -0.307037 0.950942
vn -0.000000 -1.000000 -0.000000
vn 0.126433 -0.316904 0.939993
vn -0.000000 -1.000000 -0.000000
vn 0.296637 -0.293446 0.908788
vn -0.084016 -0.994593 -0.061041
vn 0.035287 -0.993459 -0.108601
vn 0.096844 -0.992810 -0.070361
vn 0.114110 -0.993468 -0.000000
vn 0.096844 -0.992810 0.070361
vn 0.038392 -0.992252 0.118159
vn -0.033452 -0.994124 0.102953
vn -0.084898 -0.994479 0.061682
vn -0.124111 -0.992268 0.000000
vn -0.030835 -0.995009 -0.094900
vn 0.240591 0.954757 -0.174800
vn 0.091898 0.954757 -0.282832
vn 0.000000 1.000000 -0.000000
vn -0.091898 0.954757 -0.282832
vn -0.240591 0.954757 -0.174800
vn -0.297387 0.954757 0.000000
vn -0.240591 0.954757 0.174800
vn -0.091898 0.954757 0.282832
vn 0.091898 0.954757 0.282832
vn 0.240591 0.954757 0.174800
vn 0.297387 0.954757 -0.000000
vn 0.736526 0.304727 -0.603880
vn 0.861254 0.302700 -0.408185
vn 0.562211 0.293496 -0.773162
vn 0.388909 0.314477 -0.865941
vn 0.229171 0.309389 -0.922908
vn -0.162429 0.311689 -0.936198
vn -0.660206 0.311694 -0.683356
vn -0.877557 0.309513 -0.366189
vn -0.928082 0.313579 -0.200826
vn -0.955949 0.293533 0.000149
vn -0.926023 0.311406 0.213326
vn -0.868428 0.308843 0.387877
vn -0.563371 0.285215 0.775413
vn -0.037915 0.307037 0.950942
vn 0.126433 0.316904 0.939993
vn 0.296637 0.293446 0.908788
vn 0.561545 0.293279 0.773728
vn 0.736526 0.304727 0.603880
vn 0.861253 0.302700 0.408186
vn 0.956881 0.290480 0.000001
vn 0.000000 1.000000 0.000000
vn 0.000000 1.000000 0.000000
vn 0.000000 1.000000 0.000000
vn 0.000000 1.000000 0.000000
vn 0.000000 1.000000 0.000000
vn 0.000000 1.000000 -0.000000
vn 0.000000 1.000000 -0.000000
vn 0.000000 1.000000 0.000000
vn 0.000000 1.000000 -0.000000
vn 0.000000 1.000000 0.000000
vn 0.000000 1.000000 0.000000
vn 0.000000 1.000000 -0.000000
vn 0.000000 1.000000 0.000000
vn 0.000000 1.000000 0.000000
vn 0.000000 1.000000 -0.000000
vn 0.000000 1.000000 -0.000000
vn 0.000000 1.000000 0.000000
vn 0.000000 1.000000 0.000000
vn 0.000000 1.000000 -0.000000
vn 0.000000 1.000000 0.000000
vn -0.084016 0.994593 -0.061041
vn 0.035286 0.993459 -0.108601
vn 0.096844 0.992810 -0.070361
vn 0.114110 0.993468 0.000000
vn 0.096844 0.992809 0.070361
vn 0.038392 0.992252 0.118159
vn -0.033452 0.994124 0.102954
vn -0.084898 0.994479 0.061682
vn -0.124111 0.992268 0.000000
vn -0.030835 0.995009 -0.094900
s 1
g Raw_Meat
usemtl initialShadingGroup
f 101/1/1 102/2/2 103/3/3
f 103/3/3 102/2/2 104/4/4
f 104/4/4 102/2/2 105/5/5
f 105/5/5 102/2/2 106/6/6
f 106/6/6 102/2/2 107/7/7
f 107/7/7 102/2/2 108/8/8
f 108/8/8 102/2/2 109/9/9
f 109/9/9 102/2/2 110/10/10
f 110/10/10 102/2/2 111/11/11
f 111/11/11 102/2/2 101/1/1
f 27/147/12 31/13/13 32/14/14 28/146/15
f 28/146/15 32/14/14 33/16/16 29/145/17
f 29/145/17 33/16/16 34/18/18 30/143/19
f 30/143/19 34/18/18 35/20/20 11/144/21
f 11/144/21 35/20/20 36/22/22 12/162/23
f 12/162/23 36/22/22 37/24/24 13/161/25
f 13/161/25 37/24/24 38/26/26 14/160/27
f 14/160/27 38/26/26 39/28/28 15/159/29
f 15/159/29 39/28/28 40/30/30 16/158/31
f 16/158/31 40/30/30 41/32/32 17/157/33
f 17/157/33 41/32/32 42/34/34 18/156/35
f 18/156/35 42/34/34 43/36/36 19/155/37
f 19/155/37 43/36/36 44/38/38 20/154/39
f 20/154/39 44/38/38 45/40/40 21/153/41
f 21/153/41 45/40/40 46/42/42 22/152/43
f 22/152/43 46/42/42 47/44/44 23/151/45
f 23/151/45 47/44/44 48/46/46 24/150/47
f 24/150/47 48/46/46 49/48/48 25/149/49
f 25/149/49 49/48/48 50/50/50 26/148/51
f 26/148/51 50/50/50 31/13/13 27/147/12
f 4/180/52 42/34/34 41/32/32
f 39/28/28 38/26/26 2/182/53
f 2/182/53 38/26/26 37/24/24
f 1/174/54 36/22/22 35/20/20
f 10/173/55 34/18/18 33/16/16
f 9/175/56 32/14/14 31/13/13
f 8/176/57 50/50/50 49/48/48
f 7/177/58 48/46/46 47/44/44
f 6/178/59 46/42/42 45/40/40
f 5/179/60 44/38/38 43/36/36
f 3/181/61 40/30/30 39/28/28
f 3/181/61 39/28/28 2/182/53
f 37/24/24 36/22/22 1/174/54
f 2/182/53 37/24/24 1/174/54
f 35/20/20 34/18/18 10/173/55
f 1/174/54 35/20/20 10/173/55
f 33/16/16 32/14/14 9/175/56
f 10/173/55 33/16/16 9/175/56
f 31/13/13 50/50/50 8/176/57
f 9/175/56 31/13/13 8/176/57
f 8/176/57 49/48/48 7/177/58
f 49/48/48 48/46/46 7/177/58
f 47/44/44 46/42/42 6/178/59
f 7/177/58 47/44/44 6/178/59
f 6/178/59 45/40/40 5/179/60
f 45/40/40 44/38/38 5/179/60
f 5/179/60 43/36/36 4/180/52
f 43/36/36 42/34/34 4/180/52
f 4/180/52 41/32/32 3/181/61
f 41/32/32 40/30/30 3/181/61
f 112/62/62 113/63/63 114/64/64
f 113/63/63 115/65/65 114/64/64
f 115/65/65 116/66/66 114/64/64
f 116/66/66 117/67/67 114/64/64
f 117/67/67 118/68/68 114/64/64
f 118/68/68 119/69/69 114/64/64
f 119/69/69 120/70/70 114/64/64
f 120/70/70 121/71/71 114/64/64
f 121/71/71 122/72/72 114/64/64
f 122/72/72 112/62/62 114/64/64
f 11/21/21 12/23/23 62/142/73 61/124/74
f 12/23/23 13/25/25 63/141/75 62/142/73
f 13/25/25 14/27/27 64/140/76 63/141/75
f 14/27/27 15/29/29 65/139/77 64/140/76
f 15/29/29 16/31/31 66/138/78 65/139/77
f 16/31/31 17/33/33 67/137/79 66/138/78
f 17/33/33 18/35/35 68/136/80 67/137/79
f 18/35/35 19/37/37 69/135/81 68/136/80
f 19/37/37 20/185/39 70/186/82 69/135/81
f 20/39/39 21/41/41 71/133/83 70/134/82
f 21/41/41 22/43/43 72/132/84 71/133/83
f 22/43/43 23/45/45 73/131/85 72/132/84
f 23/45/45 24/47/47 74/130/86 73/131/85
f 24/47/47 25/49/49 75/129/87 74/130/86
f 25/49/49 26/51/51 76/128/88 75/129/87
f 26/51/51 27/12/12 77/127/89 76/128/88
f 27/12/12 28/15/15 78/126/90 77/127/89
f 28/15/15 29/17/17 79/125/91 78/126/90
f 29/17/17 30/183/19 80/184/92 79/125/91
f 30/19/19 11/21/21 61/124/74 80/123/92
f 77/89/89 78/90/90 82/93/93 81/94/94
f 78/90/90 79/91/91 83/95/95 82/93/93
f 79/91/91 80/92/92 84/96/96 83/95/95
f 80/92/92 61/74/74 85/97/97 84/96/96
f 61/74/74 62/73/73 86/98/98 85/97/97
f 62/73/73 63/75/75 87/99/99 86/98/98
f 63/75/75 64/76/76 88/100/100 87/99/99
f 64/76/76 65/77/77 89/101/101 88/100/100
f 65/77/77 66/78/78 90/102/102 89/101/101
f 66/78/78 67/79/79 91/103/103 90/102/102
f 67/79/79 68/80/80 92/104/104 91/103/103
f 68/80/80 69/81/81 93/105/105 92/104/104
f 69/81/81 70/82/82 94/106/106 93/105/105
f 70/82/82 71/83/83 95/107/107 94/106/106
f 71/83/83 72/84/84 96/108/108 95/107/107
f 72/84/84 73/85/85 97/109/109 96/108/108
f 73/85/85 74/86/86 98/110/110 97/109/109
f 74/86/86 75/87/87 99/111/111 98/110/110
f 75/87/87 76/88/88 100/112/112 99/111/111
f 76/88/88 77/89/89 81/94/94 100/112/112
f 54/168/113 91/103/103 92/104/104
f 89/101/101 52/170/114 88/100/100
f 52/170/114 87/99/99 88/100/100
f 51/164/115 85/97/97 86/98/98
f 60/163/116 83/95/95 84/96/96
f 59/171/117 81/94/94 82/93/93
f 58/172/118 99/111/111 100/112/112
f 57/165/119 97/109/109 98/110/110
f 56/166/120 95/107/107 96/108/108
f 55/167/121 93/105/105 94/106/106
f 53/169/122 89/101/101 90/102/102
f 53/169/122 52/170/114 89/101/101
f 87/99/99 51/164/115 86/98/98
f 52/170/114 51/164/115 87/99/99
f 85/97/97 60/163/116 84/96/96
f 51/164/115 60/163/116 85/97/97
f 83/95/95 59/171/117 82/93/93
f 60/163/116 59/171/117 83/95/95
f 81/94/94 58/172/118 100/112/112
f 59/171/117 58/172/118 81/94/94
f 58/172/118 57/165/119 99/111/111
f 99/111/111 57/165/119 98/110/110
f 97/109/109 56/166/120 96/108/108
f 57/165/119 56/166/120 97/109/109
f 56/166/120 55/167/121 95/107/107
f 95/107/107 55/167/121 94/106/106
f 55/167/121 54/168/113 93/105/105
f 93/105/105 54/168/113 92/104/104
f 54/168/113 53/169/122 91/103/103
f 91/103/103 53/169/122 90/102/102
f 2/53/53 1/54/54 101/1/1 103/3/3
f 3/61/61 2/53/53 103/3/3 104/4/4
f 4/52/52 3/61/61 104/4/4 105/5/5
f 5/60/60 4/52/52 105/5/5 106/6/6
f 6/59/59 5/60/60 106/6/6 107/7/7
f 7/58/58 6/59/59 107/7/7 108/8/8
f 8/57/57 7/58/58 108/8/8 109/9/9
f 9/56/56 8/57/57 109/9/9 110/10/10
f 10/55/55 9/56/56 110/10/10 111/11/11
f 1/54/54 10/55/55 111/11/11 101/1/1
f 51/115/115 52/114/114 113/63/63 112/62/62
f 52/114/114 53/122/122 115/65/65 113/63/63
f 53/122/122 54/113/113 116/66/66 115/65/65
f 54/113/113 55/121/121 117/67/67 116/66/66
f 55/121/121 56/120/120 118/68/68 117/67/67
f 56/120/120 57/119/119 119/69/69 118/68/68
f 57/119/119 58/118/118 120/70/70 119/69/69
f 58/118/118 59/117/117 121/71/71 120/70/70
f 59/117/117 60/116/116 122/72/72 121/71/71
f 60/116/116 51/115/115 112/62/62 122/72/72
