# This file uses centimeters as units for non-parametric coordinates.

mtllib Book.mtl
g default
v -0.240036 0.000000 -2.000000
v -0.494569 0.000000 -1.894569
v -0.600000 0.000000 -1.640036
v -0.240036 -4.000000 -2.000000
v -0.600000 -4.000000 -1.640036
v -0.494569 -4.000000 -1.894569
v 0.240036 0.000000 -2.000000
v 0.600000 0.000000 -1.640036
v 0.494569 0.000000 -1.894569
v 0.240036 -4.000000 -2.000000
v 0.494569 -4.000000 -1.894569
v 0.600000 -4.000000 -1.640036
v -0.420833 0.000000 -1.604397
v 0.420833 0.000000 -1.604397
v -0.204397 0.000000 -1.820833
v 0.204397 0.000000 -1.820833
v -0.204397 -4.000000 -1.820833
v 0.204397 -4.000000 -1.820833
v -0.420833 -4.000000 -1.604397
v 0.420833 -4.000000 -1.604397
v -0.372891 0.000000 -1.772891
v -0.372891 -4.000000 -1.772891
v 0.372891 0.000000 -1.772891
v 0.372891 -4.000000 -1.772891
v -0.420833 -0.157260 -1.604397
v 0.420833 -0.157260 -1.604397
v -0.204397 -0.157260 -1.820833
v 0.204397 -0.157260 -1.820833
v -0.204397 -3.842740 -1.820833
v 0.204397 -3.842740 -1.820833
v -0.420833 -3.842740 -1.604397
v 0.420833 -3.842740 -1.604397
v -0.372891 -0.157260 -1.772891
v -0.372891 -3.842740 -1.772891
v 0.372891 -0.157260 -1.772891
v 0.372891 -3.842740 -1.772891
v 0.414453 -3.842740 1.890218
v -0.414453 -3.842740 1.890218
v -0.414453 -0.157260 1.890218
v 0.414453 -0.157260 1.890218
v -0.600000 -4.000000 -1.278744
v -0.600000 0.000000 -1.278744
v 0.600000 -4.000000 -1.278744
v 0.600000 0.000000 -1.278744
v -0.600000 -4.000000 -1.459390
v -0.600000 0.000000 -1.459390
v 0.600000 -4.000000 -1.459390
v 0.600000 0.000000 -1.459390
v 0.000000 0.000000 -2.000000
v 0.000000 0.000000 -1.820833
v 0.000000 -0.157260 -1.820833
v 0.000000 -3.842740 -1.820833
v 0.000000 -4.000000 -1.820833
v 0.000000 -4.000000 -2.000000
v -0.562517 -4.000000 -1.369067
v -0.562517 0.000000 -1.369067
v 0.562517 -4.000000 -1.369067
v 0.562517 0.000000 -1.369067
v 0.420371 -3.999976 -1.369080
v -0.420371 -3.999976 -1.369067
v -0.420371 -0.000047 -1.369068
v 0.420371 -0.000047 -1.369068
v -0.600000 0.000000 1.752010
v -0.600000 -0.234429 1.986440
v -0.600000 -0.117215 1.955032
v -0.600000 -0.031408 1.869225
v -0.414386 -0.141592 1.899935
v -0.414245 -0.000674 1.752892
v -0.414015 -0.032100 1.870100
v -0.413847 -0.117914 1.955898
v -0.413785 -0.235127 1.987301
v -0.600000 -4.000334 1.751997
v -0.600000 -3.968937 1.869217
v -0.600000 -3.883134 1.955030
v -0.600000 -3.765918 1.986440
v -0.414245 -3.999663 1.752880
v -0.414385 -3.858679 1.900080
v -0.413785 -3.765222 1.987301
v -0.413847 -3.882436 1.955895
v -0.414015 -3.968246 1.870092
v 0.600000 0.000000 1.752010
v 0.600000 -0.031408 1.869225
v 0.600000 -0.117215 1.955032
v 0.600000 -0.234429 1.986440
v 0.414245 -0.000674 1.752892
v 0.414386 -0.141592 1.899935
v 0.413785 -0.235127 1.987301
v 0.413847 -0.117914 1.955898
v 0.414015 -0.032100 1.870100
v 0.600000 -4.000334 1.751997
v 0.600000 -3.765918 1.986440
v 0.600000 -3.883134 1.955030
v 0.600000 -3.968937 1.869217
v 0.414385 -3.858679 1.900080
v 0.414245 -3.999663 1.752880
v 0.414015 -3.968246 1.870092
v 0.413847 -3.882436 1.955895
v 0.413785 -3.765222 1.987301
vt 0.365131 0.654189
vt 0.648331 0.365536
vt 0.664202 0.382717
vt 0.381740 0.668566
vt 0.591598 0.315130
vt 0.315005 0.602137
vt 0.302575 0.591147
vt 0.579345 0.303105
vt 0.610188 0.333572
vt 0.333629 0.619073
vt 0.630548 0.350557
vt 0.350328 0.637699
vt 0.681932 0.402198
vt 0.400713 0.685038
vt 0.701319 0.420200
vt 0.417895 0.703135
vt 0.603826 0.301064
vt 0.721725 0.437625
vt 0.714075 0.432025
vt 0.660367 0.353133
vt 0.678765 0.372319
vt 0.353169 0.666686
vt 0.371691 0.683275
vt 0.295093 0.586069
vt 0.429273 0.715082
vt 0.434626 0.722356
vt 0.404112 0.715650
vt 0.621182 0.319999
vt 0.321343 0.631244
vt 0.640288 0.335657
vt 0.336264 0.648437
vt 0.695078 0.390498
vt 0.389136 0.698062
vt 0.613957 0.289513
vt 0.670884 0.342113
vt 0.690768 0.362080
vt 0.342703 0.677782
vt 0.361892 0.695471
vt 0.393892 0.727116
vt 0.631581 0.307551
vt 0.309241 0.642321
vt 0.649995 0.323416
vt 0.324524 0.658895
vt 0.707910 0.379940
vt 0.378538 0.710344
vt 0.342973 0.055577
vt 0.585226 0.284546
vt 0.340692 0.056999
vt 0.303947 0.616474
vt 0.292099 0.627838
vt 0.041417 0.371511
vt 0.047605 0.340253
vt 0.047228 0.336418
vt 0.303604 0.068194
vt 0.713890 0.406659
vt 0.727877 0.396496
vt 0.955164 0.666228
vt 0.422465 0.733240
vt 0.664563 0.971515
vt 0.662239 0.972922
vt 0.948460 0.695413
vt 0.948748 0.699077
vt 0.701056 0.960545
vt 0.573530 0.295808
vt 0.565784 0.290580
vt 0.289578 0.578789
vt 0.284580 0.598641
vt 0.727250 0.445356
vt 0.733533 0.426187
vt 0.441893 0.727646
vt 0.342139 0.094899
vt 0.300817 0.082617
vt 0.077596 0.341315
vt 0.065848 0.381037
vt 0.919007 0.692745
vt 0.931623 0.656085
vt 0.663951 0.933483
vt 0.703814 0.946225
vt 0.349235 0.079181
vt 0.308037 0.069179
vt 0.311223 0.096500
vt 0.079778 0.372348
vt 0.061553 0.333590
vt 0.044199 0.368225
vt 0.934717 0.701332
vt 0.952382 0.669170
vt 0.916481 0.663193
vt 0.693788 0.932043
vt 0.656367 0.948944
vt 0.696698 0.959527
vt 0.320831 0.090925
vt 0.332137 0.090216
vt 0.334640 0.071428
vt 0.313612 0.075276
vt 0.073961 0.362808
vt 0.073136 0.351488
vt 0.052608 0.351992
vt 0.058218 0.368791
vt 0.921971 0.672667
vt 0.923266 0.683436
vt 0.943728 0.684047
vt 0.938463 0.667919
vt 0.684501 0.938063
vt 0.673949 0.938889
vt 0.670768 0.957166
vt 0.691331 0.953430
vn 0.000000 0.000000 -1.000000
vn 0.000000 0.000000 -1.000000
vn 0.000000 0.000000 -1.000000
vn 0.000000 0.000000 -1.000000
vn -0.971884 0.000000 -0.235459
vn -0.971884 0.000000 -0.235459
vn -0.990568 0.000000 0.137025
vn -0.990568 0.000000 0.137025
vn -0.971884 0.000000 -0.235459
vn -0.923880 0.000000 -0.382683
vn -0.923880 0.000000 -0.382683
vn -0.971884 0.000000 -0.235459
vn -0.382683 0.000000 -0.923880
vn -0.208493 0.000000 -0.978024
vn -0.208493 0.000000 -0.978024
vn -0.382683 0.000000 -0.923880
vn 0.208493 0.000000 -0.978024
vn 0.382683 0.000000 -0.923880
vn 0.382683 0.000000 -0.923880
vn 0.208493 0.000000 -0.978024
vn 0.923880 0.000000 -0.382683
vn 0.971884 0.000000 -0.235459
vn 0.971884 0.000000 -0.235459
vn 0.923880 0.000000 -0.382683
vn 0.000068 1.000000 0.000041
vn 0.000127 1.000000 0.000077
vn 0.001975 0.999998 0.000099
vn 0.001975 0.999998 0.000099
vn 0.000070 1.000000 0.000042
vn -0.001975 0.999998 0.000099
vn -0.001975 0.999998 0.000099
vn -0.000127 1.000000 0.000077
vn -0.000068 1.000000 0.000041
vn -0.000070 1.000000 0.000042
vn 0.000000 1.000000 0.000000
vn 0.000000 1.000000 0.000000
vn 0.000000 1.000000 0.000000
vn 0.000000 1.000000 0.000000
vn 0.000000 -1.000000 0.000000
vn 0.000000 -1.000000 0.000000
vn 0.000000 -1.000000 0.000000
vn 0.000000 -1.000000 0.000000
vn 0.001885 -0.999998 -0.000002
vn 0.001884 -0.999998 -0.000002
vn 0.000064 -1.000000 0.000038
vn 0.000034 -1.000000 0.000020
vn 0.000035 -1.000000 0.000021
vn -0.000034 -1.000000 0.000020
vn -0.000064 -1.000000 0.000038
vn -0.001884 -0.999998 -0.000002
vn -0.001885 -0.999998 -0.000002
vn -0.000035 -1.000000 0.000021
vn 0.000000 1.000000 0.000000
vn 0.000068 1.000000 0.000041
vn 0.000070 1.000000 0.000042
vn 0.000000 1.000000 0.000000
vn 0.000034 -1.000000 0.000020
vn 0.000000 -1.000000 0.000000
vn 0.000000 -1.000000 0.000000
vn 0.000035 -1.000000 0.000021
vn 0.000000 1.000000 0.000000
vn 0.000000 1.000000 0.000000
vn 0.000000 1.000000 0.000000
vn 0.000000 1.000000 0.000000
vn 0.000000 -1.000000 0.000000
vn 0.000000 -1.000000 0.000000
vn 0.000000 -1.000000 0.000000
vn 0.000000 -1.000000 0.000000
vn 0.000000 1.000000 0.000000
vn 0.000000 1.000000 0.000000
vn 0.000000 1.000000 0.000000
vn 0.000000 1.000000 0.000000
vn 0.000000 -1.000000 0.000000
vn 0.000000 -1.000000 0.000000
vn 0.000000 -1.000000 0.000000
vn 0.000000 -1.000000 0.000000
vn -0.000068 1.000000 0.000041
vn 0.000000 1.000000 0.000000
vn 0.000000 1.000000 0.000000
vn -0.000070 1.000000 0.000042
vn 0.000000 -1.000000 0.000000
vn -0.000034 -1.000000 0.000020
vn -0.000035 -1.000000 0.000021
vn 0.000000 -1.000000 0.000000
vn -0.004592 0.008559 0.999953
vn -0.004592 0.008653 0.999952
vn -0.004592 -0.008653 0.999952
vn -0.004592 -0.008560 0.999953
vn 0.004592 0.008653 0.999952
vn 0.004592 0.008559 0.999953
vn 0.004592 -0.008560 0.999953
vn 0.004592 -0.008653 0.999952
vn 0.999997 -0.001541 -0.001895
vn 0.999937 -0.001471 0.011135
vn 0.999937 -0.001471 0.011137
vn 0.999997 -0.001541 -0.001895
vn 0.999997 -0.001503 -0.001896
vn 0.999993 -0.001037 -0.003539
vn -0.127517 0.000000 0.991836
vn 0.000000 0.000000 1.000000
vn 0.000000 0.000000 1.000000
vn -0.127517 0.000000 0.991836
vn 0.000000 0.000000 1.000000
vn 0.000000 0.000000 1.000000
vn -0.127517 0.000000 0.991836
vn -0.127517 0.000000 0.991836
vn -0.999937 0.001470 0.011121
vn -0.999937 0.001470 0.011122
vn -0.999997 0.001540 -0.001895
vn -0.999997 0.001502 -0.001896
vn -0.999993 0.001036 -0.003536
vn -0.999997 0.001540 -0.001895
vn 0.961824 0.000000 0.273667
vn 0.999937 -0.001471 0.011137
vn 0.999937 -0.001471 0.011135
vn 0.961824 0.000000 0.273667
vn 0.999937 0.001469 0.011122
vn 0.961824 0.000000 0.273668
vn 0.961824 0.000000 0.273668
vn 0.999937 0.001469 0.011121
vn 0.127517 0.000000 0.991836
vn 0.273667 0.000000 0.961824
vn 0.273667 0.000000 0.961824
vn 0.127517 0.000000 0.991836
vn 0.273667 0.000000 0.961824
vn 0.127517 0.000000 0.991836
vn 0.127517 0.000000 0.991836
vn 0.273667 0.000000 0.961824
vn -0.273667 0.000000 0.961825
vn -0.127517 0.000000 0.991836
vn -0.127517 0.000000 0.991836
vn -0.273667 0.000000 0.961825
vn -0.127517 0.000000 0.991836
vn -0.273667 0.000000 0.961824
vn -0.273667 0.000000 0.961824
vn -0.127517 0.000000 0.991836
vn -0.999937 -0.001471 0.011136
vn -0.961824 0.000000 0.273667
vn -0.961824 0.000000 0.273667
vn -0.999937 -0.001471 0.011135
vn -0.961824 0.000000 0.273668
vn -0.999937 0.001470 0.011122
vn -0.999937 0.001470 0.011121
vn -0.961824 0.000000 0.273668
vn -0.999997 -0.001541 -0.001895
vn -0.999937 -0.001471 0.011136
vn -0.999937 -0.001471 0.011135
vn -0.999997 -0.001541 -0.001895
vn -0.999993 -0.001036 -0.003539
vn -0.999997 -0.001503 -0.001896
vn 0.999997 0.001539 -0.001895
vn 0.999937 0.001469 0.011122
vn 0.999937 0.001469 0.011121
vn 0.999997 0.001539 -0.001895
vn 0.999993 0.001036 -0.003536
vn 0.999997 0.001502 -0.001896
vn 0.999938 0.000000 -0.011169
vn 0.999938 0.000000 -0.011169
vn 1.000000 0.000000 0.000000
vn 1.000000 0.000000 0.000000
vn -0.990568 0.000000 0.137025
vn -0.990568 0.000000 0.137025
vn -1.000000 0.000000 0.000000
vn -1.000000 0.000000 0.000000
vn 0.990568 0.000000 0.137025
vn 0.990568 0.000000 0.137025
vn 0.971884 0.000000 -0.235459
vn 0.971884 0.000000 -0.235459
vn 0.000000 1.000000 0.000000
vn 0.000000 1.000000 0.000000
vn 0.000000 1.000000 0.000000
vn 0.000000 1.000000 0.000000
vn 0.000000 0.000000 1.000000
vn 0.000000 0.000000 1.000000
vn 0.127517 0.000000 0.991836
vn 0.127517 0.000000 0.991836
vn 0.127517 0.000000 0.991836
vn 0.000000 0.000000 1.000000
vn 0.000000 0.000000 1.000000
vn 0.127517 0.000000 0.991836
vn 0.000000 -1.000000 0.000000
vn 0.000000 -1.000000 0.000000
vn 0.000000 -1.000000 0.000000
vn 0.000000 -1.000000 0.000000
vn -0.208493 0.000000 -0.978024
vn -0.208493 0.000000 -0.978024
vn 0.000000 0.000000 -1.000000
vn 0.000000 0.000000 -1.000000
vn -1.000000 0.000000 0.000000
vn -1.000000 0.000000 0.000000
vn -0.999938 0.000000 -0.011169
vn -0.999938 0.000000 -0.011169
vn 1.000000 0.000000 0.000000
vn 1.000000 0.000000 0.000000
vn 0.990568 0.000000 0.137025
vn 0.990568 0.000000 0.137025
vn -0.001885 -0.999998 -0.000002
vn -0.001884 -0.999998 -0.000002
vn -0.002014 -0.999998 -0.000005
vn -0.001900 -0.999950 0.009821
vn -0.001900 -0.999949 0.009969
vn 0.001900 -0.999949 0.009969
vn 0.001900 -0.999950 0.009821
vn 0.002014 -0.999998 -0.000005
vn 0.001884 -0.999998 -0.000002
vn 0.001885 -0.999998 -0.000002
vn 0.001975 0.999998 0.000099
vn 0.001975 0.999998 0.000099
vn 0.002107 0.999998 0.000100
vn 0.001994 0.999949 0.009925
vn 0.001995 0.999947 0.010073
vn -0.001995 0.999947 0.010073
vn -0.001994 0.999949 0.009925
vn -0.002107 0.999998 0.000100
vn -0.001975 0.999998 0.000099
vn -0.001975 0.999998 0.000099
vn 0.999976 -0.000004 -0.006885
vn 0.999976 0.000004 -0.006885
vn 0.999976 0.000000 -0.006876
vn 0.999976 0.000000 -0.006876
vn -0.999976 0.000004 -0.006885
vn -0.999976 -0.000004 -0.006885
vn -0.999976 0.000000 -0.006876
vn -0.999976 0.000000 -0.006876
vn 0.000868 0.866411 0.499331
vn 0.000855 0.865292 0.501268
vn -0.002152 0.500696 0.865621
vn -0.002163 0.498963 0.866621
vn -0.003510 -0.258819 0.965919
vn -0.003510 -0.258819 0.965919
vn -0.000670 -0.707112 0.707101
vn -0.000670 -0.707112 0.707101
vn -0.000670 -0.707112 0.707102
vn -0.000670 -0.707112 0.707102
vn 0.002313 -0.965926 0.258810
vn 0.002313 -0.965925 0.258810
vn 0.002152 0.500696 0.865621
vn 0.002163 0.498963 0.866621
vn -0.000868 0.866411 0.499331
vn -0.000855 0.865292 0.501268
vn -0.002313 -0.965926 0.258810
vn -0.002313 -0.965926 0.258810
vn 0.000671 -0.707112 0.707101
vn 0.000671 -0.707112 0.707101
vn 0.000671 -0.707112 0.707101
vn 0.000671 -0.707112 0.707101
vn 0.003510 -0.258819 0.965919
vn 0.003510 -0.258819 0.965919
vn 0.999984 -0.004379 -0.003628
vn 0.999961 -0.003397 -0.008204
vn -1.000000 0.000000 0.000000
vn -1.000000 0.000000 0.000000
vn -1.000000 0.000000 0.000000
vn -1.000000 0.000000 0.000000
vn -1.000000 0.000000 0.000000
vn -1.000000 0.000000 0.000000
vn -1.000000 0.000000 0.000000
vn -1.000000 0.000000 0.000000
vn 0.999961 0.003398 -0.008201
vn 0.999984 0.004370 -0.003623
vn -0.999961 -0.003396 -0.008204
vn -0.999984 -0.004379 -0.003628
vn 1.000000 0.000000 0.000000
vn 1.000000 0.000000 0.000000
vn 1.000000 0.000000 0.000000
vn 1.000000 0.000000 0.000000
vn 1.000000 0.000000 0.000000
vn 1.000000 0.000000 0.000000
vn 1.000000 0.000000 0.000000
vn 1.000000 0.000000 0.000000
vn -0.999984 0.004371 -0.003624
vn -0.999961 0.003399 -0.008202
s off
g Book:BookOuter_Book Book1
usemtl Book:initialShadingGroup
f 54/1/1 49/2/2 7/3/3 10/4/4
f 3/5/5 5/6/6 45/7/7 46/8/8
f 3/5/9 2/9/10 6/10/11 5/6/12
f 2/9/13 1/11/14 4/12/15 6/10/16
f 7/3/17 9/13/18 11/14/19 10/4/20
f 9/13/21 8/15/22 12/16/23 11/14/24
f 3/5/25 46/8/26 56/64/27 61/47/28 13/17/29
f 62/69/30 58/18/31 48/19/32 8/15/33 14/55/34
f 7/3/35 49/2/36 50/20/37 16/21/38
f 53/22/39 54/1/40 10/4/41 18/23/42
f 60/67/43 55/24/44 45/7/45 5/6/46 19/49/47
f 12/16/48 47/25/49 57/26/50 59/58/51 20/27/52
f 2/9/53 3/5/54 13/17/55 21/28/56
f 5/6/57 6/10/58 22/29/59 19/49/60
f 1/11/61 2/9/62 21/28/63 15/30/64
f 6/10/65 4/12/66 17/31/67 22/29/68
f 9/13/69 7/3/70 16/21/71 23/32/72
f 10/4/73 11/14/74 24/33/75 18/23/76
f 8/15/77 9/13/78 23/32/79 14/55/80
f 11/14/81 12/16/82 20/27/83 24/33/84
s 1
f 71/72/85 64/81/86 75/73/87 78/83/88
s 2
f 84/75/89 87/85/90 98/78/91 91/88/92
s 3
f 39/46/93 25/34/94 13/17/95 61/47/96 68/79/97 67/48/98
s off
f 16/21/99 50/20/100 51/35/101 28/36/102
f 52/37/103 53/22/104 18/23/105 30/38/106
s 4
f 32/39/107 20/27/108 59/58/109 95/89/110 94/59/111 37/60/112
s off
f 21/28/113 13/17/114 25/34/115 33/40/116
f 19/49/117 22/29/118 34/41/119 31/50/120
f 15/30/121 21/28/122 33/40/123 27/42/124
f 22/29/125 17/31/126 29/43/127 34/41/128
f 23/32/129 16/21/130 28/36/131 35/44/132
f 18/23/133 24/33/134 36/45/135 30/38/136
f 14/55/137 23/32/138 35/44/139 26/56/140
f 24/33/141 20/27/142 32/39/143 36/45/144
s 4
f 62/69/145 14/55/146 26/56/147 40/57/148 86/86/149 85/76/150
s 3
f 60/67/151 19/49/152 31/50/153 38/51/154 77/84/155 76/74/156
s 7
f 44/68/157 43/70/158 57/26/159 58/18/160
s off
f 46/8/161 45/7/162 55/24/163 56/64/164
f 48/19/165 47/25/166 12/16/167 8/15/168
f 50/20/169 49/2/170 1/11/171 15/30/172
f 51/35/173 50/20/174 15/30/175 27/42/176
f 17/31/177 53/22/178 52/37/179 29/43/180
f 4/12/181 54/1/182 53/22/183 17/31/184
f 4/12/185 1/11/186 49/2/187 54/1/188
s 8
f 56/64/189 55/24/190 41/66/191 42/65/192
s off
f 58/18/193 57/26/194 47/25/195 48/19/196
s 9
f 59/58/197 57/26/198 43/70/199 90/77/200 95/89/201
s 10
f 76/74/202 72/82/203 41/66/204 55/24/205 60/67/206
s 1
f 61/47/207 56/64/208 42/65/209 63/71/210 68/79/211
s 2
f 85/76/212 81/87/213 44/68/214 58/18/215 62/69/216
s 3
f 67/80/98 71/72/217 78/83/218 77/52/155 38/53/219 39/54/220
s 4
f 94/90/111 98/78/221 87/85/222 86/61/149 40/62/223 37/63/224
s 1
f 63/71/210 66/92/225 69/93/226 68/79/211
f 66/92/225 65/91/227 70/94/228 69/93/226
f 65/91/227 64/81/86 71/72/85 70/94/228
f 75/73/87 74/96/229 79/97/230 78/83/88
s off
f 74/96/231 73/95/232 80/98/233 79/97/234
s 10
f 73/95/235 72/82/203 76/74/202 80/98/236
s 2
f 84/75/89 83/100/237 88/101/238 87/85/90
f 83/100/237 82/99/239 89/102/240 88/101/238
f 82/99/239 81/87/213 85/76/212 89/102/240
s 9
f 90/77/200 93/104/241 96/105/242 95/89/201
s off
f 93/104/243 92/103/244 97/106/245 96/105/246
s 2
f 92/103/247 91/88/92 98/78/91 97/106/248
s 3
f 67/48/98 68/79/97 69/93/249
f 67/80/98 69/93/249 70/94/250
f 67/80/98 70/94/250 71/72/217
s 8
f 64/81/251 65/91/252 66/92/253 63/71/254 42/65/192 41/66/191 72/82/255 73/95/256 74/96/257 75/73/258
s 3
f 77/52/155 78/83/218 79/97/259
f 77/84/155 79/97/259 80/98/260
f 77/84/155 80/98/260 76/74/156
s 4
f 86/61/149 87/85/222 88/101/261
f 86/86/149 88/101/261 89/102/262
f 86/86/149 89/102/262 85/76/150
s 7
f 90/77/263 43/70/158 44/68/157 81/87/264 82/99/265 83/100/266 84/75/267 91/88/268 92/103/269 93/104/270
s 4
f 94/59/111 95/89/110 96/105/271
f 94/90/111 96/105/271 97/106/272
f 94/90/111 97/106/272 98/78/221
g default
v -0.429311 -0.120135 -1.625470
v 0.429311 -0.120135 -1.625470
v -0.208515 -0.120135 -1.844689
v 0.208515 -0.120135 -1.844689
v -0.208515 -3.879865 -1.844689
v 0.208515 -3.879865 -1.844689
v -0.429311 -3.879865 -1.625470
v 0.429311 -3.879865 -1.625470
v -0.380403 -0.120135 -1.796130
v -0.380403 -3.879865 -1.796130
v 0.380403 -0.120135 -1.796130
v 0.380403 -3.879865 -1.796130
v 0.422803 -3.879865 1.914074
v -0.422803 -3.879865 1.914074
v -0.422803 -0.120135 1.914074
v 0.422803 -0.120135 1.914074
v -0.208515 -3.879865 1.860518
v 0.208515 -3.879865 1.860518
v -0.208515 -0.120135 1.860518
v 0.208515 -0.120135 1.860518
v 0.000000 -0.120135 -1.844689
v 0.000000 -0.120135 1.844502
v 0.000000 -3.879865 1.844502
v 0.000000 -3.879865 -1.844689
vt 0.962992 0.348638
vt 0.662457 0.052572
vt 0.678072 0.036721
vt 0.693748 0.052164
vt 0.978607 0.332787
vt 0.447912 0.821137
vt 0.463819 0.836809
vt 0.448204 0.852659
vt 0.147655 0.556580
vt 0.163270 0.540729
vt 0.895894 0.417563
vt 0.880279 0.433414
vt 0.576506 0.134159
vt 0.592122 0.118308
vt 0.131072 0.573413
vt 0.431621 0.869492
vt 0.415039 0.886325
vt 0.114490 0.590245
vt 0.399424 0.902176
vt 0.383747 0.886732
vt 0.098875 0.606096
vt 0.543341 0.167825
vt 0.847114 0.467080
vt 0.831499 0.482931
vt 0.527726 0.183676
vt 0.914212 0.398154
vt 0.629585 0.117760
vt 0.613677 0.102088
vt 0.629292 0.086237
vt 0.929827 0.382303
vt 0.645874 0.069404
vt 0.946409 0.365470
vt 0.559924 0.150992
vt 0.863696 0.450247
vn 0.000000 1.000000 0.000000
vn 0.000000 1.000000 0.000000
vn 0.000000 1.000000 0.000000
vn 0.000000 1.000000 0.000000
vn 0.000000 1.000000 0.000000
vn 0.000000 -1.000000 0.000000
vn 0.000000 -1.000000 0.000000
vn 0.000000 -1.000000 0.000000
vn 0.000000 -1.000000 0.000000
vn 0.000000 -1.000000 0.000000
vn 0.242470 0.000000 0.970159
vn 0.162365 0.000000 0.986731
vn 0.162365 0.000000 0.986731
vn 0.242470 0.000000 0.970159
vn 0.000000 -1.000000 0.000000
vn 0.000000 -1.000000 0.000000
vn 0.000000 -1.000000 0.000000
vn 0.000000 -1.000000 0.000000
vn 0.000000 -1.000000 0.000000
vn 0.000000 -1.000000 0.000000
vn 0.000000 -1.000000 0.000000
vn 0.000000 -1.000000 0.000000
vn 0.000000 -1.000000 0.000000
vn -0.162365 0.000000 0.986731
vn -0.162365 0.000000 0.986731
vn -0.242470 0.000000 0.970159
vn -0.242470 0.000000 0.970159
vn 0.000000 1.000000 0.000000
vn 0.000000 1.000000 0.000000
vn 0.000000 1.000000 0.000000
vn 0.000000 1.000000 0.000000
vn 0.000000 1.000000 0.000000
vn 0.000000 1.000000 0.000000
vn 0.000000 1.000000 0.000000
vn 0.000000 1.000000 0.000000
vn 0.000000 1.000000 0.000000
vn 0.000000 0.000000 1.000000
vn 0.000000 0.000000 1.000000
vn -0.162365 0.000000 0.986731
vn -0.162365 0.000000 0.986731
vn 0.000000 1.000000 0.000000
vn 0.000000 1.000000 0.000000
vn 0.000000 1.000000 0.000000
vn 0.000000 1.000000 0.000000
vn 0.162365 0.000000 0.986731
vn 0.162365 0.000000 0.986731
vn 0.000000 0.000000 1.000000
vn 0.000000 0.000000 1.000000
vn 0.000000 -1.000000 0.000000
vn 0.000000 -1.000000 0.000000
vn 0.000000 -1.000000 0.000000
vn 0.000000 -1.000000 0.000000
s off
g Book1 Book:Inner_BookBook
usemtl Book:initialShadingGroup
f 117/107/273 101/108/274 107/109/275 99/110/276 113/111/277
f 105/112/278 108/113/279 103/114/280 115/115/281 112/116/282
f 112/117/283 115/118/284 117/119/285 113/120/286
f 121/121/287 122/122/288 104/123/289 116/124/290
f 104/123/291 110/125/292 106/126/293 111/127/294 116/124/295
f 118/128/296 116/129/297 111/130/298 114/131/299
f 114/132/300 100/133/301 109/134/302 102/135/303 118/136/304
f 102/135/305 119/137/306 120/138/307 118/136/308
f 120/139/309 121/140/310 116/129/311 118/128/312
f 119/137/313 101/108/314 117/107/315 120/138/316
f 117/119/317 115/118/318 121/140/319 120/139/320
f 103/114/321 122/122/322 121/121/323 115/115/324
